<svg width="300" height="420" viewBox="0 0 300 420" fill="none" xmlns="http://www.w3.org/2000/svg">
<path d="M155.159 409.023C155.159 409.023 157.151 411.777 166.541 414.166C168.608 414.691 170.836 415.05 170.836 418.457C166.451 418.457 161.568 418.457 161.568 418.457L152.09 416.82V418.457H146.972C146.972 418.457 145.547 410.095 148.537 409.021C151.305 409.023 155.159 409.023 155.159 409.023Z" fill="#212B53"/>
<path d="M155.648 403.016L155.162 409.021C153.295 410.315 150.841 410.397 148.892 409.232L148.54 409.021V403.016H155.648Z" fill="#F7B58E"/>
<path d="M188.584 409.023C188.584 409.023 190.576 411.777 199.966 414.166C202.033 414.691 204.262 415.05 204.262 418.457C199.877 418.457 194.993 418.457 194.993 418.457L185.516 416.82V418.457H180.398C180.398 418.457 178.973 410.095 181.963 409.021C184.731 409.023 188.584 409.023 188.584 409.023Z" fill="#212B53"/>
<path d="M189.069 403.016L188.583 409.021C186.716 410.315 184.262 410.397 182.313 409.232L181.961 409.021V403.016H189.069Z" fill="#F7B58E"/>
<path d="M197.63 269.181C202.304 328.949 190.071 404.639 190.071 404.639H180.554C180.554 404.639 177.65 270.928 162.082 267.963C185.878 267.963 187.432 269.181 197.63 269.181Z" fill="#212B53"/>
<path d="M185.61 269.181C189.265 318.064 157.147 404.638 157.147 404.638H147.816C147.816 404.638 153.814 358.837 154.011 311.272C154.054 300.979 156.094 279.856 155.057 270.401C164.869 270.401 176.699 269.181 185.61 269.181Z" fill="#053C5E"/>
<path d="M222.737 143.342L226.694 137.217C227.037 136.675 227.071 135.993 226.787 135.42L226.111 134.06C225.895 133.626 225.517 133.296 225.058 133.138L218.248 130.82C217.442 130.545 216.551 130.861 216.099 131.582L215.621 132.342C215.369 132.744 215.282 133.228 215.378 133.692L217.227 142.553L222.737 143.342Z" fill="#F7B58E"/>
<path d="M217.225 142.553L214.356 136.779C213.852 135.765 214.426 134.546 215.53 134.286L218.258 133.642C218.984 133.471 221.724 136.438 221.724 136.438C221.724 136.438 220.166 138.962 217.942 135.986C217.643 136.404 216.697 136.647 216.697 136.647C216.697 136.647 220.837 138.375 221.203 143.121L217.225 142.553Z" fill="#F39F85"/>
<path d="M223.879 143.123C223.879 143.123 221.884 180.839 218.747 195.278C215.611 209.718 199.05 232.882 199.05 232.882L181.551 212.167C181.551 212.167 198.079 196.627 204.545 183.524C211.011 170.419 216.233 141.433 216.233 141.433L223.879 143.123Z" fill="#63C0C4"/>
<path d="M138.812 136.111L135.556 129.587C135.275 129.01 135.316 128.33 135.663 127.79L136.486 126.513C136.749 126.106 137.162 125.818 137.636 125.713L144.66 124.158C145.493 123.974 146.343 124.385 146.713 125.153L147.103 125.961C147.308 126.388 147.342 126.879 147.194 127.329L144.377 135.932L138.812 136.111Z" fill="#F7B58E"/>
<path d="M144.374 135.933L147.862 130.511C148.476 129.559 148.039 128.284 146.972 127.905L144.331 126.965C143.628 126.715 140.577 129.361 140.577 129.361C140.577 129.361 141.847 132.041 144.386 129.329C144.636 129.777 145.55 130.124 145.55 130.124C145.55 130.124 141.244 131.385 140.355 136.062L144.374 135.933Z" fill="#F7B58E"/>
<path d="M189.716 204.586C204.395 214.292 197.695 272.757 197.695 272.757L154.097 272.298L158.954 224.481C158.954 224.481 146.653 200.626 142.767 182.469C138.881 164.312 136.937 135.683 136.937 135.683H145.195C145.195 135.683 154.424 173.008 160.254 182.469C166.083 191.93 176.192 204.343 176.192 204.343L189.716 204.586Z" fill="#63C0C4"/>
<path d="M197.62 269.608H198.609C199.69 257.391 201.855 223.472 194.238 209.22C194.067 209.577 193.891 209.933 193.707 210.285C200.725 224.496 198.636 257.762 197.62 269.608Z" fill="url(#paint0_linear)"/>
<path d="M179.887 203.687L181.845 195.341L191.442 196.413L192.157 206.331C192.097 206.402 192.029 206.467 191.959 206.529C188.257 204.682 184.055 203.69 179.887 203.687Z" fill="#F39F85"/>
<path d="M176.59 179.038L179.109 192.166C180.418 191.929 181.389 193.235 181.309 194.507C181.488 194.787 181.611 195.11 181.667 195.45C184.181 196.766 188.632 198.321 193.842 196.55C201.995 193.783 194.683 178.311 194.683 178.311L176.59 179.038Z" fill="#F7B58E"/>
<path d="M173.763 189.555C173.564 188.593 171.955 186.721 171.13 186.187C165.816 182.748 169.641 179.17 171.011 177.995C172.525 176.694 171.778 173.725 173.698 171.741C176.629 168.711 180.173 170.935 182.224 170.251C184.277 169.568 185.194 166.585 188.465 167.643C191.736 168.698 191.734 171.149 192.857 172.026C193.98 172.903 195.393 169.851 198.828 172.636C204.053 176.871 195.43 180.196 195.43 180.196C195.43 180.196 190.833 182.893 184.021 181.26C183.088 181.037 182.062 181.375 181.607 182.221C180.359 184.542 181.881 195.575 181.881 195.575L179.478 194.085C179.476 194.083 174.669 193.956 173.763 189.555Z" fill="#212B53"/>
<path d="M178.938 189.937C179.509 190.916 180.764 191.246 181.744 190.678C182.724 190.108 183.055 188.854 182.487 187.875C181.916 186.896 180.661 186.566 179.681 187.136C178.7 187.704 178.37 188.959 178.938 189.937Z" fill="#F7B58E"/>
<path d="M191.979 202.777L192.176 207.322L177.328 204.364L180.441 199.412L191.979 202.777Z" fill="#AFD8C8"/>
<path d="M3.04709 403.469C3.04709 403.469 0.379098 404.88 0.382674 407.295C0.38625 409.71 0 415.293 0 415.293L2.40155 415.727L3.25273 410.607C3.32068 410.275 7.5587 416.015 10.4431 418.896L21.0524 419.101C21.0524 419.101 22.5205 415.811 15.2605 413.353C8.00218 410.897 3.04709 403.469 3.04709 403.469Z" fill="#00666B"/>
<path d="M11.6711 361.15C11.714 359.357 11.9465 356.441 12.2952 354.68C13.5112 348.522 16.0594 343.806 17.5954 341.377C20.1972 340.414 22.6882 339.211 25.3455 338.161C28.1279 337.062 31.1338 336.36 34.7442 335.498C34.6137 335.855 34.4796 336.212 34.3437 336.571C18.8042 377.532 10.1154 396.133 8.75994 400.537C8.55251 401.21 8.36117 401.877 8.43628 402.577C8.6598 404.703 9.65046 409.247 15.8805 413.572C9.266 415.219 3.05023 403.468 3.05023 403.468C3.05023 403.468 11.3421 375.247 11.6711 361.15Z" fill="#F39F85"/>
<path d="M43.6912 195.492L42.9866 206.623L32.1055 204.375L33.4126 189.245L43.6912 195.492Z" fill="#F39F85"/>
<path d="M46.2018 195.608C47.7916 195.56 49.265 195.299 50.0357 194.612C54.6225 187.311 49.3974 167.63 49.3974 167.63L32.7546 170.611L32.2235 183.8C32.0823 187.321 33.6255 190.699 36.3811 192.898C39.3352 194.708 42.7399 195.712 46.2018 195.608Z" fill="#F7B58E"/>
<path d="M35.4913 407.35C35.4913 407.35 33.2006 409.149 33.6208 411.44C34.0411 413.732 34.6347 419.1 34.6347 419.1H36.9898L36.9165 414.093C36.9236 413.766 41.9663 419.1 42.8211 419.1H55.283C55.283 419.1 56.111 415.722 48.7937 414.638C41.4764 413.554 35.4913 407.35 35.4913 407.35Z" fill="#00666B"/>
<path d="M29.1727 365.064C28.5897 363.367 27.7975 360.552 27.5114 358.78C26.5154 352.581 26.4296 343.897 27.0268 341.089C29.1333 339.285 31.8907 340.673 34.0187 338.767C36.2468 336.771 38.8218 335.072 41.91 333.013C41.9118 333.393 41.91 333.775 41.9064 334.16C41.547 377.962 39.8536 398.418 40.1111 403.018C40.1504 403.722 42.2283 412.772 49.5724 414.671C43.9396 418.506 35.4904 407.35 35.4904 407.35C35.4904 407.35 33.7576 378.402 29.1727 365.064Z" fill="#F7B58E"/>
<path d="M43.1062 204.727L53.56 221.79C54.8475 224.5 55.1836 227.562 54.5184 230.487L47.8771 259.605C47.4926 261.295 47.2798 263.019 47.244 264.75L45.6579 341.088H12.2812C12.2812 341.088 16.5157 326.022 18.6347 306.569C20.7519 287.117 14.554 278.655 16.2814 270.141C17.2989 265.125 20.2888 258.773 24.4964 253.522C26.7066 250.766 27.8689 247.327 27.9566 243.795C28.3106 229.356 13.1736 189.494 27.6222 199.194C42.0672 208.898 43.1062 204.727 43.1062 204.727Z" fill="#00666B"/>
<path d="M43.6862 247.906L44.4712 250.705C44.9075 252.261 45.4601 252.849 46.7226 254.932C50.4009 261.063 62.7967 276.077 62.7967 276.077L72.8159 281.753C72.8159 281.753 72.6085 283.198 70.3375 282.785C68.0647 282.373 66.4124 281.135 66.4124 281.135C66.4124 281.135 65.9975 282.78 68.0647 286.088C69.6097 288.559 74.5648 292.768 71.1636 293.518C68.0647 292.176 64.263 289.704 64.263 289.704C62.4873 288.723 61.2552 286.989 60.9137 284.99L60.0071 279.689L38.7311 262.315C36.3671 260.386 34.6022 257.824 33.6401 254.93L33.5704 254.717L43.6862 247.906Z" fill="#F7B58E"/>
<path d="M101.535 230.575C102.04 230.609 103.774 230.561 106.728 228.757C109.378 227.138 113.818 222.06 114.754 225.432C113.391 228.568 112.17 232.44 112.17 232.44C111.156 234.243 107.944 235.527 105.77 235.931L98.8852 236.338C98.8852 236.338 96.4211 233.846 96.2852 233.75L97.0058 232.501C98.6313 232.112 100.153 231.447 101.535 230.575Z" fill="#F7B58E"/>
<path d="M33.2705 255.541L44.2429 248.155L40.0657 218.938L39.0392 219.084L43.1253 247.656L33.866 253.891L27.0351 230.628L26.0391 230.919L33.2705 255.541Z" fill="#00666B"/>
<path d="M37.6896 175.463C40.8833 177.258 44.1486 177.631 46.6717 177.538C49.9602 177.417 54.0802 174.73 55.4679 171.749C56.6374 169.235 56.8931 166.622 53.0127 163.699C50.3554 161.725 47.0526 162.961 45.6274 164.242C44.5688 165.193 43.0149 165.261 41.9294 164.342C39.882 162.608 36.1875 160.398 30.6638 160.398C24.8754 160.398 25.0364 166.005 25.9161 170.078C26.4383 172.501 25.4315 175.009 23.3215 176.313C19.8846 178.439 15.5106 181.904 16.4101 185.37C17.1325 188.157 18.7848 190.717 20.2583 192.582C21.6942 194.4 21.7085 196.985 20.3066 198.831C18.1715 201.644 15.6698 205.733 16.4101 208.692C17.1111 211.494 19.2015 215.089 20.8842 217.682C22.0769 219.521 22.0662 221.868 20.8895 223.719C19.9686 225.164 19.2337 227.113 19.7165 229.332C20.0777 230.989 20.9038 232.547 21.8283 233.873C23.3984 236.123 26.8281 235.854 28.0459 233.394C31.8369 225.75 38.4729 210.103 36.1554 198.168C34.993 192.183 33.4087 181.624 33.4087 181.624C33.4087 181.624 31.6992 172.917 37.6896 175.463Z" fill="#212B53"/>
<path d="M46.3434 240.099L59.0861 246.694C60.6776 247.518 62.523 247.698 64.2432 247.198L99.2883 236.142V231.722L65.1338 235.865L54.4511 230.191L46.3434 240.099Z" fill="#F7B58E"/>
<path d="M31.2323 178.582C32.1533 177.692 33.8756 177.86 35.0811 178.959C36.2865 180.057 36.5172 181.669 35.5962 182.558C34.6751 183.448 32.9528 183.28 31.7474 182.181C30.5419 181.083 30.3112 179.471 31.2323 178.582Z" fill="#F7B58E"/>
<path d="M43.6836 238.841L47.2135 217.072L62.3452 234.445L58.1966 247.962L43.7766 240.511C44.2075 238.85 43.7766 240.511 43.6836 238.841Z" fill="#00666B"/>
<path d="M49.9666 250.449C49.5625 250.156 49.5625 250.156 49.153 249.879L53.9149 230.348C54.548 227.574 54.2243 224.628 53.0316 222.115L42.7101 205.233C43.0463 204.994 42.9408 205.028 43.1071 204.728C43.1446 204.66 43.5702 204.642 43.6793 204.624L54.1224 221.525C55.4617 224.348 55.8176 227.579 55.1238 230.623" fill="#01888B"/>
<path d="M103.254 231.113C103.254 231.113 103.433 231.181 103.766 231.228C103.54 231.614 103.34 232.01 103.154 232.41C101.879 233.412 100.638 234.456 99.3757 235.47C98.8607 234.609 98.1365 233.4 98.0703 233.323L104.937 224.909C104.937 224.909 106.328 225.354 105.541 227.523C104.753 229.693 103.254 231.113 103.254 231.113Z" fill="#F7B58E"/>
<path d="M125.183 205.279L141.42 249.752L183.242 269.331L146.794 299.462L140.206 344.284L101.129 319.929L55.5492 326.56L67.5355 282.866L46.2649 240.648L92.4361 239.496L125.183 205.279Z" fill="#FFD147"/>
<path d="M183.244 269.331L141.423 249.752L125.444 206.282L101.593 320.31L140.207 344.285L146.795 299.463L183.244 269.331Z" fill="#FF9C00"/>
<path d="M195.236 3L216.34 45.3859L260.088 60.1773L227.232 94.185L225.694 139.463L184.14 119.614L139.587 131.287L146.614 86.5303L120.763 46.9472L166.515 40.6538L195.236 3Z" fill="#FFD147"/>
<path d="M260.087 60.1773L216.339 45.3842L195.603 3.96826L184.641 119.941L225.693 139.463L227.231 94.185L260.087 60.1773Z" fill="#FF9C00"/>
<defs>
<linearGradient id="paint0_linear" x1="193.707" y1="239.414" x2="199.741" y2="239.414" gradientUnits="userSpaceOnUse">
<stop stop-color="#DFEFEA"/>
<stop offset="1" stop-color="#BFE3EE"/>
</linearGradient>
</defs>
</svg>
