<svg width="300" height="420" viewBox="0 0 300 420" fill="none" xmlns="http://www.w3.org/2000/svg">
<path d="M269.294 214.177L246.301 204.522C241.389 202.458 235.662 198.911 233.507 194.043L221.968 167.963L217.975 168.661C217.975 168.661 220.14 196.361 228.984 207.551C237.829 218.741 255.226 224.831 255.226 224.831L269.294 214.177Z" fill="#F7B58E"/>
<path d="M290.165 217.044C290.165 217.044 283.246 204.064 274.189 201.793C266.429 201.793 264.61 202.928 264.61 202.928C264.61 202.928 254.66 215.25 251.195 223.218C249.898 226.197 249.877 229.604 251.245 232.552C257.357 245.709 256.579 271.043 256.579 271.043H287.111C287.111 271.043 281.771 233.125 282.792 225.633C283.813 218.141 290.165 217.044 290.165 217.044Z" fill="#01888B"/>
<path d="M234.391 404.247L232.59 408.929C232.147 410.215 231.283 411.307 230.137 412.041C228.869 412.852 226.886 413.856 223.934 414.728C227.544 417.807 233.289 414.717 236.576 412.444C238.178 411.335 239.312 409.683 239.788 407.794L240.541 404.247H234.391Z" fill="#F7B58E"/>
<path d="M240.151 406.684C240.151 406.684 242.594 408.602 242.145 411.046C241.696 413.49 241.063 419.215 241.063 419.215H238.553L238.63 413.876C238.622 413.527 233.245 419.215 232.333 419.215H219.047C219.047 419.215 218.164 415.614 225.966 414.456C233.771 413.297 240.151 406.684 240.151 406.684Z" fill="#053C5E"/>
<path d="M256.578 271.044L233.624 404.549L241.049 404.701C241.049 404.701 257.334 376.642 259.732 353.381C260.129 349.535 260.312 345.623 262.824 342.683C281.995 320.251 276.541 284.817 276.541 284.817L266.173 271.042H256.578V271.044Z" fill="#212B53"/>
<path d="M291.965 404.247L290.164 408.929C289.72 410.215 288.857 411.307 287.711 412.041C286.443 412.852 284.46 413.856 281.507 414.728C285.118 417.807 290.863 414.717 294.15 412.444C295.752 411.335 296.886 409.683 297.361 407.794L298.114 404.247H291.965Z" fill="#F7B58E"/>
<path d="M297.726 406.684C297.726 406.684 300.168 408.602 299.719 411.046C299.272 413.49 298.638 419.215 298.638 419.215H296.127L296.204 413.876C296.197 413.527 290.82 419.215 289.908 419.215H276.621C276.621 419.215 275.738 415.614 283.542 414.456C291.343 413.297 297.726 406.684 297.726 406.684Z" fill="#053C5E"/>
<path d="M263.461 196.475L263.441 211.331L272.368 201.611L271.406 187.782L263.461 196.475Z" fill="#F39F85"/>
<path d="M261.975 174.768C268.158 175.608 271.234 183.525 271.234 183.525L271.164 206.959L281.886 197.698C281.886 197.698 282.664 187.124 280.02 175.606C277.725 168.351 268.471 166.442 261.975 169.98C258.815 171.702 256.938 175.079 255.822 178.434C254.325 182.937 254.193 187.784 255.185 192.425L258.863 209.621L263.441 205.087C263.441 205.087 264.614 200.699 263.463 196.474C261.106 187.843 257.823 174.203 261.975 174.768Z" fill="#212B53"/>
<path d="M273.052 183.854C272.358 183.184 271.062 183.311 270.155 184.138C269.248 184.965 269.075 186.178 269.767 186.848C270.461 187.518 271.757 187.391 272.666 186.564C273.573 185.737 273.746 184.524 273.052 183.854Z" fill="#F7B58E"/>
<path d="M260.88 196.671C259.684 196.636 258.574 196.439 257.993 195.921C254.54 190.424 258.472 175.604 258.472 175.604L263.99 173.061L271.002 177.848L271.4 187.779C271.508 190.43 270.345 192.974 268.269 194.628C266.052 195.994 263.488 196.75 260.88 196.671Z" fill="#F7B58E"/>
<path d="M260.805 173.958C259.484 178.386 271.232 183.526 271.232 183.526L274.185 177.998L268.791 171.394L261.973 172.482C261.973 172.482 261.031 173.22 260.805 173.958Z" fill="#212B53"/>
<path d="M260.735 174.89C260.488 176.637 257.76 178.756 257.76 178.756L257.505 176.667L258.127 175.199L259.528 174.422C259.526 174.424 260.98 173.143 260.735 174.89Z" fill="#212B53"/>
<path d="M285.29 271.043C285.29 271.043 306.867 280.314 295.576 338.503C294.914 341.911 295.335 345.466 296.316 348.796C301.098 365.027 298.389 404.7 298.389 404.7H290.93C290.93 404.7 265.962 301.165 264.351 271.043C279.386 271.043 285.29 271.043 285.29 271.043Z" fill="#053C5E"/>
<path d="M221.784 164.217C221.544 163.819 220.859 162.381 221.101 159.21C221.317 156.366 223.62 150.61 220.466 151.257C218.467 153.685 215.806 156.302 215.806 156.302C214.753 157.884 215.044 161.048 215.625 162.995L218.172 168.794C218.172 168.794 221.244 169.766 221.381 169.837L222.104 168.726C221.741 167.234 221.648 165.711 221.784 164.217Z" fill="#F7B58E"/>
<path d="M220.621 163.038C220.621 163.038 220.49 162.92 220.313 162.667C220.092 163.012 219.85 163.342 219.602 163.66C219.314 165.121 218.979 166.572 218.675 168.03C219.596 168.09 220.889 168.176 220.98 168.198L225.001 159.064C225.001 159.064 224.055 158.113 222.606 159.664C221.158 161.218 220.621 163.038 220.621 163.038Z" fill="#F7B58E"/>
<path d="M277.77 203.037L278.271 203.795C278.147 203.875 266.034 212.008 266.034 225.287V279.406H288.22L287.514 237.733C287.814 237.97 288.12 238.202 288.435 238.426L289.145 280.315H265.125V225.289C265.127 211.526 277.645 203.121 277.77 203.037Z" fill="#63C0C4"/>
<path d="M290.163 217.044C290.163 217.044 305.354 256.308 294.956 259.884C284.557 263.46 265.583 235.223 265.583 235.223L269.24 232.374L286.562 247.142C286.562 247.142 282.66 241.64 280.731 229.435C278.799 217.23 290.163 217.044 290.163 217.044Z" fill="#F7B58E"/>
<path d="M269.708 233.023L268.585 224.847C268.585 224.847 265.756 221.748 263.617 221.194C262.972 221.028 262.294 221.301 261.91 221.844C261.021 223.102 258.998 226.056 258.955 227.007C258.934 227.477 259.17 227.923 259.529 228.229L262.14 230.496L265.581 235.226L269.708 233.023Z" fill="#F7B58E"/>
<path d="M266.268 291.12H287.704C289.78 291.12 291.477 289.423 291.477 287.35V273.288C291.477 271.214 289.78 269.519 287.704 269.519H266.268C264.192 269.519 262.495 271.216 262.495 273.288V287.35C262.495 289.423 264.194 291.12 266.268 291.12Z" fill="#63C0C4"/>
<path d="M262.496 279.866V273.283C262.496 271.209 264.195 269.514 266.269 269.514H287.704C289.781 269.514 291.478 271.211 291.478 273.283V279.866H262.496Z" fill="#FFDA71"/>
<path d="M265.647 291.118C267.455 291.118 268.934 290.345 268.934 288.539V272.097C268.934 270.291 267.455 269.517 265.647 269.517C263.839 269.517 262.36 270.994 262.36 272.097V287.835C262.36 290.343 263.839 291.118 265.647 291.118Z" fill="#01888B"/>
<path d="M280.39 283.418C280.939 283.418 281.388 282.97 281.388 282.421V277.4C281.388 276.851 280.939 276.403 280.39 276.403C279.841 276.403 279.392 276.851 279.392 277.4V282.421C279.392 282.97 279.841 283.418 280.39 283.418Z" fill="#053C5E"/>
<path d="M200.934 78.7607L191.93 111.3L163.317 127.601L190.95 146.944L198.191 178.433L224.579 158.891L257.36 161.008L246.345 130.631L259.056 99.4062L226.167 101.218L200.934 78.7607Z" fill="#FFD147"/>
<path d="M163.318 127.602L191.931 111.301L200.81 79.4888L224.274 159.189L198.192 178.434L190.951 146.945L163.318 127.602Z" fill="#FF9C00"/>
<path d="M136.357 412.112C136.357 412.112 132.912 415.302 125.062 417.3C123.333 417.739 121.47 417.151 121.47 420.001C125.136 420.001 130.997 420.001 130.997 420.001L138.921 418.632V420.001H143.2C143.2 420.001 144.391 413.009 141.893 412.112C139.579 412.112 136.357 412.112 136.357 412.112Z" fill="#212B53"/>
<path d="M136.838 407.09L136.357 412.112C137.918 413.193 139.969 413.262 141.6 412.287L141.894 412.112L142.783 407.09H136.838Z" fill="#F7B58E"/>
<path d="M170.86 412.112C170.86 412.112 167.416 415.302 159.565 417.3C157.836 417.739 155.973 417.151 155.973 420.001C159.639 420.001 165.5 420.001 165.5 420.001L173.424 418.632V420.001H177.703C177.703 420.001 178.894 413.009 176.396 412.112C174.082 412.112 170.86 412.112 170.86 412.112Z" fill="#212B53"/>
<path d="M171.343 407.09L170.86 412.112C172.421 413.193 174.472 413.262 176.103 412.287L176.397 412.112L177.286 407.09H171.343Z" fill="#F7B58E"/>
<path d="M85.306 221.373C84.7749 221.523 82.9151 221.864 79.3548 220.608C76.1593 219.483 70.2725 215.071 70.04 218.881C72.2056 221.918 74.3872 225.771 74.3872 225.771C75.8785 227.465 79.5962 228.108 82.0067 228.043L89.4421 226.92C89.4421 226.92 91.5057 223.704 91.6291 223.569L90.5776 222.4C88.7518 222.354 86.9779 221.989 85.306 221.373Z" fill="#F7B58E"/>
<path d="M83.5966 222.338C83.5966 222.338 83.4214 222.45 83.0762 222.575C83.4035 222.936 83.7075 223.313 83.9954 223.697C85.5815 224.476 87.1426 225.309 88.7216 226.105C89.0739 225.069 89.5746 223.617 89.6264 223.519L80.3922 216.1C80.3922 216.1 79.0099 216.889 80.3421 219.026C81.6761 221.161 83.5966 222.338 83.5966 222.338Z" fill="#F7B58E"/>
<path d="M157.007 194.143L156.008 203.972L166.553 204.39L164.439 189.15L157.007 194.143Z" fill="#F39F85"/>
<path d="M153.767 195.936C152.542 195.902 151.406 195.72 150.813 195.236C147.279 190.104 151.304 176.266 151.304 176.266L156.952 173.89L164.128 178.362L164.535 187.635C164.644 190.111 163.455 192.485 161.331 194.03C159.058 195.306 156.433 196.011 153.767 195.936Z" fill="#F7B58E"/>
<path d="M162.997 183.618C162.603 182.061 162.809 178.466 161.221 178.725C160.062 178.915 156.094 179.077 154.758 179.077C151.575 179.077 145.903 177.834 145.903 172.995C145.903 170.576 148.251 168.491 149.739 167.869C151.198 167.26 152.849 167.291 154.342 167.81C157.847 169.034 162.494 171.735 164.348 171.362C167.467 170.735 170.579 172.562 170.534 175.21C170.487 178.038 169.01 182.291 167.619 184.992C166.814 186.555 165.738 187.958 164.44 189.146L162.997 183.618Z" fill="#212B53"/>
<path d="M166.224 183.969C165.514 183.344 164.187 183.462 163.259 184.234C162.331 185.005 162.152 186.138 162.862 186.765C163.572 187.39 164.899 187.272 165.827 186.501C166.757 185.727 166.934 184.595 166.224 183.969Z" fill="#F7B58E"/>
<path d="M146.913 208.398C127.043 223.831 88.5091 219.749 88.5091 219.749L86.728 229.84C86.728 229.84 135.619 244.272 141.719 232.725C147.816 221.178 166.782 192.965 146.913 208.398Z" fill="#AFD8C8"/>
<path d="M161.277 201.118C160.916 201.118 160.56 201.125 160.212 201.137C148.583 201.562 139.501 217.592 139.501 229.216V271.255H184.381V223.142C184.381 212.449 176.715 203.102 166.136 201.477C164.628 201.248 163.012 201.118 161.277 201.118Z" fill="#AFD8C8"/>
<path d="M146.961 263.12L137.029 264.26C132.968 264.415 129.712 258.64 128.621 254.22C128.456 253.556 129.068 252.961 129.733 253.123C133.22 253.977 142.195 256.237 144.573 257.42L146.961 263.12Z" fill="#F7B58E"/>
<path d="M181.742 212.645C181.742 212.645 204.377 242.846 190.157 257.496C175.938 272.145 143.943 265.93 143.943 265.93V256.608C143.943 256.608 174.16 256.682 175.938 246.435C177.715 236.188 168.753 225.089 168.753 225.089" fill="#AFD8C8"/>
<path d="M184.383 261.377C170.059 269.619 147.507 266.098 144.39 265.559V257.05C148.311 257.018 174.657 256.434 176.377 246.51C178.169 236.183 169.471 225.27 169.099 224.811L168.409 225.368C168.496 225.477 177.225 236.424 175.503 246.359C173.816 256.071 144.549 256.164 143.953 256.164H143.946H143.501V266.297L143.86 266.366C144.007 266.395 150.666 267.647 159.232 267.647C167.207 267.647 176.826 266.547 184.381 262.375V261.377H184.383Z" fill="#63C0C4"/>
<path d="M139.498 271.258C134.367 296.124 133.579 322.888 133.462 345.352C133.275 381.536 136.247 407.978 136.247 407.978H143.653L159.118 304.546C159.118 304.546 160.804 319.928 163.086 346.011C164.877 366.478 165.721 383.781 170.533 407.978C177.985 407.978 177.963 407.978 177.963 407.978C177.963 407.978 184.378 333.292 184.378 271.258C166.979 271.258 148.449 271.258 139.498 271.258Z" fill="#212B53"/>
<path d="M156.474 198.465H165.85L167.343 201.913H155.267L156.474 198.465Z" fill="white"/>
<path d="M59.7339 200.245L99.4891 226.007L144.684 216.507L133.719 262.483L155.454 302.243L109.571 306.277L77.1598 338.97L60.417 296.868L18.001 275.931L54.1851 247.258L59.7339 200.245Z" fill="#FFD147"/>
<path d="M144.683 216.507L99.4882 226.007L60.5431 200.891L110.169 306.304L155.453 302.244L133.718 262.484L144.683 216.507Z" fill="#FF9C00"/>
</svg>
