<svg width="97" height="120" viewBox="0 0 97 120" fill="none" xmlns="http://www.w3.org/2000/svg">
<path d="M49.9053 23.793L62.7893 42.0335L58.3559 43.5376L46.1133 34.6699L46.6647 28.4962L49.9053 23.793Z" fill="#F8B68F"/>
<path d="M47.1722 15.093C52.9784 19.2686 48.455 54.9863 48.455 54.9863L25.2188 50.4851C25.2187 50.4851 27.0416 14.2399 47.1722 15.093Z" fill="#00666A"/>
<path d="M44.1285 15.2156L46.3903 11.9043L50.3961 13.9921L49.0346 18.4372C49.0008 18.4596 48.9558 18.4709 48.9108 18.4933C47.6168 17.0565 45.9514 15.9116 44.1285 15.2156Z" fill="#F4A086"/>
<path d="M46.8519 3.90234L45.7379 10.0536C46.3455 10.1658 46.5481 10.9067 46.3005 11.4455C46.3343 11.6026 46.3343 11.7598 46.3005 11.9169C47.1782 12.9159 48.8548 14.3415 51.4316 14.4425C55.46 14.6109 54.8861 6.63 54.8861 6.63L46.8519 3.90234Z" fill="#F8B68F"/>
<path d="M43.8388 8.02077C43.9175 7.57177 43.5237 6.48295 43.2536 6.11253C41.5095 3.72162 43.7938 2.80118 44.5814 2.52056C45.4591 2.20626 45.6391 0.79192 46.8094 0.241899C48.5985 -0.588744 49.7688 0.982744 50.7815 1.02764C51.7942 1.07254 52.6944 -0.0723984 53.9434 0.937844C55.1924 1.94809 54.7761 3.01445 55.1249 3.58692C55.4625 4.15939 56.599 3.07058 57.6342 4.85534C59.1983 7.58299 54.8774 7.58299 54.8774 7.58299C54.8774 7.58299 52.4131 7.98709 49.7125 6.12375C49.3412 5.86558 48.8348 5.84313 48.4973 6.13498C47.5633 6.93195 46.3593 12.0056 46.3593 12.0056L45.5716 10.9505C45.5716 10.9505 43.4899 10.0861 43.8388 8.02077Z" fill="#212B53"/>
<path d="M46.0447 9.05466C46.1234 9.58233 46.6186 9.93037 47.1474 9.85178C47.6763 9.77319 48.0251 9.2792 47.9463 8.75153C47.8676 8.22387 47.3725 7.87583 46.8436 7.95442C46.3147 8.04423 45.9547 8.53822 46.0447 9.05466Z" fill="#F8B68F"/>
<path d="M4.56848 92.2969C4.56848 92.2969 2.72308 94.2837 1.56408 98.8185C1.30528 99.8175 1.6541 100.895 0 100.895C0 98.7849 0 95.3949 0 95.3949L0.787668 90.8264H0V88.3569C0 88.3569 4.05087 87.6722 4.56848 89.109C4.56848 90.4447 4.56848 92.2969 4.56848 92.2969Z" fill="#212B53"/>
<path d="M7.46888 91.8158L4.56576 92.2986C3.93562 91.4004 3.90187 90.2104 4.46449 89.2785L4.56576 89.1101L7.46888 88.3916V91.8158Z" fill="#F8B68F"/>
<path d="M42.4595 113.77C42.4595 113.77 42.4707 116.857 48.682 118.709C49.9536 119.091 49.5372 119.462 49.7848 120C47.7481 120 42.6395 120 42.6395 120L39.8376 116.869L38.9712 117.609L36.957 115.634C36.957 115.634 37.9022 112.771 39.4326 112.749C40.6928 113.176 42.4595 113.77 42.4595 113.77Z" fill="#212B53"/>
<path d="M43.6164 111.099L42.4574 113.771C41.3997 114.074 40.2632 113.726 39.5543 112.895L39.4305 112.749L40.3645 109.999L43.6164 111.099Z" fill="#F8B68F"/>
<path d="M25.7197 58.4893C25.7197 58.4893 25.9897 67.6263 29.5005 75.6073C30.5807 78.0655 29.1517 80.883 26.5186 81.433C13.8597 84.0708 6.70312 88.3251 6.70312 88.3251V92.6691L36.2519 88.6394C41.0005 87.9883 44.68 84.1943 45.1751 79.4462L46.1203 70.3315L25.7197 58.4893Z" fill="#212B53"/>
<path d="M47.0036 57.1636C47.0036 57.1636 57.2208 76.2684 57.2208 82.1951C57.2208 88.1219 43.4703 111.234 43.4703 111.234H39.5432C39.5432 111.234 40.2409 96.5855 42.8965 84.4401C43.4141 82.0604 42.6827 79.5685 40.8935 77.896C32.533 70.0722 25.1289 57.1523 25.1289 57.1523H47.0036V57.1636Z" fill="#043C5E"/>
<path d="M22.0707 47.9824L23.8823 64.9994C23.8823 64.9994 28.9459 63.1809 32.9743 63.2707C34.5046 63.3044 35.9224 64.0789 36.8563 65.28C48.9977 80.9163 60.5314 75.6294 60.5314 75.6294C60.5314 75.6294 75.5083 72.2956 74.7094 50.7101C73.843 27.699 53.6337 31.2236 53.6337 31.2236C53.6337 31.2236 42.2012 31.3695 35.7649 44.0312C34.8422 45.8385 33.1093 47.1069 31.1289 47.5671C26.144 48.7233 22.0707 47.9824 22.0707 47.9824Z" fill="#FFD247"/>
<path d="M23.9271 64.9882L17.8171 65.6392C15.5328 65.8862 13.4961 64.5841 13.3048 62.7656L12.2021 52.405C12.0108 50.5866 13.7212 48.8916 16.0167 48.6447L22.1267 47.9937L23.9271 64.9882Z" fill="#63C1C5"/>
<path d="M13.1789 61.6884L10.2645 60.8129L9.57812 54.3698L12.2224 52.6636L13.1789 61.6884Z" fill="#01898C"/>
<path d="M51.036 62.2152C56.1446 64.2918 57.855 57.6804 54.2317 55.02C53.5791 54.5374 52.7351 54.3802 51.925 54.4476C50.4847 54.571 48.2567 54.8292 48.2567 54.8292C48.313 53.9088 48.448 52.8761 48.5943 52.1016C49.9783 51.9893 51.4074 51.8209 52.5664 51.3046C57.6749 48.9698 52.8589 42.6165 49.4945 46.9718C48.7068 47.9932 48.1892 49.4188 47.8629 50.9454C39.5023 51.8995 31.1418 52.8536 22.7812 53.8078L22.905 54.9751C28.0474 54.3915 33.1785 53.7965 38.3208 53.2128C40.9876 52.9098 43.6545 52.6067 46.3213 52.3036C46.7376 52.2587 47.1877 52.225 47.6491 52.1914C47.5253 53.0781 47.469 53.9649 47.4578 54.8068L23.1638 57.3773L23.2876 58.5447L47.4915 55.9854C47.5028 56.2211 47.514 56.4681 47.5365 56.6813C47.7728 58.8477 48.8418 61.3172 51.036 62.2152ZM48.8418 50.8332C49.2131 49.1382 50.0796 46.7024 51.6999 46.3095C52.0938 46.2197 52.5213 46.3432 52.8252 46.6238C55.717 49.228 51.1373 50.5638 50.5522 50.6087C50.0008 50.7209 49.4157 50.777 48.8418 50.8332ZM51.1373 61.205C49.0444 60.0937 48.2792 58.062 48.2342 55.8731L51.9587 55.4803C52.6451 55.4017 53.3428 55.6037 53.8829 56.0415C54.8393 56.8273 55.9196 58.2865 55.1544 60.3182C54.5018 61.6091 52.5551 61.957 51.1373 61.205Z" fill="white"/>
<path d="M76.553 28.4956C76.9469 28.8099 77.5095 28.7538 77.8245 28.3609L85.5212 18.8646C85.8363 18.4718 85.78 17.9105 85.3862 17.5962C84.9923 17.2819 84.4297 17.338 84.1146 17.7309L76.418 27.2272C76.1029 27.6201 76.1592 28.1813 76.553 28.4956Z" fill="#FFD247"/>
<path d="M80.586 66.4243C80.901 66.0314 81.4749 65.9753 81.8575 66.2896L91.377 73.9674C91.7708 74.2817 91.8271 74.8542 91.512 75.2358C91.197 75.6287 90.6231 75.6848 90.2405 75.3705L80.721 67.6927C80.3272 67.3784 80.2709 66.8059 80.586 66.4243Z" fill="#FFD247"/>
<path d="M82.0116 49.8459C82.0679 50.3398 82.5067 50.6991 83.0131 50.6542L95.1882 49.3631C95.6833 49.307 96.0434 48.8691 95.9983 48.3639C95.9421 47.8699 95.5032 47.5106 94.9969 47.5555L82.8218 48.8467C82.3267 48.9028 81.9666 49.3519 82.0116 49.8459Z" fill="#FFD247"/>
<path d="M30.8075 27.0591L38.898 32.0542L33.0692 38.7218L32.2366 57.6807L29.0971 57.0745C29.0971 57.0745 24.1686 42.4372 25.1588 37.386C26.1265 32.346 30.8075 27.0591 30.8075 27.0591Z" fill="#F8B68F"/>
<path d="M32.2367 57.6818L32.203 61.4422C32.203 62.0483 32.023 62.632 31.6854 63.1371C31.0552 64.0912 29.93 65.4831 28.8948 65.2811C27.342 64.978 25.5078 61.4085 25.5078 61.4085L29.0861 57.0645L32.2367 57.6818Z" fill="#F8B68F"/>
</svg>
