<svg width="360" height="260" viewBox="0 0 360 260" fill="none" xmlns="http://www.w3.org/2000/svg">
<path d="M190.163 107.59H201.638C212.37 107.59 222.078 113.913 226.432 123.718L237.344 148.32L214.624 159.201L221.898 164.116L225.92 201.442L142.623 200.034L139.473 107.052L189.727 108.153L190.163 107.59Z" fill="#63C1C5"/>
<path d="M181.045 88.7223C181.045 88.7223 182.095 99.9354 183.658 104.672C184.887 108.051 190.164 107.59 190.164 107.59C190.164 107.59 186.117 125.357 171.235 125.357C156.353 125.357 154.048 110.099 154.048 110.099L164.626 108.46L159.734 92.2296L181.045 88.7223Z" fill="#F4A086"/>
<path d="M187.089 63.8633L183.683 43.7924L148.95 59.2808L151.051 71.0315C151.051 71.0315 153.74 99.6275 172.208 96.2226C192.212 92.5361 187.96 63.6073 187.089 63.8633Z" fill="#F8B68F"/>
<path d="M237.344 148.32L242.032 164.935C245.464 177.07 241.801 190.075 232.58 198.677L211.295 216.52L204.456 196.552L216.213 184.776C220.081 180.91 221.233 175.099 219.133 170.055L214.625 159.2L237.344 148.32Z" fill="#F8B68F"/>
<path d="M123.823 152.646L121.211 160.736C116.472 175.482 120.135 191.611 130.765 202.875L143.674 216.546L150.334 184.596L131.917 152.646H123.823Z" fill="#F8B68F"/>
<path d="M121.211 160.711L132.814 167.444L134.761 148.218H124.387L121.211 160.711Z" fill="#63C1C5"/>
<path d="M151.077 72.2606C173.387 76.9711 185.963 52.1384 185.963 52.1384C185.963 52.1384 185.272 57.3098 187.398 64.99C194.903 55.2617 190.01 42.9734 190.01 42.9734C190.01 42.9734 183.94 29.5586 156.866 36.138C125.309 43.7926 120.033 87.1346 120.033 87.1346C120.033 87.1346 117.728 96.5813 125.847 111.711C128.152 115.987 128.024 121.26 125.053 125.1C118.291 133.907 120.007 144.787 120.007 144.787C120.007 144.787 120.673 150.445 125.514 154.157C130.048 157.639 131.867 165.063 130.048 170.465C126.155 182.036 129.484 188.616 129.484 188.616C129.484 188.616 131.585 196.04 143.162 196.501C160.016 197.166 159.658 183.777 158.146 176.225C157.557 173.358 158.326 170.388 160.272 168.212C162.347 165.908 164.601 162.324 164.729 157.46C164.857 153.364 163.244 149.037 161.451 145.53C159.12 140.973 159.53 135.546 162.578 131.424C166.881 125.587 172.439 113.939 169.34 106.412C164.063 93.6884 155.098 89.4387 151.077 72.2606Z" fill="#212B53"/>
<path d="M223.871 171.029H139.473V221.513H223.871V171.029Z" fill="url(#paint0_linear)"/>
<path d="M223.871 219.414H139.473V223.613H223.871V219.414Z" fill="#CBB8CD"/>
<path d="M178.305 191.613C178.305 193.482 179.816 194.992 181.686 194.992C183.556 194.992 185.067 193.482 185.067 191.613C185.067 189.744 183.556 188.234 181.686 188.234C179.816 188.259 178.305 189.77 178.305 191.613Z" fill="white"/>
<path d="M284.295 208.048C295.181 240.714 150.949 255.307 150.949 255.307L147.517 236.849C147.491 236.849 273.409 175.381 284.295 208.048Z" fill="#212B53"/>
<path d="M142.214 255.254L121.544 256.483L117.625 252.182L119.623 244.374L139.166 241.558L142.214 255.254Z" fill="#F8B68F"/>
<path d="M121.541 244.118L100.486 241.583C100.486 241.583 92.3408 239.433 85.0664 240.636V259.734C90.5222 260.374 95.9267 259.657 95.9267 259.657L121.541 256.508L121.259 256.073C118.902 252.489 119.005 247.548 121.541 244.118Z" fill="#01898C"/>
<path d="M74.3623 249.033C75.7711 243.631 80.2792 241.378 85.1715 240.61V259.734C78.8192 258.992 72.3901 256.509 74.3623 249.033Z" fill="url(#paint1_linear)"/>
<path d="M111.221 245.5H109.121V253.718H111.221V245.5Z" fill="white"/>
<path d="M106.022 245.5H103.922V253.718H106.022V245.5Z" fill="white"/>
<path d="M147.491 234.032L151.359 257.892L142.24 259.632L137.681 236.848L147.491 234.032Z" fill="#63C1C5"/>
<path d="M187.04 64.7349C186.117 67.1669 186.655 69.6246 188.269 70.239C189.883 70.8534 191.957 69.3942 192.88 66.9877C193.802 64.5557 193.264 62.098 191.65 61.4836C190.036 60.8692 187.987 62.3284 187.04 64.7349Z" fill="#F8B68F"/>
<path d="M74.5944 208.048C63.7085 240.714 207.941 255.307 207.941 255.307L211.373 236.849C211.399 236.849 85.4548 175.381 74.5944 208.048Z" fill="#212B53"/>
<path d="M216.647 255.253L237.344 256.482L241.263 252.181L239.265 244.373L219.721 241.557L216.647 255.253Z" fill="#F8B68F"/>
<path d="M273.894 240.636C266.594 239.433 258.397 241.583 258.397 241.583L237.343 244.118C239.879 247.548 239.981 252.489 237.625 256.047L237.343 256.483L262.957 259.632C262.957 259.632 268.413 260.348 273.894 259.683V240.636Z" fill="#01898C"/>
<path d="M284.527 249.033C283.118 243.631 278.61 241.378 273.718 240.61V259.734C280.044 258.991 286.474 256.508 284.527 249.033Z" fill="url(#paint2_linear)"/>
<path d="M249.763 245.5H247.663V253.718H249.763V245.5Z" fill="white"/>
<path d="M254.967 245.5H252.866V253.718H254.967V245.5Z" fill="white"/>
<path d="M211.399 234.032L207.531 257.892L216.65 259.632L221.209 236.848L211.399 234.032Z" fill="#63C1C5"/>
<path d="M225.125 82.9873C225.125 82.9873 232.041 72.3886 234.5 69.5469C243.362 60.3819 226.687 16.0415 237.445 8.95006C248.203 1.85866 325.89 -7.02478 334.394 8.95006C342.873 24.9249 347.176 74.2831 331.397 81.1953C315.619 88.0818 253.48 83.1665 246.59 80.9393C235.012 77.1504 225.125 82.9873 225.125 82.9873Z" fill="#FF9C00"/>
<path d="M261.781 43.3323C261.781 43.3323 282.554 35.2168 282.964 17.8339C285.679 6.62084 290.571 13.4818 290.571 13.4818C290.571 13.4818 294.849 25.6678 290.571 34.6536C298.23 36.1385 303.378 35.3448 309.013 37.9049C314.469 40.3882 313.06 55.467 303.455 67.7809C296.642 76.5364 263.6 66.7057 263.6 66.7057L261.781 43.3323Z" fill="white"/>
<defs>
<linearGradient id="paint0_linear" x1="139.479" y1="196.268" x2="223.874" y2="196.268" gradientUnits="userSpaceOnUse">
<stop stop-color="#E0F0EB"/>
<stop offset="1" stop-color="#C0E4EF"/>
</linearGradient>
<linearGradient id="paint1_linear" x1="74.0038" y1="250.155" x2="85.1697" y2="250.155" gradientUnits="userSpaceOnUse">
<stop stop-color="#E0F0EB"/>
<stop offset="1" stop-color="#C0E4EF"/>
</linearGradient>
<linearGradient id="paint2_linear" x1="273.711" y1="250.155" x2="284.877" y2="250.155" gradientUnits="userSpaceOnUse">
<stop stop-color="#E0F0EB"/>
<stop offset="1" stop-color="#C0E4EF"/>
</linearGradient>
</defs>
</svg>
