<svg width="360" height="549" viewBox="0 0 360 549" fill="none" xmlns="http://www.w3.org/2000/svg">
<path d="M358.414 304.365C367.002 341.686 278.989 346.488 242.718 346.886C232.663 346.995 222.662 346.053 212.807 344.042C182.134 337.809 114.992 321.486 124.413 299.274C136.57 270.613 173.058 290.596 173.058 290.596C173.058 290.596 168.474 268.964 230.58 254.67C292.667 240.376 292.431 287.987 292.431 287.987C292.431 287.987 347.634 257.478 358.414 304.365Z" fill="url(#paint0_linear)"/>
<path d="M132.667 162.132C132.667 162.132 98.0448 53.9369 162.016 0.708771C287.115 70.3872 218.234 193.239 218.234 193.239L132.667 162.132Z" fill="#FFD247"/>
<path d="M162.017 0.708786C162.451 0.944309 162.868 1.19794 163.303 1.43346L170.948 135.047L230.644 76.692C230.952 77.5797 231.224 78.4493 231.514 79.3371L171.148 138.345L173.358 176.898L170.803 175.974L166.401 99.1029L124.695 74.5723C124.804 73.6845 124.931 72.7787 125.058 71.8909L166.238 96.1135L160.839 1.72334C161.219 1.39723 161.6 1.03489 162.017 0.708786Z" fill="white"/>
<path d="M162.234 137.348C162.234 137.348 202.708 31.5444 281.735 21.1995C339.003 98.0523 263.002 174.959 263.002 174.959L171.655 213.259L162.234 137.348Z" fill="#01898C"/>
<path d="M205.735 66.3471L228.508 111.115L279.889 21.471C280.505 21.3804 281.121 21.2717 281.755 21.1811C281.972 21.4891 282.189 21.779 282.407 22.087L254.887 70.0974L300.615 60.767C300.723 61.2018 300.796 61.6367 300.886 62.0534L301.122 63.1947L253.238 72.978L207.384 152.983L288.15 139.16C287.661 140.102 287.172 141.026 286.664 141.95L205.771 155.791L173.215 212.607L171.675 213.259L171.367 210.813L227.041 113.687L203.996 68.3581C204.558 67.7059 205.137 67.0356 205.735 66.3471Z" fill="#00666A"/>
<path d="M189.283 184.326C189.283 184.326 267.966 131.895 319.907 168.401C312.407 297.848 147.215 297.449 147.215 297.449L189.283 184.326Z" fill="#043C5E"/>
<path d="M319.908 168.401C319.872 168.908 319.835 169.397 319.799 169.887L208.107 232.481L272.677 258.715C271.897 259.313 271.118 259.874 270.339 260.454L205.317 234.039L161.691 258.497L163.032 254.874L247.965 207.262L262.603 156.335C263.491 156.226 264.397 156.118 265.285 156.027L251.063 205.523L318.73 167.604C319.147 167.876 319.527 168.129 319.908 168.401Z" fill="#00666A"/>
<path d="M103.171 363.214C105.726 362.272 110.908 353.249 114.622 342.234C124.622 342.705 134.514 341.691 143.989 339.317C148.301 348.521 153.827 357.761 158.809 358.485C168.918 359.953 191.873 344.318 193.685 340.404C194.844 337.886 192.018 327.523 186.655 316.907C193.92 310.511 200.315 303.029 205.587 294.622C215.171 298.083 225.661 300.746 229.701 297.72C237.872 291.615 243.072 264.331 241.586 260.272C240.662 257.718 231.676 252.573 220.715 248.859C221.549 238.713 220.824 228.658 218.686 218.983C227.546 214.744 236.169 209.436 236.858 204.635C238.325 194.525 222.69 171.571 218.777 169.759C216.44 168.672 207.309 171.046 197.507 175.684C190.876 167.694 182.995 160.683 174.009 154.958C176.944 146.243 178.829 137.366 176.111 133.724C170.006 125.554 142.721 120.372 138.663 121.84C136.38 122.673 131.978 130.01 128.409 139.449C117.357 138.453 106.396 139.304 95.9065 141.805C91.9389 134.069 87.2828 127.166 83.0071 126.55C72.8978 125.082 49.9434 140.718 48.1317 144.631C47.1352 146.787 49.0918 154.758 53.0595 163.708C44.7981 170.81 37.6418 179.307 31.953 188.963C23.6916 186.3 15.5752 184.742 12.1329 187.333C3.96208 193.438 -1.21941 220.723 0.248072 224.781C1.08146 227.082 8.45514 231.502 17.9304 235.053C17.3144 245.96 18.5102 256.721 21.2821 266.976C13.1113 271.052 5.61077 275.944 4.97667 280.419C3.50918 290.528 19.1442 313.482 23.0575 315.294C25.4127 316.381 34.6163 313.972 44.472 309.297C51.3202 316.78 59.328 323.302 68.3503 328.538C65.1255 337.741 62.8427 347.452 65.7234 351.311C71.8288 359.518 99.1132 364.7 103.171 363.214ZM76.0864 226.955C83.6774 203.022 109.223 189.779 133.137 197.37C157.07 204.961 170.314 230.506 162.722 254.421C155.131 278.353 129.586 291.597 105.672 284.006C81.7571 276.433 68.5134 250.888 76.0864 226.955Z" fill="#63C1C5"/>
<path d="M58.6009 221.792C69.3806 187.804 105.814 168.908 139.802 179.688C173.79 190.467 192.686 226.901 181.906 260.888C171.126 294.876 134.693 313.772 100.705 302.993C66.7173 292.231 47.8212 255.798 58.6009 221.792ZM181.036 260.617C191.671 227.1 173.047 191.192 139.53 180.575C106.013 169.941 70.1053 188.565 59.4886 222.082C48.8539 255.598 67.4783 291.506 100.995 302.123C134.512 312.758 170.42 294.133 181.036 260.617Z" fill="white"/>
<path d="M110.364 334.498C110.546 334.1 110.727 333.719 110.908 333.339C104.313 332.759 97.6642 331.473 91.0877 329.371C42.3527 313.917 15.2676 261.686 30.7215 212.951C40.849 181.028 66.7203 158.418 97.0665 150.936C97.0665 150.936 97.0665 150.936 97.0665 150.918C97.1027 150.501 97.157 150.066 97.2295 149.649C66.3035 157.114 39.8707 180.104 29.5621 212.588C13.9089 261.957 41.3382 314.859 90.7073 330.513C97.2476 332.596 103.806 333.882 110.364 334.498Z" fill="white"/>
<path d="M206.133 209.092C212.981 227.716 213.96 248.659 207.51 269.005C207.383 269.403 207.238 269.784 207.112 270.183C207.546 270.164 207.963 270.164 208.398 270.164C208.488 269.893 208.579 269.639 208.67 269.367C215.174 248.841 214.213 227.716 207.347 208.91C206.949 208.983 206.532 209.037 206.133 209.092Z" fill="white"/>
<path d="M140.603 139.293L149.335 155.725L139.715 155.254L139.045 138.767L140.603 139.293Z" fill="#F8B68F"/>
<path d="M126.904 132.01L134.966 131.992L138.299 184.078H123.86L126.904 132.01Z" fill="white"/>
<path d="M112.122 284.918C112.122 284.918 110.129 286.476 110.491 288.487C110.853 290.48 111.379 295.154 111.379 295.154H113.426L113.372 290.788C113.372 290.498 117.756 295.154 118.499 295.154H129.333C129.333 295.154 130.058 292.219 123.699 291.277C117.321 290.317 112.122 284.918 112.122 284.918Z" fill="#043C5E"/>
<path d="M116.815 282.925L118.283 286.748C118.645 287.799 119.352 288.687 120.276 289.284C121.309 289.955 122.921 290.861 125.331 291.585C122.377 294.103 117.703 291.477 115.022 289.61C113.717 288.705 112.793 287.364 112.395 285.806L111.779 282.907H116.815V282.925Z" fill="#F8B68F"/>
<path d="M132.756 284.918C132.756 284.918 130.764 286.476 131.126 288.487C131.488 290.48 132.014 295.154 132.014 295.154H134.061L134.007 290.788C134.007 290.498 138.391 295.154 139.134 295.154H149.968C149.968 295.154 150.692 292.219 144.333 291.277C137.956 290.317 132.756 284.918 132.756 284.918Z" fill="#043C5E"/>
<path d="M137.45 282.925L138.918 286.748C139.28 287.799 139.987 288.687 140.911 289.284C141.943 289.955 143.556 290.861 145.965 291.585C143.012 294.103 138.338 291.477 135.657 289.61C134.352 288.705 133.428 287.364 133.03 285.806L132.414 282.907H137.45V282.925Z" fill="#F8B68F"/>
<path d="M120.725 184.078C120.725 184.078 119.367 191.869 127.157 230.132C120.852 250.079 130.943 283.433 130.943 283.433H138.299L143.299 184.078H120.725Z" fill="#01898C"/>
<path d="M134.079 132.01L136.688 195.202L145.348 191.488C145.348 191.488 141.453 179.621 141.815 163.153C140.493 151.232 147.25 157.519 138.971 134.564C135.891 131.992 134.079 132.01 134.079 132.01Z" fill="#FFDB71"/>
<path d="M135.218 125.487L134.204 130.814C133.751 133.151 131.088 134.329 129.077 133.06L125.526 130.832L131.867 116.483L135.218 125.487Z" fill="#F4A086"/>
<path d="M113.642 184.078C113.642 184.078 104.004 191.869 111.794 230.132C105.489 250.079 111.051 283.433 111.051 283.433H117.664L136.234 184.078H113.642Z" fill="#63C1C5"/>
<path d="M126.907 126.647C126.907 126.647 118.772 131.212 116.236 135.307C113.826 139.202 112.993 148.061 112.757 155.942C112.431 166.776 107.213 195.202 107.213 195.202H129.026L129.57 133.296L126.907 126.647Z" fill="#FFDB71"/>
<path d="M142.956 109.508C138.028 108.258 133.282 113.313 133.282 113.313L129.568 133.296L123.861 124.491C123.861 124.491 123.535 112.534 129.061 104.617C133.01 99.8155 140.601 101.192 144.424 105.867C146.29 108.131 146.67 111.266 146.489 114.146C146.254 118.005 145.149 140.217 145.149 140.217L133.843 131.847C133.843 131.847 134.115 129.582 135.202 125.488C137.068 118.422 146.272 110.342 142.956 109.508Z" fill="#212B53"/>
<path d="M131.813 113.005C132.537 112.715 133.479 113.204 133.914 114.11C134.349 115.016 134.113 115.976 133.389 116.284C132.664 116.574 131.722 116.085 131.287 115.179C130.834 114.273 131.07 113.295 131.813 113.005Z" fill="#F8B68F"/>
<path d="M137.105 126.411C138.029 126.756 138.917 126.937 139.514 126.72C143.808 123.603 145.348 111.193 145.348 111.193L141.942 107.588L135.184 109.073L131.851 116.465C130.963 118.44 131.072 120.723 132.123 122.607C133.391 124.328 135.112 125.687 137.105 126.411Z" fill="#F8B68F"/>
<path d="M144.098 109.236C143.753 112.987 133.282 113.295 133.282 113.295L132.738 108.204L138.826 104.852L143.645 107.751C143.663 107.769 144.152 108.621 144.098 109.236Z" fill="#212B53"/>
<path d="M143.863 109.979C143.518 111.374 144.932 113.82 144.932 113.82L145.765 112.316L145.747 111.012L144.932 109.997C144.932 109.979 144.207 108.566 143.863 109.979Z" fill="#212B53"/>
<path d="M118.461 135.307C107.899 136.539 112.899 163.769 115.164 174.947C115.726 177.701 118.534 179.386 121.215 178.534C130.4 175.636 143.807 163.606 143.807 163.606L141.687 160.925L123.86 165.091C123.86 165.091 130.708 133.876 118.461 135.307Z" fill="#F8B68F"/>
<path d="M139.587 154.547L136.145 175.871C136.036 176.487 136.525 177.049 137.141 177.049H150.784C151.291 177.049 151.708 176.686 151.78 176.197L155.168 154.873C155.259 154.257 154.788 153.696 154.172 153.696H140.584C140.095 153.678 139.66 154.04 139.587 154.547Z" fill="white"/>
<path d="M154.733 163.986C154.823 163.244 154.751 162.773 154.497 161.214C154.171 159.203 154.262 156.033 152.196 157.609C150.258 160.055 150.022 162.646 150.022 162.646C149.624 164.077 150.511 166.07 151.327 167.157L152.74 170.237C152.722 170.237 155.168 167.392 154.733 163.986Z" fill="#F8B68F"/>
<path d="M145.8 161.975C145.8 162.555 146.271 163.008 146.833 163.008C147.413 163.008 147.866 162.537 147.866 161.975C147.866 161.396 147.395 160.943 146.833 160.943C146.271 160.925 145.8 161.396 145.8 161.975Z" fill="url(#paint1_linear)"/>
<path d="M262.222 123.176L262.892 131.782L271.335 132.144L267.929 118.81L262.222 123.176Z" fill="#F4A086"/>
<path d="M258.616 124.752C257.547 124.716 256.551 124.571 256.025 124.136C252.946 119.643 256.46 107.541 256.46 107.541L261.388 105.457L267.657 109.371L268.019 117.487C268.11 119.661 267.077 121.727 265.211 123.085C263.236 124.209 260.935 124.825 258.616 124.752Z" fill="#F8B68F"/>
<path d="M266.68 113.973C266.336 112.614 266.517 109.461 265.122 109.697C264.107 109.86 260.647 110.005 259.469 110.005C256.679 110.005 251.734 108.918 251.734 104.678C251.734 102.559 253.781 100.729 255.085 100.203C256.353 99.6781 257.803 99.6962 259.107 100.149C262.169 101.218 266.227 103.591 267.858 103.265C270.575 102.722 273.311 104.316 273.257 106.635C273.22 109.117 271.916 112.831 270.702 115.186C269.996 116.563 269.053 117.777 267.93 118.828L266.68 113.973Z" fill="#212B53"/>
<path d="M269.506 114.28C268.89 113.737 267.73 113.846 266.915 114.516C266.1 115.186 265.955 116.183 266.571 116.726C267.187 117.27 268.346 117.161 269.162 116.491C269.959 115.82 270.122 114.824 269.506 114.28Z" fill="#F8B68F"/>
<path d="M238.486 129.843C238.359 129.445 237.761 128.104 235.406 126.292C233.286 124.662 227.887 122.542 230.243 120.93C233.141 121.165 236.547 121.093 236.547 121.093C238.287 121.401 240.316 123.556 241.33 125.151L243.849 130.405C243.849 130.405 242.689 132.977 242.653 133.122L241.439 132.887C240.624 131.691 239.609 130.695 238.486 129.843Z" fill="#F8B68F"/>
<path d="M238.36 128.357C238.36 128.357 238.36 128.194 238.287 127.923C238.668 127.995 239.03 128.049 239.411 128.086C240.606 128.81 241.82 129.499 243.016 130.224C242.509 130.858 241.784 131.727 241.748 131.8L232.961 128.684C232.961 128.684 232.87 127.488 234.809 127.524C236.765 127.578 238.36 128.357 238.36 128.357Z" fill="#F8B68F"/>
<path d="M251.731 147.67L238.198 135.079L242.872 128.086L261.388 136.836L253.325 151.022L251.731 147.67Z" fill="url(#paint2_linear)"/>
<path d="M266.786 126.654C286.099 122.651 282.729 186.604 282.729 186.604H252.184C252.184 186.604 251.749 175.462 250.626 161.349C249.665 149.373 256.387 135.858 266.786 126.654Z" fill="url(#paint3_linear)"/>
<path d="M256.714 292.408C256.714 292.408 253.706 295.198 246.84 296.955C245.336 297.336 243.706 296.829 243.706 299.311C246.912 299.311 252.039 299.311 252.039 299.311L258.96 298.115V299.311H262.692C262.692 299.311 263.725 293.187 261.551 292.408C259.54 292.408 256.714 292.408 256.714 292.408Z" fill="#212B53"/>
<path d="M257.13 288.006L256.713 292.408C258.072 293.35 259.865 293.423 261.297 292.553L261.55 292.408L262.329 288.006H257.13Z" fill="#F8B68F"/>
<path d="M213.413 146.692C212.997 146.656 211.566 146.366 209.247 144.482C207.181 142.779 203.92 137.996 202.869 140.641C203.739 143.413 204.427 146.764 204.427 146.764C205.116 148.395 207.67 149.881 209.446 150.515L215.135 151.801C215.135 151.801 217.381 150.098 217.508 150.026L217.019 148.902C215.696 148.359 214.482 147.598 213.413 146.692Z" fill="#F8B68F"/>
<path d="M211.928 146.891C211.928 146.891 211.783 146.927 211.494 146.909C211.657 147.253 211.783 147.616 211.91 147.96C212.889 148.956 213.831 149.989 214.791 151.004C215.298 150.37 215.987 149.482 216.059 149.428L211.059 141.565C211.059 141.565 209.863 141.746 210.334 143.63C210.805 145.532 211.928 146.891 211.928 146.891Z" fill="#F8B68F"/>
<path d="M286.117 286.266C286.117 286.266 283.109 289.056 276.243 290.814C274.739 291.194 273.109 290.687 273.109 293.169C276.315 293.169 281.442 293.169 281.442 293.169L288.363 291.973V293.169H292.095C292.095 293.169 293.128 287.045 290.954 286.266C288.925 286.266 286.117 286.266 286.117 286.266Z" fill="#212B53"/>
<path d="M286.533 281.864L286.116 286.266C287.475 287.208 289.269 287.281 290.7 286.411L290.953 286.266L291.732 281.864H286.533Z" fill="#F8B68F"/>
<path d="M282.73 186.604C282.73 186.604 280.284 199.558 282.476 226.371C282.857 231.1 283.944 235.756 285.665 240.194C291.553 255.268 292.35 283.114 292.35 283.114H285.611L261.877 215.265L282.73 186.604Z" fill="#212B53"/>
<path d="M271.336 147.761C271.336 147.761 266.064 167.436 251.734 169.248C237.421 171.06 213.851 152.942 213.851 152.942L216.441 147.761L241.298 154.718C245.085 155.787 249.107 154.084 250.973 150.623L258.455 136.836L271.336 147.761Z" fill="url(#paint4_linear)"/>
<path d="M252.167 186.604L256.606 289.183H262.621C262.621 289.183 269.378 265.269 268.871 246.409C268.708 240.43 269.723 234.488 271.951 228.944C281.136 206.116 282.713 186.604 282.713 186.604H252.167Z" fill="#043C5E"/>
<path d="M199.609 136.836L221.222 153.105L245.952 133.793L225.77 118.81L199.609 136.836Z" fill="#FFDB71"/>
<path d="M228.344 157.182C228.417 155.098 228.888 153.196 229.649 151.475L216.441 147.779L213.851 152.96C213.851 152.96 220.536 158.106 228.942 162.635C228.489 160.823 228.272 158.975 228.344 157.182Z" fill="url(#paint5_linear)"/>
<path d="M270.953 147.67C270.899 147.87 265.572 167.11 251.676 168.885C238.723 170.534 217.725 155.37 214.518 152.979C214.355 153.178 214.192 153.377 214.011 153.576C217.109 155.914 236.168 169.791 249.593 169.791C250.336 169.791 251.06 169.755 251.767 169.664C266.188 167.835 271.641 148.087 271.696 147.888L270.953 147.67Z" fill="#63C1C5"/>
<path d="M209.718 150.569L214.375 151.62C214.827 150.497 215.389 149.446 216.078 148.468C215.117 147.978 214.23 147.381 213.414 146.692C212.998 146.656 211.566 146.366 209.266 144.482C209.664 146.185 209.845 147.924 209.791 149.609C209.773 149.935 209.755 150.261 209.718 150.569Z" fill="#F8B68F"/>
<path d="M215.753 148.957L211.061 141.565C211.061 141.565 209.865 141.746 210.336 143.63C210.807 145.514 211.931 146.891 211.931 146.891C211.931 146.891 211.786 146.928 211.496 146.909C211.659 147.254 211.786 147.616 211.913 147.96C212.855 148.92 213.761 149.917 214.684 150.877C214.992 150.225 215.355 149.573 215.753 148.957Z" fill="#F8B68F"/>
<path d="M236.986 125.604C236.932 125.604 236.877 125.604 236.823 125.622C238.145 126.872 238.544 127.778 238.653 128.104C239.196 128.521 239.722 128.973 240.193 129.444C240.247 128.955 240.338 128.502 240.428 128.031C239.196 127.397 238.037 126.564 236.986 125.604Z" fill="#F8B68F"/>
<path d="M237.837 126.328C237.184 126.093 236.152 125.803 234.992 125.785C233.036 125.749 233.144 126.944 233.144 126.944L240.21 129.444C240.264 128.955 240.355 128.484 240.445 128.031C239.521 127.56 238.652 126.98 237.837 126.328Z" fill="#F8B68F"/>
<path d="M262.222 131.238V126.999L269.269 124.064L271.842 127.325L262.222 131.238Z" fill="white"/>
<path d="M358.75 467.242C341.738 460.92 45.3784 467.242 45.3784 467.242C30.16 467.242 16.1918 484.254 16.1918 499.473C16.1918 514.691 30.16 531.703 45.3784 531.703C45.3784 531.703 335.144 543.878 358.895 532.047C354.837 506.194 355.435 482.769 358.75 467.242Z" fill="#F8F8F8"/>
<path d="M356.99 473.149H22.6569V474.67H356.99V473.149Z" fill="#63C1C5"/>
<path d="M356.466 482.769H17.1139V484.291H356.103C356.212 483.765 356.339 483.276 356.466 482.769Z" fill="#63C1C5"/>
<path d="M355.726 496.465H12.86V497.987H355.726V496.465Z" fill="#63C1C5"/>
<path d="M355.726 503.313H12.86V504.835H355.726V503.313Z" fill="#63C1C5"/>
<path d="M356.683 514.329H16.1178V515.851H356.919C356.81 515.343 356.738 514.836 356.683 514.329Z" fill="#63C1C5"/>
<path d="M358.351 527.645H25.0865C25.4308 528.134 25.7388 528.641 26.0468 529.167H358.677C358.532 528.659 358.441 528.152 358.351 527.645Z" fill="#63C1C5"/>
<path d="M45.3785 531.703C30.1601 531.703 16.1919 514.691 16.1919 499.473C16.1919 484.254 30.1601 467.242 45.3785 467.242C45.3785 467.242 340.561 460.938 358.642 467.206C359.403 463.239 360 460.92 360 460.92H47.1359C25.9388 460.92 8.58264 478.276 8.58264 499.473C8.58264 520.67 25.9388 538.026 47.1359 538.026C47.1359 538.026 344.782 544.892 359.982 538.026C359.982 537.446 359.493 535.308 358.841 532.065C334.818 543.86 45.3785 531.703 45.3785 531.703Z" fill="#63C1C5"/>
<path d="M317.462 462.115H51.1946C39.7808 462.115 30.4506 452.785 30.4506 441.371V395.1C30.4506 383.686 39.7808 374.356 51.1946 374.356H317.462C328.876 374.356 338.206 383.686 338.206 395.1V441.371C338.224 452.785 328.876 462.115 317.462 462.115Z" fill="#043C5E"/>
<path d="M75.8319 374.356C58.9648 418.236 77.6979 462.115 77.6979 462.115H116.306C116.306 462.115 102.192 411.967 118.606 374.356C99.6015 374.356 88.3689 374.356 75.8319 374.356Z" fill="#F7A605"/>
<path d="M254.797 374.356C237.93 418.236 256.663 462.115 256.663 462.115H295.27C295.27 462.115 281.157 411.967 297.571 374.356C278.566 374.356 267.334 374.356 254.797 374.356Z" fill="#F7A605"/>
<path d="M326.212 370.968C326.212 370.968 313.349 353.666 313.349 334.969C313.349 316.254 325.505 301.199 325.505 301.199V299.858H155.748C135.113 299.858 118.228 314.914 118.228 333.339V339.245C118.228 357.652 135.113 372.725 155.748 372.725H325.505L326.212 372.272V370.968Z" fill="white"/>
<path d="M321.275 307.612H165.025V309.134H320.429C320.715 308.604 320.998 308.096 321.275 307.612Z" fill="#63C1C5"/>
<path d="M316.738 317.251H159.481V318.773H316.194C316.37 318.257 316.552 317.75 316.738 317.251Z" fill="#63C1C5"/>
<path d="M313.535 330.929H155.224V332.451H313.422C313.452 331.94 313.489 331.433 313.535 330.929Z" fill="#63C1C5"/>
<path d="M313.444 337.777H155.224V339.299H313.571C313.521 338.794 313.478 338.286 313.444 337.777Z" fill="#63C1C5"/>
<path d="M314.405 344.625H166.891V346.147H314.748C314.627 345.644 314.513 345.136 314.405 344.625Z" fill="#63C1C5"/>
<path d="M317.292 354.246H161.347V355.768H317.898C317.693 355.269 317.49 354.761 317.292 354.246Z" fill="#63C1C5"/>
<path d="M321.667 363.648H157.09V365.17H322.519C322.243 364.688 321.958 364.18 321.667 363.648Z" fill="#63C1C5"/>
<path d="M254.125 300.601H327.3V294.822H199.701V300.601H220.645C218.452 318.356 213.343 337.27 207.655 353.92C207.383 355.858 207.039 357.797 206.839 359.754C206.713 360.931 206.64 362.109 206.586 363.286C209.484 365.515 212.021 368.015 214.195 370.733H199.683V376.512H327.282V370.733H252.042C241.95 370.733 232.602 365.062 228.181 355.895C224.612 348.503 222.764 340.26 223.072 332.397C223.254 327.759 224.177 323.465 225.717 319.534C230.283 307.902 241.769 300.601 254.125 300.601Z" fill="#F18813"/>
<path d="M216.858 338.973V332.343C216.858 311.707 233.743 294.822 254.378 294.822H74.2395C53.6041 294.822 36.719 311.707 36.719 332.343V338.973C36.719 359.609 53.6041 376.494 74.2395 376.494H254.378C233.743 376.494 216.858 359.609 216.858 338.973Z" fill="#FFD247"/>
<path d="M89.4388 294.804H81.3948V376.494H89.4388V294.804Z" fill="white"/>
<path d="M99.7136 294.804H95.6917V376.494H99.7136V294.804Z" fill="white"/>
<path d="M321.875 548.19L236.505 282.792H241.354L326.725 548.19H321.875Z" fill="#01898C"/>
<path d="M277.734 548.19L192.363 282.792H197.213L282.584 548.19H277.734Z" fill="#01898C"/>
<path d="M263.471 351.706V355.665L217.741 355.633L216.962 351.69L263.471 351.706Z" fill="#01898C"/>
<path d="M254.025 325.994V329.953L208.279 329.922L207.5 325.962L254.025 325.994Z" fill="#01898C"/>
<path d="M246.205 300.283V304.226L200.459 304.21L199.68 300.251L246.205 300.283Z" fill="#01898C"/>
<path d="M271.802 377.751V381.71L226.072 381.678L225.293 377.735L271.802 377.751Z" fill="#01898C"/>
<path d="M279.626 403.796V407.756L233.896 407.724L233.101 403.78L279.626 403.796Z" fill="#01898C"/>
<path d="M287.719 430.859L289.564 434.819L243.818 434.787L243.038 430.827L287.719 430.859Z" fill="#01898C"/>
<path d="M296.29 457.922L298.134 461.882L252.404 461.85L251.625 457.891L296.29 457.922Z" fill="#01898C"/>
<path d="M304.32 484.381L306.165 488.34L260.434 488.308L259.655 484.349L304.32 484.381Z" fill="#01898C"/>
<path d="M310.982 511.412L312.826 515.371L267.08 515.339L266.301 511.38L310.982 511.412Z" fill="#01898C"/>
<defs>
<linearGradient id="paint0_linear" x1="359.005" y1="299.468" x2="123.514" y2="299.468" gradientUnits="userSpaceOnUse">
<stop stop-color="#E0F0EB"/>
<stop offset="1" stop-color="#C0E4EF"/>
</linearGradient>
<linearGradient id="paint1_linear" x1="145.797" y1="161.972" x2="147.879" y2="161.972" gradientUnits="userSpaceOnUse">
<stop stop-color="#E0F0EB"/>
<stop offset="1" stop-color="#C0E4EF"/>
</linearGradient>
<linearGradient id="paint2_linear" x1="238.19" y1="139.551" x2="261.393" y2="139.551" gradientUnits="userSpaceOnUse">
<stop stop-color="#E0F0EB"/>
<stop offset="1" stop-color="#C0E4EF"/>
</linearGradient>
<linearGradient id="paint3_linear" x1="250.529" y1="156.54" x2="282.951" y2="156.54" gradientUnits="userSpaceOnUse">
<stop stop-color="#E0F0EB"/>
<stop offset="1" stop-color="#C0E4EF"/>
</linearGradient>
<linearGradient id="paint4_linear" x1="226.881" y1="163.846" x2="298.087" y2="119.828" gradientUnits="userSpaceOnUse">
<stop stop-color="#E0F0EB"/>
<stop offset="1" stop-color="#C0E4EF"/>
</linearGradient>
<linearGradient id="paint5_linear" x1="221.854" y1="155.714" x2="293.061" y2="111.695" gradientUnits="userSpaceOnUse">
<stop stop-color="#E0F0EB"/>
<stop offset="1" stop-color="#C0E4EF"/>
</linearGradient>
</defs>
</svg>
