<svg width="116" height="116" viewBox="0 0 116 116" fill="none" xmlns="http://www.w3.org/2000/svg">
<path d="M58 0L59.8131 5.24842C59.9481 5.639 60.3093 5.90636 60.7223 5.92125L66 6.11146L61.7973 9.55933C61.4924 9.80953 61.363 10.2156 61.467 10.5961L62.9443 16L58.579 12.8998C58.2323 12.6535 57.7677 12.6535 57.421 12.8998L53.0557 16L54.533 10.5961C54.637 10.2156 54.5076 9.80953 54.2027 9.55933L50 6.11146L55.2777 5.92125C55.6907 5.90636 56.0519 5.63901 56.1869 5.24842L58 0Z" fill="#FF9C00"/>
<path d="M58 116L56.1869 110.752C56.0519 110.361 55.6907 110.094 55.2777 110.079L50 109.889L54.2027 106.441C54.5076 106.19 54.637 105.784 54.533 105.404L53.0557 100L57.421 103.1C57.7677 103.346 58.2323 103.346 58.579 103.1L62.9443 100L61.467 105.404C61.363 105.784 61.4924 106.19 61.7973 106.441L66 109.889L60.7223 110.079C60.3093 110.094 59.9481 110.361 59.8131 110.752L58 116Z" fill="#FF9C00"/>
<path d="M5.24842 56.1869L0 58L5.24842 59.8131C5.63901 59.9481 5.90636 60.3093 5.92125 60.7223L6.11146 66L9.55933 61.7973C9.80953 61.4924 10.2156 61.363 10.5961 61.467L16 62.9443L12.8998 58.579C12.6535 58.2323 12.6535 57.7677 12.8998 57.421L16 53.0557L10.5961 54.533C10.2156 54.637 9.80953 54.5076 9.55933 54.2027L6.11146 50L5.92125 55.2777C5.90636 55.6907 5.63901 56.0519 5.24842 56.1869Z" fill="#FF9C00"/>
<path d="M116 58L110.752 59.8131C110.361 59.9481 110.094 60.3093 110.079 60.7223L109.889 66L106.441 61.7973C106.19 61.4924 105.784 61.363 105.404 61.467L100 62.9443L103.1 58.579C103.346 58.2323 103.346 57.7677 103.1 57.421L100 53.0557L105.404 54.533C105.784 54.637 106.19 54.5076 106.441 54.2027L109.889 50L110.079 55.2777C110.094 55.6907 110.361 56.0519 110.752 56.1869L116 58Z" fill="#FF9C00"/>
<path d="M33.1945 11.4082L29 7.76953L30.054 13.2214C30.1324 13.6271 29.9533 14.0393 29.6031 14.2586L25.1275 17.0622L30.4911 17.9468C30.8803 18.011 31.1954 18.298 31.2956 18.6796L32.7182 24.0981L34.9485 19.2306C35.1256 18.8439 35.5279 18.6117 35.9514 18.6515L41.2819 19.1538L37.3006 15.2126C37.0203 14.935 36.9293 14.5186 37.0683 14.1495L38.984 9.06221L34.3182 11.5363C33.9532 11.7299 33.5066 11.679 33.1945 11.4082Z" fill="#FF9C00"/>
<path d="M108.229 28.999L104.591 33.1934C104.32 33.5056 104.269 33.9521 104.463 34.3172L106.937 38.9829L101.85 37.0673C101.48 36.9282 101.064 37.0192 100.786 37.2996L96.8452 41.2809L97.3475 35.9504C97.3874 35.5269 97.1551 35.1246 96.7684 34.9474L91.9009 32.7171L97.3195 31.2946C97.701 31.1944 97.988 30.8793 98.0522 30.4901L98.9368 25.1265L101.74 29.602C101.96 29.9522 102.372 30.1314 102.778 30.053L108.229 28.999Z" fill="#FF9C00"/>
<path d="M7.77054 86.999L11.4092 82.8046C11.68 82.4924 11.7309 82.0459 11.5373 81.6808L9.06322 77.0151L14.1505 78.9307C14.5197 79.0698 14.9361 78.9788 15.2136 78.6984L19.1548 74.7171L18.6526 80.0477C18.6127 80.4711 18.8449 80.8734 19.2316 81.0506L24.0991 83.2809L18.6806 84.7034C18.299 84.8036 18.012 85.1187 17.9478 85.5079L17.0632 90.8715L14.2596 86.396C14.0403 86.0458 13.6281 85.8666 13.2224 85.945L7.77054 86.999Z" fill="#FF9C00"/>
<path d="M87 108.228L82.8056 104.59C82.4934 104.319 82.0469 104.268 81.6818 104.462L77.0161 106.936L78.9318 101.849C79.0708 101.479 78.9798 101.063 78.6994 100.785L74.7181 96.8442L80.0487 97.3465C80.4721 97.3864 80.8744 97.1541 81.0516 96.7674L83.2819 91.8999L84.7045 97.3185C84.8046 97.7 85.1197 97.987 85.5089 98.0512L90.8725 98.9358L86.397 101.739C86.0468 101.959 85.8676 102.371 85.946 102.777L87 108.228Z" fill="#FF9C00"/>
<path d="M85.946 13.2214L87 7.76953L82.8055 11.4082C82.4934 11.679 82.0469 11.7299 81.6818 11.5363L77.0161 9.06221L78.9317 14.1495C79.0707 14.5187 78.9797 14.935 78.6994 15.2126L74.7181 19.1538L80.0486 18.6516C80.4721 18.6117 80.8744 18.8439 81.0515 19.2306L83.2818 24.0981L84.7044 18.6796C84.8046 18.298 85.1197 18.011 85.5089 17.9468L90.8725 17.0622L86.3969 14.2586C86.0467 14.0393 85.8676 13.6271 85.946 13.2214Z" fill="#FF9C00"/>
<path d="M30.054 102.777L29 108.228L33.1944 104.59C33.5066 104.319 33.9531 104.268 34.3182 104.462L38.9839 106.936L37.0682 101.849C36.9292 101.479 37.0202 101.063 37.3006 100.785L41.2818 96.8442L35.9513 97.3465C35.5279 97.3864 35.1256 97.1541 34.9484 96.7674L32.7181 91.8999L31.2955 97.3184C31.1954 97.7 30.8803 97.987 30.4911 98.0512L25.1275 98.9358L29.603 101.739C29.9532 101.959 30.1324 102.371 30.054 102.777Z" fill="#FF9C00"/>
<path d="M7.77051 28.999L13.2223 30.053C13.6281 30.1314 14.0402 29.9522 14.2596 29.602L17.0632 25.1265L17.9478 30.4901C18.012 30.8793 18.299 31.1944 18.6805 31.2946L24.0991 32.7171L19.2316 34.9474C18.8449 35.1246 18.6126 35.5269 18.6525 35.9503L19.1548 41.2809L15.2135 37.2996C14.936 37.0192 14.5196 36.9282 14.1505 37.0673L9.06319 38.9829L11.5373 34.3172C11.7309 33.9521 11.68 33.5056 11.4092 33.1934L7.77051 28.999Z" fill="#FF9C00"/>
<path d="M102.778 85.945L108.229 86.999L104.591 82.8046C104.32 82.4924 104.269 82.0459 104.463 81.6808L106.937 77.0151L101.849 78.9307C101.48 79.0698 101.064 78.9788 100.786 78.6984L96.8452 74.7171L97.3474 80.0477C97.3873 80.4711 97.155 80.8734 96.7684 81.0506L91.9009 83.2809L97.3194 84.7034C97.701 84.8036 97.988 85.1187 98.0522 85.5079L98.9368 90.8715L101.74 86.396C101.96 86.0458 102.372 85.8666 102.778 85.945Z" fill="#FF9C00"/>
</svg>
