<svg width="192" height="58" viewBox="0 0 192 58" fill="none" xmlns="http://www.w3.org/2000/svg">
<path fill-rule="evenodd" clip-rule="evenodd" d="M18.8561 16.173C19.414 16.173 19.9742 16.1568 20.5332 16.1765C22.0879 16.2299 23.6438 16.3528 25.1973 16.3482C26.9622 16.3435 28.7283 16.2287 30.4932 16.1707C30.626 16.1661 30.8513 16.0327 30.8663 16.3807C30.5094 16.4363 30.1548 16.4874 29.8002 16.55C29.5391 16.5953 29.2769 16.6475 29.0205 16.7171C27.6402 17.0825 26.9876 17.869 26.9137 19.3028C26.8583 20.3584 26.8305 21.414 26.8236 22.4685C26.8005 25.3987 26.7901 28.3277 26.7867 31.258C26.7855 33.1581 26.7994 35.0594 26.8248 36.9618C26.8305 37.3655 26.8837 37.7773 26.9715 38.1705C27.236 39.3526 28.0249 39.9987 29.173 40.2145C29.5957 40.2934 30.037 40.2922 30.4701 40.2876C31.3526 40.2771 32.2362 40.2644 33.1175 40.2099C33.8983 40.1635 34.6826 40.0892 35.4553 39.9709C36.5607 39.8027 37.4085 39.2006 37.9699 38.2378C38.3083 37.6566 38.5682 37.0314 38.8593 36.4224C38.9378 36.2611 38.9967 36.0871 39.066 35.9131C39.2959 35.9247 39.3698 36.0083 39.3201 36.2356C39.0914 37.2936 38.8766 38.3573 38.656 39.4164C38.5855 39.7621 38.5127 40.1043 38.4388 40.4488C38.4123 40.5729 38.3857 40.6982 38.3487 40.8165C38.1015 41.5868 37.7712 41.8536 36.958 41.8408C35.3179 41.813 33.6765 41.7782 32.0387 41.7063C29.0944 41.5764 26.1525 41.5694 23.2095 41.7074C21.8095 41.7747 20.4061 41.7968 19.0051 41.8374C18.9092 41.8408 18.8122 41.8374 18.7198 41.8374C18.5985 41.5926 18.7498 41.552 18.9092 41.523C19.31 41.4546 19.7131 41.3989 20.1105 41.3212C20.4142 41.262 20.7157 41.1959 21.0091 41.1031C22.2704 40.6959 22.8676 39.9268 22.9496 38.5951C22.9808 38.0754 22.9946 37.5534 22.9958 37.0314C22.9992 32.0746 23.0039 27.1167 22.9923 22.1576C22.99 21.131 22.9507 20.1032 22.8745 19.0789C22.7925 17.9711 22.1895 17.2159 21.1373 16.8737C20.5933 16.6973 20.0238 16.6011 19.4648 16.4735C19.3008 16.4363 19.131 16.4259 18.9681 16.383C18.9092 16.3679 18.8665 16.2925 18.8156 16.2438C18.8283 16.2217 18.8422 16.1974 18.8561 16.173ZM24.6279 40.7667C24.6279 32.8913 24.6279 25.0565 24.6279 17.2089C24.2328 17.2089 23.8644 17.2089 23.4936 17.2089C23.4936 25.0762 23.4936 32.9098 23.4936 40.7667C23.8782 40.7667 24.2351 40.7667 24.6279 40.7667Z" fill="#333333"/>
<path d="M28.5275 6.59896L29.0818 6.22004C29.6444 6.57117 30.1983 6.91712 30.7727 7.27588L31.6471 7.82204C31.6329 7.76105 31.6217 7.71162 31.6124 7.66995C31.5936 7.58664 31.5817 7.53392 31.5663 7.48215C31.522 7.32887 31.478 7.1755 31.4339 7.02212C31.2606 6.41866 31.0872 5.81506 30.9021 5.21662C30.8282 4.97882 30.8721 4.83265 31.0661 4.67605C31.4494 4.36764 31.8237 4.04963 32.1978 3.73169L32.1986 3.73104C32.3913 3.56727 32.584 3.40351 32.7779 3.2411C32.8407 3.18959 32.9091 3.14571 32.9777 3.10172C33.0125 3.07934 33.0474 3.05693 33.0817 3.03346C33.0598 3.00214 33.0378 2.97198 33.0147 2.94066C32.9729 2.9371 32.9311 2.933 32.8891 2.92889C32.7941 2.91959 32.6985 2.91024 32.6024 2.90702L32.1139 2.89319L32.108 2.89303C31.5447 2.87675 30.9808 2.86047 30.417 2.85598C30.186 2.85482 30.0543 2.78174 29.9839 2.55553C29.938 2.40692 29.8765 2.26281 29.8149 2.1185C29.788 2.05554 29.7611 1.99254 29.7355 1.92912C29.4872 1.31779 29.24 0.707616 28.9535 0C28.8048 0.413042 28.6619 0.811153 28.5216 1.20171C28.3188 1.76653 28.1217 2.31555 27.9209 2.87106L26.4926 2.97859C25.9818 3.01723 25.4611 3.05663 24.9155 3.09726C24.9688 3.14523 25.0084 3.18198 25.04 3.21141C25.0873 3.2553 25.117 3.28292 25.1488 3.30723L25.3189 3.4395L25.6143 3.66987C26.0902 4.04133 26.5665 4.41302 27.05 4.77349C27.2395 4.9127 27.2868 5.05538 27.2244 5.27463C27.1391 5.57185 27.0666 5.87266 26.9941 6.17368L26.9933 6.17681C26.9738 6.25773 26.9543 6.33868 26.9345 6.41957C26.8354 6.82162 26.7388 7.22283 26.627 7.68721L26.5661 7.94036C27.2561 7.46819 27.8949 7.03145 28.5275 6.59896Z" fill="#FF9C00"/>
<path d="M53.5803 40.4389C52.9636 40.417 52.343 40.395 51.7114 40.3734C51.5195 39.9463 51.3498 39.518 51.1783 39.085C50.9814 38.5879 50.7819 38.0841 50.5436 37.5697C50.4992 37.6941 50.4551 37.8165 50.4116 37.937L50.2861 38.2836C50.0683 38.8846 49.8643 39.4476 49.6808 40.0161C49.5769 40.3293 49.4302 40.4662 49.0917 40.472C48.6621 40.4788 48.2325 40.5111 47.8029 40.5434C47.6457 40.5552 47.4886 40.567 47.3315 40.5776C47.1704 40.5883 47.0103 40.605 46.821 40.6247C46.7225 40.635 46.6161 40.6461 46.4975 40.6576C46.9493 41.0103 47.3773 41.3427 47.7926 41.6652L47.795 41.667C48.1657 41.9549 48.5264 42.235 48.885 42.5148C48.7932 42.9627 48.6821 43.3968 48.5702 43.8341C48.4342 44.3653 48.2971 44.901 48.192 45.4717C48.5383 45.2345 48.8725 45.0062 49.1988 44.7833C49.7071 44.436 50.1962 44.1018 50.6823 43.7677C50.8642 43.8811 51.0399 43.991 51.2119 44.0987L51.2136 44.0997L51.2179 44.1024C51.4729 44.262 51.7199 44.4166 51.9678 44.5704C52.0855 44.6428 52.2023 44.7171 52.3208 44.7926C52.6108 44.9771 52.9114 45.1685 53.2615 45.3546L52.4195 42.4418C52.8118 42.1111 53.1967 41.7858 53.5781 41.4634L53.5789 41.4627C53.8213 41.2578 54.0623 41.0541 54.3027 40.8511L54.6476 40.5602C54.6371 40.5324 54.6256 40.5033 54.614 40.4755L53.5803 40.4389Z" fill="#FF9C00"/>
<path d="M44.092 11.1478C43.2616 10.6297 42.4885 10.1466 41.6907 9.64799L41.544 9.55627C40.7366 10.1108 39.9304 10.6629 39.0341 11.2754L39.0747 11.0931C39.1048 10.9577 39.1272 10.857 39.1519 10.7569L39.2064 10.5351L39.2699 10.2755L39.2706 10.2727L39.271 10.2711L39.2717 10.2685L39.2721 10.2668C39.4024 9.73329 39.5324 9.20052 39.6774 8.67117C39.7537 8.3974 39.6913 8.23616 39.4614 8.06912C39.0296 7.75635 38.6105 7.42686 38.1909 7.09692L38.1898 7.09609C38.0467 6.98351 37.9027 6.87032 37.7589 6.75829C37.6904 6.70612 37.6253 6.64853 37.5403 6.5733C37.4949 6.53312 37.4438 6.48791 37.3835 6.4358L40.382 6.21424L40.6104 5.57906C40.8675 4.86408 41.1297 4.13463 41.4146 3.3397C41.7048 4.05285 41.9759 4.7179 42.2467 5.38247L42.2475 5.38431L42.5639 6.16088C43.5376 6.19684 44.5102 6.23164 45.5486 6.2676C45.511 6.30743 45.4799 6.3422 45.4523 6.3732C45.4049 6.42615 45.3675 6.46809 45.3245 6.50541L45.1358 6.66606L44.9367 6.83599C44.4893 7.21802 44.0415 7.60032 43.5827 7.96936C43.3563 8.15148 43.2847 8.3162 43.3817 8.61085C43.5607 9.15916 43.7171 9.71418 43.8736 10.2698L43.8739 10.271L43.8743 10.2721L43.8747 10.2738L43.9628 10.5856C43.9827 10.6558 44.0026 10.7261 44.0227 10.7963C44.0379 10.8517 44.0482 10.9088 44.062 10.9858L44.0724 11.044C44.0781 11.0752 44.0845 11.1096 44.092 11.1478Z" fill="#FF9C00"/>
<path d="M14.9994 10.664C15.5489 10.289 16.0796 9.92675 16.6212 9.5586C16.7756 9.65452 16.9297 9.7514 17.084 9.84835L17.0863 9.84979C17.3453 10.0127 17.6047 10.1757 17.8663 10.3347C17.993 10.4116 18.1177 10.4925 18.2443 10.5746L18.2456 10.5754L18.2467 10.5761L18.2482 10.5771L18.2493 10.5778C18.5387 10.7656 18.8385 10.96 19.1946 11.1304C19.1188 10.869 19.046 10.6145 18.9748 10.3652C18.8028 9.76384 18.6395 9.19257 18.4623 8.62594C18.3757 8.34869 18.4023 8.17121 18.6448 7.97864C19.0901 7.62632 19.5217 7.25638 19.9532 6.88644C20.0971 6.76313 20.2411 6.63967 20.3855 6.51701C20.4278 6.48111 20.466 6.43872 20.5163 6.38283C20.5456 6.35025 20.5791 6.31308 20.62 6.26993C20.2179 6.25516 19.8263 6.24056 19.4412 6.22619L19.4229 6.22551C18.8166 6.2029 18.2263 6.18088 17.6365 6.15973L17.3264 5.39541C17.0554 4.72744 16.7842 4.05888 16.493 3.33855L16.0634 4.52921L16.0616 4.53402C15.8549 5.10689 15.6553 5.66007 15.4569 6.21077C15.0531 6.24883 14.6542 6.2751 14.253 6.30151L14.2519 6.3016C13.6631 6.34036 13.0694 6.37944 12.448 6.4567C12.6447 6.60929 12.8348 6.75585 13.02 6.89862L13.0337 6.90921L13.0346 6.90991L13.0374 6.91206C13.4483 7.22879 13.8353 7.52708 14.2164 7.83132C14.3401 7.92984 14.4406 8.00442 14.5212 8.06422C14.6884 8.18826 14.7699 8.24877 14.7958 8.3277C14.8205 8.40278 14.7947 8.49454 14.7446 8.67357L14.7443 8.67458C14.717 8.77194 14.6825 8.89503 14.6449 9.05515C14.5309 9.54002 14.4115 10.0238 14.2841 10.5401L14.2831 10.5441L14.2732 10.5841C14.2181 10.8074 14.1615 11.037 14.1032 11.2754L14.9994 10.664Z" fill="#FF9C00"/>
<path d="M53.8834 25.0472C54.0534 25.4655 54.218 25.8708 54.38 26.2698L55.0257 27.8591C55.8866 27.8886 56.7341 27.9163 57.6228 27.9454L58 27.9577L57.978 27.9831C57.9676 27.9951 57.9579 28.0066 57.9485 28.0178L57.9357 28.0332L57.9103 28.064L57.9096 28.0648C57.8654 28.1185 57.8306 28.1608 57.7898 28.1967L57.6367 28.3274L57.4221 28.5111C56.9577 28.909 56.4926 29.3074 56.0156 29.6873C55.7881 29.8683 55.7557 30.0318 55.8435 30.2998C56.0175 30.839 56.1714 31.3856 56.3252 31.9314L56.3786 32.1212L56.4314 32.3078L56.4707 32.4458C56.4898 32.5115 56.5028 32.5791 56.5199 32.6676C56.5296 32.7182 56.5408 32.776 56.555 32.8437C56.1668 32.6021 55.7919 32.368 55.4224 32.1373L55.395 32.1202C54.9297 31.8296 54.4726 31.5442 54.0081 31.2556L53.458 31.6307C52.8329 32.0568 52.2092 32.482 51.5848 32.9098C51.5662 32.895 51.5467 32.8828 51.5277 32.8708L51.5179 32.8646C51.7489 31.9145 51.9799 30.9645 52.2143 30.0051C51.5036 29.4523 50.8074 28.9092 50.0499 28.3184L49.8315 28.1479C49.895 28.1414 49.9552 28.135 50.0126 28.1287L50.124 28.1166C50.3207 28.095 50.4876 28.0767 50.6539 28.0656L50.9935 28.0416C51.4954 28.0059 51.9974 27.9702 52.4996 27.9484C52.7618 27.9357 52.8947 27.8301 52.9778 27.5772C53.1403 27.0749 53.3191 26.5782 53.498 26.0811L53.5418 25.9593C53.5912 25.822 53.6405 25.6847 53.6893 25.5472C53.7233 25.4471 53.7622 25.3503 53.8105 25.2304C53.8326 25.1753 53.8569 25.1145 53.8834 25.0472Z" fill="#FF9C00"/>
<path d="M38.9749 49.704C38.4774 49.7407 37.9827 49.7771 37.4879 49.8149C37.4763 49.845 37.4648 49.8775 37.4544 49.9053L38.4147 50.6527C38.8569 50.9969 39.302 51.3434 39.753 51.6941L39.0576 54.5547C39.0796 54.5675 39.1027 54.5826 39.1269 54.5953C39.4686 54.3621 39.8108 54.1288 40.1528 53.8957L40.3127 53.7867C40.7218 53.5079 41.1304 53.2295 41.5375 52.9516C41.9352 53.1829 42.3175 53.4249 42.7022 53.6684C43.1565 53.956 43.6144 54.2459 44.104 54.5222C44.0901 54.4625 44.0792 54.4136 44.0699 54.3719L44.0693 54.3693C44.0529 54.2952 44.0413 54.2434 44.0266 54.1939L43.9695 53.9946C43.9341 53.8704 43.8989 53.7462 43.8637 53.622L43.8633 53.6203C43.7105 53.0811 43.5578 52.5419 43.3856 52.0085C43.2955 51.7289 43.3325 51.5526 43.5715 51.3658C44.0226 51.0072 44.4605 50.6332 44.8987 50.2591C45.026 50.1503 45.1533 50.0416 45.281 49.9332C45.3326 49.8869 45.3789 49.8358 45.4436 49.7644C45.4744 49.7304 45.5095 49.6916 45.5513 49.6467C45.4592 49.643 45.3775 49.6392 45.3025 49.6357L45.3013 49.6356C45.1638 49.6292 45.0482 49.6238 44.9333 49.6223C44.2484 49.6014 43.5612 49.5829 42.875 49.5771C42.6487 49.5724 42.5274 49.4935 42.4431 49.272C42.2645 48.7981 42.0727 48.3314 41.8807 47.8641L41.88 47.8626C41.8053 47.6807 41.7305 47.4987 41.6565 47.3162L41.6125 47.2099C41.5575 47.0772 41.4975 46.9324 41.4139 46.728C41.2283 47.2462 41.0509 47.7401 40.8769 48.2246C40.7108 48.687 40.5477 49.1408 40.3836 49.5991C39.9102 49.635 39.4414 49.6696 38.9749 49.704Z" fill="#FF9C00"/>
<path d="M52.8578 15.3819C53.4486 15.4003 54.0334 15.4185 54.6169 15.4376C54.6225 15.4532 54.6284 15.4685 54.6345 15.4841L54.6417 15.5029L54.6503 15.5257C53.9169 16.1464 53.1823 16.767 52.4199 17.4108C52.6098 18.0701 52.8009 18.7301 52.9919 19.3898L53.2343 20.2273C53.223 20.2399 53.211 20.2518 53.1991 20.2636C53.1902 20.2723 53.1814 20.281 53.173 20.29C52.3495 19.7761 51.5259 19.2622 50.6862 18.7367C50.3777 18.9469 50.0706 19.1566 49.7594 19.369L49.7524 19.3738C49.2432 19.7215 48.723 20.0766 48.1682 20.4535C48.4246 19.4025 48.6568 18.4525 48.8936 17.485L48.624 17.2755C47.9397 16.7437 47.2581 16.2141 46.5107 15.6336C47.0649 15.5606 47.5963 15.5275 48.1186 15.4949C48.5923 15.4654 49.0586 15.4364 49.5277 15.3784C49.8569 14.462 50.1826 13.5514 50.506 12.6477C50.5372 12.6466 50.5511 12.6442 50.5649 12.6454L50.574 12.6474L50.5774 12.6483L50.5834 12.6502L50.5883 12.6522C50.5902 12.6532 50.592 12.6542 50.5936 12.6553C50.5961 12.6571 50.5978 12.6592 50.5984 12.6616C50.8124 13.1769 51.0257 13.6926 51.242 14.2159C51.3958 14.5879 51.5512 14.9637 51.7096 15.3459L52.8578 15.3819Z" fill="#FF9C00"/>
<path d="M29.082 56.2832L31.6485 57.8863C31.6274 57.7978 31.613 57.7338 31.6015 57.6825L31.6012 57.6814C31.5896 57.6298 31.581 57.5912 31.5712 57.5534C31.5164 57.3644 31.4621 57.1754 31.4078 56.9864L31.404 56.9731C31.242 56.4091 31.0802 55.8459 30.9082 55.2879C30.8354 55.0559 30.8643 54.9051 31.0641 54.7438C31.5453 54.3572 32.0151 53.9555 32.4847 53.554C32.6124 53.4448 32.7404 53.3354 32.8683 53.2265C32.912 53.1882 32.9464 53.1406 32.9892 53.0813L33.0173 53.0427L33.0375 53.0154L33.0542 52.9933C32.0332 52.9562 31.071 52.9214 30.1019 52.8878C29.9227 52.4458 29.7453 52.0097 29.5657 51.5679L28.9619 50.0817C28.9278 50.1684 28.8985 50.2407 28.8726 50.3046C28.8574 50.342 28.8434 50.3765 28.8303 50.4093C28.8104 50.4592 28.7926 50.5052 28.7759 50.5515C28.7177 50.7137 28.6591 50.8758 28.6006 51.0378C28.4059 51.5765 28.2111 52.1151 28.0309 52.6581C27.9559 52.8843 27.8369 52.9643 27.6082 52.9748C27.1746 52.9936 26.7409 53.0233 26.3073 53.0529C26.1542 53.0634 26.001 53.0738 25.8479 53.0838C25.566 53.1024 25.2842 53.1302 24.9204 53.1755C24.9863 53.229 25.042 53.2748 25.0912 53.3153C25.1828 53.3905 25.2522 53.4475 25.3235 53.5026C25.3972 53.5597 25.4707 53.6169 25.5442 53.6741C25.6369 53.7464 25.7295 53.8188 25.8221 53.8912C26.2303 54.2102 26.6392 54.5298 27.0561 54.8389C27.2467 54.9793 27.2894 55.1243 27.227 55.3424C27.1358 55.6573 27.0577 55.9775 26.9797 56.2969L26.944 56.4432C26.8723 56.7333 26.8031 57.0238 26.729 57.3349L26.7274 57.3416C26.6778 57.5498 26.626 57.7672 26.5698 58L27.2213 57.5551C27.8614 57.118 28.4685 56.7035 29.082 56.2832Z" fill="#FF9C00"/>
<path d="M4.04037 25.0576C4.20901 25.4741 4.34531 25.8082 4.4816 26.1434C4.49765 26.1832 4.51398 26.2228 4.53051 26.2624C4.5357 26.2749 4.54091 26.2873 4.54613 26.2997C4.55741 26.3266 4.56878 26.3534 4.58019 26.3802L4.63875 26.5171C4.76343 26.8077 4.88812 27.0983 4.97712 27.3997C5.09608 27.7976 5.32133 27.8985 5.70942 27.8927C6.21349 27.8842 6.71819 27.9051 7.2226 27.926C7.40475 27.9336 7.58685 27.9411 7.76888 27.9473C7.83604 27.9487 7.90321 27.9552 7.99579 27.964C8.05127 27.9693 8.11588 27.9755 8.19509 27.9821C7.89747 28.2337 7.60937 28.4773 7.32579 28.7171C6.92828 29.0534 6.53964 29.3822 6.14611 29.7151L5.89653 29.9263L6.2309 31.0886C6.3894 31.6399 6.54799 32.1915 6.70738 32.744C6.6866 32.7637 6.66695 32.7846 6.64732 32.8066C5.82377 32.2916 5.00137 31.7777 4.15819 31.2545C3.74319 31.5373 3.33029 31.8197 2.90822 32.1085C2.50092 32.3871 2.08508 32.6716 1.65057 32.9678C1.67577 32.8591 1.69905 32.7577 1.72111 32.6617C1.77389 32.4319 1.81966 32.2327 1.86772 32.0364C1.8999 31.9034 1.93134 31.7704 1.96275 31.6375C2.06099 31.2219 2.15901 30.8071 2.27891 30.3984C2.36092 30.1142 2.32166 29.939 2.07101 29.7604C1.65735 29.4635 1.25765 29.149 0.857394 28.834C0.705546 28.7145 0.553613 28.5949 0.400802 28.4762C0.338334 28.4275 0.277395 28.3765 0.201062 28.3126C0.144775 28.2654 0.0798242 28.211 0 28.1456C0.0461268 28.1405 0.0902291 28.1354 0.13262 28.1305L0.269709 28.1141L0.271291 28.1139C0.435554 28.0941 0.575844 28.0771 0.716134 28.0679L0.899931 28.0546L0.901443 28.0545C1.46937 28.0135 2.03805 27.9725 2.6058 27.9484C2.89571 27.9368 3.04818 27.8278 3.14059 27.5378C3.30557 27.015 3.49348 26.4997 3.68113 25.9851C3.73905 25.8262 3.79722 25.6666 3.8544 25.5077C3.8845 25.4203 3.9211 25.3355 3.9683 25.2262C3.98996 25.1761 4.01385 25.1208 4.04037 25.0576Z" fill="#FF9C00"/>
<path d="M16.6175 52.9469C17.463 53.4736 18.2831 53.9851 19.1886 54.5501C19.1737 54.4885 19.1618 54.4387 19.1518 54.3967C19.1324 54.3156 19.1199 54.2629 19.1055 54.2102C19.0453 54.0036 18.9857 53.7965 18.9261 53.5893L18.9255 53.5872C18.7676 53.0389 18.6093 52.4894 18.4402 51.9435C18.3685 51.7115 18.409 51.5584 18.603 51.4006C19.0142 51.0682 19.4169 50.7267 19.8195 50.3854L19.8205 50.3845L20.0403 50.1982C20.1206 50.1303 20.2009 50.0624 20.2813 49.9947C20.3516 49.9337 20.4191 49.8706 20.4864 49.8075C20.5166 49.7793 20.5467 49.7512 20.577 49.7232C20.3506 49.6339 20.1462 49.6235 19.9417 49.6177L19.7185 49.6119C19.1207 49.5963 18.5227 49.5807 17.9239 49.5724C17.7125 49.5701 17.5935 49.4912 17.523 49.2871C17.4518 49.0822 17.3681 48.882 17.2847 48.6823C17.249 48.597 17.2134 48.5117 17.1788 48.4263C17.014 48.0157 16.8486 47.6058 16.683 47.1954L16.6803 47.1889L16.5355 46.8301C16.5077 46.829 16.4823 46.8255 16.4569 46.8232C16.2353 47.4375 16.0142 48.0533 15.7915 48.6735L15.459 49.5991C14.9744 49.6352 14.4937 49.6715 14.0038 49.7086C13.5012 49.7466 12.9888 49.7854 12.4524 49.8253C12.5178 49.8804 12.5719 49.9267 12.6188 49.9668C12.6993 50.0357 12.7592 50.087 12.8197 50.1339C12.9587 50.242 13.0974 50.3504 13.236 50.4588C13.6848 50.8095 14.1327 51.1595 14.5881 51.4981C14.774 51.6384 14.8272 51.7753 14.7659 51.998C14.6312 52.4898 14.5097 52.9823 14.388 53.4756L14.3085 53.7972C14.2725 53.9447 14.2395 54.0918 14.2023 54.258L14.2021 54.259L14.2012 54.2627C14.1743 54.3828 14.1452 54.5129 14.111 54.6603C15.0016 54.0524 15.8055 53.5026 16.6175 52.9469Z" fill="#FF9C00"/>
<path d="M4.99939 20.3062L5.0889 19.9421C5.28674 19.1374 5.48537 18.3295 5.69012 17.4908C5.26607 17.1605 4.84167 16.8292 4.41691 16.4975L4.41031 16.4923C4.06903 16.2259 3.72752 15.9592 3.38579 15.6928L3.40311 15.6093C3.83624 15.5766 4.26959 15.5441 4.70401 15.5116C5.24041 15.4714 5.77842 15.4311 6.31962 15.39C6.6161 14.5661 6.90366 13.7628 7.2129 12.8989L7.21423 12.8952L7.34184 12.5387C7.5803 13.0568 7.78176 13.5652 7.97961 14.0645C8.15163 14.4987 8.32108 14.9264 8.5096 15.3471C9.44233 15.3759 10.3645 15.4037 11.2852 15.4314L11.4134 15.4353C11.4261 15.4631 11.4388 15.491 11.4515 15.52C10.7088 16.1487 9.96727 16.7763 9.21533 17.412L9.41133 18.0893C9.61915 18.8078 9.82374 19.5151 10.0296 20.2204C10.0077 20.2412 9.98575 20.2621 9.96496 20.283L8.81943 19.5707C8.37565 19.2949 7.92939 19.0175 7.47814 18.7367C6.90918 19.1258 6.34428 19.5127 5.78097 19.8984L5.08372 20.3758C5.07637 20.37 5.06902 20.364 5.06165 20.3579C5.05378 20.3513 5.04587 20.3447 5.03792 20.338C5.02524 20.3274 5.01243 20.3167 4.99939 20.3062Z" fill="#FF9C00"/>
<path d="M7.75543 38.5446C7.63359 38.2449 7.51174 37.9452 7.38977 37.6451C7.36205 37.6497 7.33433 37.6543 7.3043 37.6567C7.21761 37.902 7.12965 38.1471 7.04168 38.3922C6.84009 38.9539 6.63842 39.5158 6.45187 40.0811C6.36177 40.3514 6.22086 40.4581 5.94249 40.4662C5.46245 40.4833 4.98086 40.5175 4.50025 40.5516C4.3934 40.5592 4.2866 40.5667 4.17988 40.5741C4.02513 40.5866 3.8708 40.6016 3.71638 40.6166C3.61262 40.6266 3.50882 40.6367 3.40484 40.646C3.39676 40.6739 3.38868 40.6982 3.37943 40.7249C4.14337 41.3173 4.90616 41.9097 5.66895 42.5021L5.68838 42.5172C5.62109 42.7938 5.55436 43.0679 5.48808 43.3401C5.3223 44.021 5.15939 44.6901 4.99766 45.3581C5.01216 45.3686 5.02703 45.3785 5.04207 45.3884C5.05338 45.3959 5.06479 45.4034 5.0762 45.4114L7.47756 43.7688C7.85329 43.9978 8.21853 44.2276 8.57957 44.4548C9.03983 44.7445 9.49324 45.0299 9.95283 45.3035C9.97593 45.2838 10.0002 45.2618 10.0244 45.2397C9.75648 44.3152 9.4885 43.3872 9.21706 42.4429C9.36775 42.3151 9.51704 42.1895 9.66502 42.0651C9.89698 41.87 10.1257 41.6776 10.3513 41.4836C10.4663 41.3839 10.5836 41.2868 10.7031 41.1879C10.9618 40.9738 11.2302 40.7516 11.5052 40.4778C10.9396 40.4586 10.4007 40.4397 9.87131 40.4212C9.4104 40.405 8.95663 40.3891 8.49862 40.3734C8.2502 39.7618 8.00282 39.1532 7.75543 38.5446Z" fill="#FF9C00"/>
<path d="M89.908 24.4V44H85.428V28.096H78.708L78.568 32.184C78.4747 34.9653 78.2507 37.224 77.896 38.96C77.5413 40.6773 76.944 42.0027 76.104 42.936C75.2827 43.8507 74.1253 44.308 72.632 44.308C72.016 44.308 71.2693 44.2053 70.392 44L70.672 40.164C70.9147 40.2387 71.1853 40.276 71.484 40.276C72.5667 40.276 73.3227 39.6413 73.752 38.372C74.1813 37.084 74.452 35.0773 74.564 32.352L74.844 24.4H89.908ZM94.8032 24.4H99.3112V37.168L108.663 24.4H112.919V44H108.439V31.26L99.0872 44H94.8032V24.4ZM117.799 24.4H133.619V28.012H122.307V32.044H127.739C130.11 32.044 131.911 32.5387 133.143 33.528C134.394 34.5173 135.019 35.9453 135.019 37.812C135.019 39.772 134.329 41.2933 132.947 42.376C131.566 43.4587 129.615 44 127.095 44H117.799V24.4ZM126.843 40.64C128.001 40.64 128.887 40.416 129.503 39.968C130.119 39.5013 130.427 38.8293 130.427 37.952C130.427 36.2347 129.233 35.376 126.843 35.376H122.307V40.64H126.843ZM153.647 40.36V44H138.471V24.4H153.283V28.04H142.979V32.296H152.079V35.824H142.979V40.36H153.647ZM172.291 28.096H166.019V44H161.539V28.096H155.295V24.4H172.291V28.096ZM190.315 40.36V44H175.139V24.4H189.951V28.04H179.647V32.296H188.747V35.824H179.647V40.36H190.315Z" fill="#333333"/>
<path d="M74.09 12H79.37V12.85H75.08V14.85H77.26C78.0933 14.85 78.7267 15.0233 79.16 15.37C79.5933 15.7167 79.81 16.2167 79.81 16.87C79.81 17.5567 79.5733 18.0833 79.1 18.45C78.6333 18.8167 77.9633 19 77.09 19H74.09V12ZM77.05 18.21C77.6233 18.21 78.06 18.1 78.36 17.88C78.66 17.66 78.81 17.3367 78.81 16.91C78.81 16.0633 78.2233 15.64 77.05 15.64H75.08V18.21H77.05ZM88.2045 11.92C88.8778 11.92 89.4845 12.0767 90.0245 12.39C90.5645 12.6967 90.9878 13.1233 91.2945 13.67C91.6078 14.21 91.7645 14.82 91.7645 15.5C91.7645 16.18 91.6078 16.7933 91.2945 17.34C90.9878 17.88 90.5645 18.3067 90.0245 18.62C89.4845 18.9267 88.8778 19.08 88.2045 19.08C87.5778 19.08 87.0078 18.9433 86.4945 18.67C85.9811 18.3967 85.5645 18.02 85.2445 17.54C84.9245 17.06 84.7345 16.5133 84.6745 15.9H83.3945V19H82.4045V12H83.3945V15H84.6845C84.7578 14.4067 84.9545 13.8767 85.2745 13.41C85.6011 12.9433 86.0178 12.58 86.5245 12.32C87.0311 12.0533 87.5911 11.92 88.2045 11.92ZM88.2045 18.18C88.6845 18.18 89.1178 18.0667 89.5045 17.84C89.8978 17.6067 90.2045 17.2867 90.4245 16.88C90.6511 16.4733 90.7645 16.0133 90.7645 15.5C90.7645 14.9867 90.6511 14.5267 90.4245 14.12C90.2045 13.7133 89.8978 13.3967 89.5045 13.17C89.1178 12.9367 88.6845 12.82 88.2045 12.82C87.7311 12.82 87.3011 12.9367 86.9145 13.17C86.5278 13.3967 86.2211 13.7133 85.9945 14.12C85.7745 14.5267 85.6645 14.9867 85.6645 15.5C85.6645 16.0133 85.7745 16.4733 85.9945 16.88C86.2211 17.2867 86.5278 17.6067 86.9145 17.84C87.3011 18.0667 87.7311 18.18 88.2045 18.18ZM97.1208 12C98.0274 12 98.7408 12.2167 99.2608 12.65C99.7808 13.0833 100.041 13.68 100.041 14.44C100.041 15.2 99.7808 15.7967 99.2608 16.23C98.7408 16.6633 98.0274 16.88 97.1208 16.88H95.3908V19H94.3908V12H97.1208ZM97.0908 16.01C97.7241 16.01 98.2074 15.8767 98.5408 15.61C98.8741 15.3367 99.0408 14.9467 99.0408 14.44C99.0408 13.9333 98.8741 13.5467 98.5408 13.28C98.2074 13.0067 97.7241 12.87 97.0908 12.87H95.3908V16.01H97.0908ZM105.679 19.08C104.973 19.08 104.336 18.9267 103.769 18.62C103.203 18.3067 102.756 17.8767 102.429 17.33C102.109 16.7833 101.949 16.1733 101.949 15.5C101.949 14.8267 102.109 14.2167 102.429 13.67C102.756 13.1233 103.203 12.6967 103.769 12.39C104.336 12.0767 104.973 11.92 105.679 11.92C106.379 11.92 107.013 12.0767 107.579 12.39C108.146 12.6967 108.589 13.1233 108.909 13.67C109.229 14.21 109.389 14.82 109.389 15.5C109.389 16.18 109.229 16.7933 108.909 17.34C108.589 17.88 108.146 18.3067 107.579 18.62C107.013 18.9267 106.379 19.08 105.679 19.08ZM105.679 18.19C106.193 18.19 106.653 18.0733 107.059 17.84C107.473 17.6067 107.796 17.2867 108.029 16.88C108.269 16.4667 108.389 16.0067 108.389 15.5C108.389 14.9933 108.269 14.5367 108.029 14.13C107.796 13.7167 107.473 13.3933 107.059 13.16C106.653 12.9267 106.193 12.81 105.679 12.81C105.166 12.81 104.699 12.9267 104.279 13.16C103.866 13.3933 103.539 13.7167 103.299 14.13C103.066 14.5367 102.949 14.9933 102.949 15.5C102.949 16.0067 103.066 16.4667 103.299 16.88C103.539 17.2867 103.866 17.6067 104.279 17.84C104.699 18.0733 105.166 18.19 105.679 18.19ZM121.722 12V19H120.742V12.87H116.682V19H115.692V12H121.722ZM129.984 18.13V19H124.904V12H129.844V12.87H125.904V15.02H129.414V15.87H125.904V18.13H129.984ZM135.285 12C136.192 12 136.905 12.2167 137.425 12.65C137.945 13.0833 138.205 13.68 138.205 14.44C138.205 15.2 137.945 15.7967 137.425 16.23C136.905 16.6633 136.192 16.88 135.285 16.88H133.555V19H132.555V12H135.285ZM135.255 16.01C135.888 16.01 136.372 15.8767 136.705 15.61C137.038 15.3367 137.205 14.9467 137.205 14.44C137.205 13.9333 137.038 13.5467 136.705 13.28C136.372 13.0067 135.888 12.87 135.255 12.87H133.555V16.01H135.255ZM145.676 18.13V19H140.596V12H145.536V12.87H141.596V15.02H145.106V15.87H141.596V18.13H145.676ZM152.606 15.37C153.08 15.4833 153.436 15.6867 153.676 15.98C153.923 16.2667 154.046 16.6367 154.046 17.09C154.046 17.6967 153.823 18.1667 153.376 18.5C152.936 18.8333 152.293 19 151.446 19H148.246V12H151.256C152.023 12 152.62 12.1567 153.046 12.47C153.48 12.7767 153.696 13.22 153.696 13.8C153.696 14.18 153.6 14.5033 153.406 14.77C153.22 15.0367 152.953 15.2367 152.606 15.37ZM149.236 15.08H151.186C151.673 15.08 152.043 14.9833 152.296 14.79C152.556 14.5967 152.686 14.3133 152.686 13.94C152.686 13.5667 152.556 13.2833 152.296 13.09C152.036 12.89 151.666 12.79 151.186 12.79H149.236V15.08ZM151.426 18.21C152.5 18.21 153.036 17.81 153.036 17.01C153.036 16.61 152.9 16.3167 152.626 16.13C152.36 15.9367 151.96 15.84 151.426 15.84H149.236V18.21H151.426ZM159.867 19.08C159.16 19.08 158.524 18.9267 157.957 18.62C157.39 18.3067 156.944 17.8767 156.617 17.33C156.297 16.7833 156.137 16.1733 156.137 15.5C156.137 14.8267 156.297 14.2167 156.617 13.67C156.944 13.1233 157.39 12.6967 157.957 12.39C158.524 12.0767 159.16 11.92 159.867 11.92C160.567 11.92 161.2 12.0767 161.767 12.39C162.334 12.6967 162.777 13.1233 163.097 13.67C163.417 14.21 163.577 14.82 163.577 15.5C163.577 16.18 163.417 16.7933 163.097 17.34C162.777 17.88 162.334 18.3067 161.767 18.62C161.2 18.9267 160.567 19.08 159.867 19.08ZM159.867 18.19C160.38 18.19 160.84 18.0733 161.247 17.84C161.66 17.6067 161.984 17.2867 162.217 16.88C162.457 16.4667 162.577 16.0067 162.577 15.5C162.577 14.9933 162.457 14.5367 162.217 14.13C161.984 13.7167 161.66 13.3933 161.247 13.16C160.84 12.9267 160.38 12.81 159.867 12.81C159.354 12.81 158.887 12.9267 158.467 13.16C158.054 13.3933 157.727 13.7167 157.487 14.13C157.254 14.5367 157.137 14.9933 157.137 15.5C157.137 16.0067 157.254 16.4667 157.487 16.88C157.727 17.2867 158.054 17.6067 158.467 17.84C158.887 18.0733 159.354 18.19 159.867 18.19ZM172.668 18.13V20.53H171.738V19H165.978L165.968 20.53H165.038L165.048 18.13H165.388C165.828 18.1033 166.138 17.7567 166.318 17.09C166.498 16.4167 166.608 15.47 166.648 14.25L166.718 12H171.638V18.13H172.668ZM167.528 14.34C167.495 15.3267 167.415 16.1433 167.288 16.79C167.168 17.4367 166.972 17.8833 166.698 18.13H170.648V12.87H167.578L167.528 14.34ZM178.185 19.08C177.479 19.08 176.842 18.9267 176.275 18.62C175.709 18.3067 175.262 17.8767 174.935 17.33C174.615 16.7833 174.455 16.1733 174.455 15.5C174.455 14.8267 174.615 14.2167 174.935 13.67C175.262 13.1233 175.709 12.6967 176.275 12.39C176.842 12.0767 177.479 11.92 178.185 11.92C178.885 11.92 179.519 12.0767 180.085 12.39C180.652 12.6967 181.095 13.1233 181.415 13.67C181.735 14.21 181.895 14.82 181.895 15.5C181.895 16.18 181.735 16.7933 181.415 17.34C181.095 17.88 180.652 18.3067 180.085 18.62C179.519 18.9267 178.885 19.08 178.185 19.08ZM178.185 18.19C178.699 18.19 179.159 18.0733 179.565 17.84C179.979 17.6067 180.302 17.2867 180.535 16.88C180.775 16.4667 180.895 16.0067 180.895 15.5C180.895 14.9933 180.775 14.5367 180.535 14.13C180.302 13.7167 179.979 13.3933 179.565 13.16C179.159 12.9267 178.699 12.81 178.185 12.81C177.672 12.81 177.205 12.9267 176.785 13.16C176.372 13.3933 176.045 13.7167 175.805 14.13C175.572 14.5367 175.455 14.9933 175.455 15.5C175.455 16.0067 175.572 16.4667 175.805 16.88C176.045 17.2867 176.372 17.6067 176.785 17.84C177.205 18.0733 177.672 18.19 178.185 18.19ZM188.872 15.37C189.345 15.4833 189.702 15.6867 189.942 15.98C190.189 16.2667 190.312 16.6367 190.312 17.09C190.312 17.6967 190.089 18.1667 189.642 18.5C189.202 18.8333 188.559 19 187.712 19H184.512V12H187.522C188.289 12 188.885 12.1567 189.312 12.47C189.745 12.7767 189.962 13.22 189.962 13.8C189.962 14.18 189.865 14.5033 189.672 14.77C189.485 15.0367 189.219 15.2367 188.872 15.37ZM185.502 15.08H187.452C187.939 15.08 188.309 14.9833 188.562 14.79C188.822 14.5967 188.952 14.3133 188.952 13.94C188.952 13.5667 188.822 13.2833 188.562 13.09C188.302 12.89 187.932 12.79 187.452 12.79H185.502V15.08ZM187.692 18.21C188.765 18.21 189.302 17.81 189.302 17.01C189.302 16.61 189.165 16.3167 188.892 16.13C188.625 15.9367 188.225 15.84 187.692 15.84H185.502V18.21H187.692Z" fill="#333333"/>
</svg>
