<svg width="173" height="58" viewBox="0 0 173 58" fill="none" xmlns="http://www.w3.org/2000/svg">
<path fill-rule="evenodd" clip-rule="evenodd" d="M18.8561 16.173C19.414 16.173 19.9742 16.1568 20.5332 16.1765C22.0879 16.2299 23.6438 16.3528 25.1973 16.3482C26.9622 16.3435 28.7283 16.2287 30.4932 16.1707C30.626 16.1661 30.8513 16.0327 30.8663 16.3807C30.5094 16.4363 30.1548 16.4874 29.8002 16.55C29.5391 16.5953 29.2769 16.6475 29.0205 16.7171C27.6402 17.0825 26.9876 17.869 26.9137 19.3028C26.8583 20.3584 26.8305 21.414 26.8236 22.4685C26.8005 25.3987 26.7901 28.3277 26.7867 31.258C26.7855 33.1581 26.7994 35.0594 26.8248 36.9618C26.8305 37.3655 26.8837 37.7773 26.9715 38.1705C27.236 39.3526 28.0249 39.9987 29.173 40.2145C29.5957 40.2934 30.037 40.2922 30.4701 40.2876C31.3526 40.2771 32.2362 40.2644 33.1175 40.2099C33.8983 40.1635 34.6826 40.0892 35.4553 39.9709C36.5607 39.8027 37.4085 39.2006 37.9699 38.2378C38.3083 37.6566 38.5682 37.0314 38.8593 36.4224C38.9378 36.2611 38.9967 36.0871 39.066 35.9131C39.2959 35.9247 39.3698 36.0083 39.3201 36.2356C39.0914 37.2936 38.8766 38.3573 38.656 39.4164C38.5855 39.7621 38.5127 40.1043 38.4388 40.4488C38.4123 40.5729 38.3857 40.6982 38.3487 40.8166C38.1015 41.5868 37.7712 41.8536 36.958 41.8409C35.3179 41.813 33.6765 41.7782 32.0387 41.7063C29.0944 41.5764 26.1525 41.5694 23.2095 41.7074C21.8095 41.7747 20.4061 41.7968 19.0051 41.8374C18.9092 41.8409 18.8122 41.8374 18.7198 41.8374C18.5985 41.5926 18.7498 41.552 18.9092 41.523C19.31 41.4546 19.7131 41.3989 20.1105 41.3212C20.4142 41.262 20.7157 41.1959 21.0091 41.1031C22.2704 40.6959 22.8676 39.9268 22.9496 38.5951C22.9808 38.0754 22.9946 37.5534 22.9958 37.0314C22.9992 32.0746 23.0039 27.1167 22.9923 22.1576C22.99 21.131 22.9507 20.1032 22.8745 19.0789C22.7925 17.9711 22.1895 17.2159 21.1373 16.8737C20.5933 16.6974 20.0238 16.6011 19.4648 16.4735C19.3008 16.4363 19.131 16.4259 18.9681 16.383C18.9092 16.3679 18.8665 16.2925 18.8156 16.2438C18.8283 16.2217 18.8422 16.1974 18.8561 16.173ZM24.6279 40.7667C24.6279 32.8913 24.6279 25.0565 24.6279 17.2089C24.2328 17.2089 23.8644 17.2089 23.4936 17.2089C23.4936 25.0762 23.4936 32.9098 23.4936 40.7667C23.8782 40.7667 24.2351 40.7667 24.6279 40.7667Z" fill="#333333"/>
<path d="M28.5275 6.59896L29.0818 6.22004C29.6444 6.57117 30.1983 6.91712 30.7727 7.27588L31.6471 7.82204C31.6329 7.76105 31.6217 7.71162 31.6124 7.66995C31.5936 7.58664 31.5817 7.53392 31.5663 7.48215C31.522 7.32887 31.478 7.1755 31.4339 7.02212C31.2606 6.41866 31.0872 5.81506 30.9021 5.21662C30.8282 4.97882 30.8721 4.83265 31.0661 4.67605C31.4494 4.36764 31.8237 4.04963 32.1978 3.73169L32.1986 3.73104C32.3913 3.56727 32.584 3.40351 32.7779 3.2411C32.8407 3.18959 32.9091 3.14571 32.9777 3.10172C33.0125 3.07934 33.0474 3.05693 33.0817 3.03346C33.0598 3.00214 33.0378 2.97198 33.0147 2.94066C32.9729 2.9371 32.9311 2.933 32.8891 2.92889C32.7941 2.91959 32.6985 2.91024 32.6024 2.90702L32.1139 2.89319L32.108 2.89303C31.5447 2.87675 30.9808 2.86047 30.417 2.85598C30.186 2.85482 30.0543 2.78174 29.9839 2.55553C29.938 2.40692 29.8765 2.26281 29.8149 2.1185C29.788 2.05554 29.7611 1.99254 29.7355 1.92912C29.4872 1.31779 29.24 0.707616 28.9535 0C28.8048 0.413042 28.6619 0.811153 28.5216 1.20171C28.3188 1.76653 28.1217 2.31555 27.9209 2.87106L26.4926 2.97859C25.9818 3.01723 25.4611 3.05663 24.9155 3.09726C24.9688 3.14523 25.0084 3.18198 25.04 3.21141C25.0873 3.2553 25.117 3.28292 25.1488 3.30723L25.3189 3.4395L25.6143 3.66987C26.0902 4.04133 26.5665 4.41302 27.05 4.77349C27.2395 4.9127 27.2868 5.05538 27.2244 5.27463C27.1391 5.57185 27.0666 5.87266 26.9941 6.17368L26.9933 6.17681C26.9738 6.25773 26.9543 6.33868 26.9345 6.41957C26.8354 6.82162 26.7388 7.22283 26.627 7.68721L26.5661 7.94036C27.2561 7.46819 27.8949 7.03145 28.5275 6.59896Z" fill="#FF9C00"/>
<path d="M53.5803 40.4389C52.9636 40.417 52.343 40.395 51.7114 40.3734C51.5195 39.9463 51.3498 39.518 51.1783 39.085C50.9814 38.5879 50.7819 38.0841 50.5436 37.5697C50.4992 37.6941 50.4551 37.8165 50.4116 37.937L50.2861 38.2836C50.0683 38.8846 49.8643 39.4476 49.6808 40.0161C49.5769 40.3293 49.4302 40.4662 49.0917 40.472C48.6621 40.4788 48.2325 40.5111 47.8029 40.5434C47.6457 40.5552 47.4886 40.567 47.3315 40.5776C47.1704 40.5883 47.0103 40.605 46.821 40.6247C46.7225 40.635 46.6161 40.6461 46.4975 40.6576C46.9493 41.0103 47.3773 41.3427 47.7926 41.6652L47.795 41.667C48.1657 41.9549 48.5264 42.235 48.885 42.5148C48.7932 42.9627 48.6821 43.3968 48.5702 43.8341C48.4342 44.3653 48.2971 44.901 48.192 45.4717C48.5383 45.2345 48.8725 45.0062 49.1988 44.7833C49.7071 44.436 50.1962 44.1018 50.6823 43.7677C50.8642 43.8811 51.0399 43.991 51.2119 44.0987L51.2136 44.0997L51.2179 44.1024C51.4729 44.262 51.7199 44.4166 51.9678 44.5704C52.0855 44.6428 52.2023 44.7171 52.3208 44.7926C52.6108 44.9771 52.9114 45.1685 53.2615 45.3546L52.4195 42.4418C52.8118 42.1111 53.1967 41.7858 53.5781 41.4634L53.5789 41.4627C53.8213 41.2578 54.0623 41.0541 54.3027 40.8511L54.6476 40.5602C54.6371 40.5324 54.6256 40.5033 54.614 40.4755L53.5803 40.4389Z" fill="#FF9C00"/>
<path d="M44.092 11.1478C43.2616 10.6297 42.4885 10.1466 41.6907 9.64799L41.544 9.55627C40.7366 10.1108 39.9304 10.6629 39.0341 11.2754L39.0747 11.0931C39.1048 10.9577 39.1272 10.857 39.1519 10.7569L39.2064 10.5351L39.2699 10.2755L39.2706 10.2727L39.271 10.2711L39.2717 10.2685L39.2721 10.2668C39.4024 9.73329 39.5324 9.20052 39.6774 8.67117C39.7537 8.3974 39.6913 8.23616 39.4614 8.06912C39.0296 7.75635 38.6105 7.42686 38.1909 7.09692L38.1898 7.09609C38.0467 6.98351 37.9027 6.87032 37.7589 6.75829C37.6904 6.70612 37.6253 6.64853 37.5403 6.5733C37.4949 6.53312 37.4438 6.48791 37.3835 6.4358L40.382 6.21424L40.6104 5.57906C40.8675 4.86408 41.1297 4.13463 41.4146 3.3397C41.7048 4.05285 41.9759 4.7179 42.2467 5.38247L42.2475 5.38431L42.5639 6.16088C43.5376 6.19684 44.5102 6.23164 45.5486 6.2676C45.511 6.30743 45.4799 6.3422 45.4523 6.3732C45.4049 6.42615 45.3675 6.46809 45.3245 6.50541L45.1358 6.66606L44.9367 6.83599C44.4893 7.21802 44.0415 7.60032 43.5827 7.96936C43.3563 8.15148 43.2847 8.3162 43.3817 8.61085C43.5607 9.15916 43.7171 9.71418 43.8736 10.2698L43.8739 10.271L43.8743 10.2721L43.8747 10.2738L43.9628 10.5856C43.9827 10.6558 44.0026 10.7261 44.0227 10.7963C44.0379 10.8517 44.0482 10.9088 44.062 10.9858L44.0724 11.044C44.0781 11.0752 44.0845 11.1096 44.092 11.1478Z" fill="#FF9C00"/>
<path d="M14.9994 10.664C15.5489 10.289 16.0796 9.92675 16.6212 9.5586C16.7756 9.65452 16.9297 9.7514 17.084 9.84835L17.0863 9.84979C17.3453 10.0127 17.6047 10.1757 17.8663 10.3347C17.993 10.4116 18.1177 10.4925 18.2443 10.5746L18.2456 10.5754L18.2467 10.5761L18.2482 10.5771L18.2493 10.5778C18.5387 10.7656 18.8385 10.96 19.1946 11.1304C19.1188 10.869 19.046 10.6145 18.9748 10.3652C18.8028 9.76384 18.6395 9.19257 18.4623 8.62594C18.3757 8.34869 18.4023 8.17121 18.6448 7.97864C19.0901 7.62632 19.5217 7.25638 19.9532 6.88644C20.0971 6.76313 20.2411 6.63967 20.3855 6.51701C20.4278 6.48111 20.466 6.43872 20.5163 6.38283C20.5456 6.35025 20.5791 6.31308 20.62 6.26993C20.2179 6.25516 19.8263 6.24056 19.4412 6.22619L19.4229 6.22551C18.8166 6.2029 18.2263 6.18088 17.6365 6.15973L17.3264 5.39541C17.0554 4.72744 16.7842 4.05888 16.493 3.33855L16.0634 4.52921L16.0616 4.53402C15.8549 5.10689 15.6553 5.66007 15.4569 6.21077C15.0531 6.24883 14.6542 6.2751 14.253 6.30151L14.2519 6.3016C13.6631 6.34036 13.0694 6.37944 12.448 6.4567C12.6447 6.60929 12.8348 6.75585 13.02 6.89862L13.0337 6.90921L13.0346 6.90991L13.0374 6.91206C13.4483 7.22879 13.8353 7.52708 14.2164 7.83132C14.3401 7.92984 14.4406 8.00442 14.5212 8.06422C14.6884 8.18826 14.7699 8.24877 14.7958 8.3277C14.8205 8.40278 14.7947 8.49454 14.7446 8.67357L14.7443 8.67458C14.717 8.77194 14.6825 8.89503 14.6449 9.05515C14.5309 9.54002 14.4115 10.0238 14.2841 10.5401L14.2831 10.5441L14.2732 10.5841C14.2181 10.8074 14.1615 11.037 14.1032 11.2754L14.9994 10.664Z" fill="#FF9C00"/>
<path d="M53.8834 25.0472C54.0534 25.4655 54.218 25.8708 54.38 26.2698L55.0257 27.8591C55.8866 27.8886 56.7341 27.9163 57.6228 27.9454L58 27.9577L57.978 27.9831C57.9676 27.9951 57.9579 28.0066 57.9485 28.0178L57.9357 28.0332L57.9103 28.064L57.9096 28.0648C57.8654 28.1185 57.8306 28.1608 57.7898 28.1967L57.6367 28.3274L57.4221 28.5111C56.9577 28.909 56.4926 29.3074 56.0156 29.6873C55.7881 29.8683 55.7557 30.0318 55.8435 30.2998C56.0175 30.839 56.1714 31.3856 56.3252 31.9314L56.3786 32.1212L56.4314 32.3078L56.4707 32.4458C56.4898 32.5115 56.5028 32.5791 56.5199 32.6676C56.5296 32.7182 56.5408 32.776 56.555 32.8437C56.1668 32.6021 55.7919 32.368 55.4224 32.1373L55.395 32.1202C54.9297 31.8296 54.4726 31.5442 54.0081 31.2556L53.458 31.6307C52.8329 32.0568 52.2092 32.482 51.5848 32.9098C51.5662 32.895 51.5467 32.8828 51.5277 32.8708L51.5179 32.8646C51.7489 31.9145 51.9799 30.9645 52.2143 30.0051C51.5036 29.4523 50.8074 28.9092 50.0499 28.3184L49.8315 28.1479C49.895 28.1414 49.9552 28.135 50.0126 28.1287L50.124 28.1166C50.3207 28.095 50.4876 28.0767 50.6539 28.0656L50.9935 28.0416C51.4954 28.0059 51.9974 27.9702 52.4996 27.9484C52.7618 27.9357 52.8947 27.8301 52.9778 27.5772C53.1403 27.0749 53.3191 26.5782 53.498 26.0811L53.5418 25.9593C53.5912 25.822 53.6405 25.6847 53.6893 25.5472C53.7233 25.4471 53.7622 25.3503 53.8105 25.2304C53.8326 25.1753 53.8569 25.1145 53.8834 25.0472Z" fill="#FF9C00"/>
<path d="M38.9749 49.704C38.4774 49.7407 37.9827 49.7771 37.4879 49.8149C37.4763 49.845 37.4648 49.8775 37.4544 49.9053L38.4147 50.6527C38.8569 50.9969 39.302 51.3434 39.753 51.6941L39.0576 54.5547C39.0796 54.5675 39.1027 54.5826 39.1269 54.5953C39.4686 54.3621 39.8108 54.1288 40.1528 53.8957L40.3127 53.7867C40.7218 53.5079 41.1304 53.2295 41.5375 52.9516C41.9352 53.1829 42.3175 53.4249 42.7022 53.6684C43.1565 53.956 43.6144 54.2459 44.104 54.5222C44.0901 54.4625 44.0792 54.4136 44.0699 54.3719L44.0693 54.3693C44.0529 54.2952 44.0413 54.2434 44.0266 54.1939L43.9695 53.9946C43.9341 53.8704 43.8989 53.7462 43.8637 53.622L43.8633 53.6203C43.7105 53.0811 43.5578 52.5419 43.3856 52.0085C43.2955 51.7289 43.3325 51.5526 43.5715 51.3658C44.0226 51.0072 44.4605 50.6332 44.8987 50.2591C45.026 50.1503 45.1533 50.0416 45.281 49.9332C45.3326 49.8869 45.3789 49.8358 45.4436 49.7644C45.4744 49.7304 45.5095 49.6916 45.5513 49.6467C45.4592 49.643 45.3775 49.6392 45.3025 49.6357L45.3013 49.6356C45.1638 49.6292 45.0482 49.6238 44.9333 49.6223C44.2484 49.6014 43.5612 49.5829 42.875 49.5771C42.6487 49.5724 42.5274 49.4935 42.4431 49.272C42.2645 48.7981 42.0727 48.3314 41.8807 47.8641L41.88 47.8626C41.8053 47.6807 41.7305 47.4987 41.6565 47.3162L41.6125 47.2099C41.5575 47.0772 41.4975 46.9324 41.4139 46.728C41.2283 47.2462 41.0509 47.7401 40.8769 48.2246C40.7108 48.687 40.5477 49.1408 40.3836 49.5991C39.9102 49.635 39.4414 49.6696 38.9749 49.704Z" fill="#FF9C00"/>
<path d="M52.8578 15.3819C53.4486 15.4003 54.0334 15.4185 54.6169 15.4376C54.6225 15.4532 54.6284 15.4685 54.6345 15.4841L54.6417 15.5029L54.6503 15.5257C53.9169 16.1464 53.1823 16.767 52.4199 17.4108C52.6098 18.0701 52.8009 18.7301 52.9919 19.3898L53.2343 20.2273C53.223 20.2399 53.211 20.2518 53.1991 20.2636C53.1902 20.2723 53.1814 20.281 53.173 20.29C52.3495 19.7761 51.5259 19.2622 50.6862 18.7367C50.3777 18.9469 50.0706 19.1566 49.7594 19.369L49.7524 19.3738C49.2432 19.7215 48.723 20.0766 48.1682 20.4535C48.4246 19.4025 48.6568 18.4525 48.8936 17.485L48.624 17.2755C47.9397 16.7437 47.2581 16.2141 46.5107 15.6336C47.0649 15.5606 47.5963 15.5275 48.1186 15.4949C48.5923 15.4654 49.0586 15.4364 49.5277 15.3784C49.8569 14.462 50.1826 13.5514 50.506 12.6477C50.5372 12.6466 50.5511 12.6442 50.5649 12.6454L50.574 12.6474L50.5774 12.6483L50.5834 12.6502L50.5883 12.6522C50.5902 12.6532 50.592 12.6542 50.5936 12.6553C50.5961 12.6571 50.5978 12.6592 50.5984 12.6616C50.8124 13.1769 51.0257 13.6926 51.242 14.2159C51.3958 14.5879 51.5512 14.9637 51.7096 15.3459L52.8578 15.3819Z" fill="#FF9C00"/>
<path d="M29.082 56.2832L31.6485 57.8863C31.6274 57.7978 31.613 57.7338 31.6015 57.6825L31.6012 57.6814C31.5896 57.6298 31.581 57.5912 31.5712 57.5534C31.5164 57.3644 31.4621 57.1754 31.4078 56.9864L31.404 56.9731C31.242 56.4091 31.0802 55.8459 30.9082 55.2879C30.8354 55.0559 30.8643 54.9051 31.0641 54.7438C31.5453 54.3572 32.0151 53.9555 32.4847 53.554C32.6124 53.4448 32.7404 53.3354 32.8683 53.2265C32.912 53.1882 32.9464 53.1406 32.9892 53.0813L33.0173 53.0427L33.0375 53.0154L33.0542 52.9933C32.0332 52.9562 31.071 52.9214 30.1019 52.8878C29.9227 52.4458 29.7453 52.0097 29.5657 51.5679L28.9619 50.0817C28.9278 50.1684 28.8985 50.2407 28.8726 50.3046C28.8574 50.342 28.8434 50.3765 28.8303 50.4093C28.8104 50.4592 28.7926 50.5052 28.7759 50.5515C28.7177 50.7137 28.6591 50.8758 28.6006 51.0378C28.4059 51.5765 28.2111 52.1151 28.0309 52.6581C27.9559 52.8843 27.8369 52.9643 27.6082 52.9748C27.1746 52.9936 26.7409 53.0233 26.3073 53.0529C26.1542 53.0634 26.001 53.0738 25.8479 53.0838C25.566 53.1024 25.2842 53.1302 24.9204 53.1755C24.9863 53.229 25.042 53.2748 25.0912 53.3153C25.1828 53.3905 25.2522 53.4475 25.3235 53.5026C25.3972 53.5597 25.4707 53.6169 25.5442 53.6741C25.6369 53.7464 25.7295 53.8188 25.8221 53.8912C26.2303 54.2102 26.6392 54.5298 27.0561 54.8389C27.2467 54.9793 27.2894 55.1243 27.227 55.3424C27.1358 55.6573 27.0577 55.9775 26.9797 56.2969L26.944 56.4432C26.8723 56.7333 26.8031 57.0238 26.729 57.3349L26.7274 57.3416C26.6778 57.5498 26.626 57.7672 26.5698 58L27.2213 57.5551C27.8614 57.118 28.4685 56.7035 29.082 56.2832Z" fill="#FF9C00"/>
<path d="M4.04037 25.0576C4.20901 25.4741 4.34531 25.8082 4.4816 26.1434C4.49765 26.1832 4.51398 26.2228 4.53051 26.2624C4.5357 26.2749 4.54091 26.2873 4.54613 26.2997C4.55741 26.3266 4.56878 26.3534 4.58019 26.3802L4.63875 26.5171C4.76343 26.8077 4.88812 27.0983 4.97712 27.3997C5.09608 27.7976 5.32133 27.8985 5.70942 27.8927C6.21349 27.8842 6.71819 27.9051 7.2226 27.926C7.40475 27.9336 7.58685 27.9411 7.76888 27.9473C7.83604 27.9487 7.90321 27.9552 7.99579 27.964C8.05127 27.9693 8.11588 27.9755 8.19509 27.9821C7.89747 28.2337 7.60937 28.4773 7.32579 28.7171C6.92828 29.0534 6.53964 29.3822 6.14611 29.7151L5.89653 29.9263L6.2309 31.0886C6.3894 31.6399 6.54799 32.1915 6.70738 32.744C6.6866 32.7637 6.66695 32.7846 6.64732 32.8066C5.82377 32.2916 5.00137 31.7777 4.15819 31.2545C3.74319 31.5373 3.33029 31.8197 2.90822 32.1085C2.50092 32.3871 2.08508 32.6716 1.65057 32.9678C1.67577 32.8591 1.69905 32.7577 1.72111 32.6617C1.77389 32.4319 1.81966 32.2327 1.86772 32.0364C1.8999 31.9034 1.93134 31.7704 1.96275 31.6375C2.06099 31.2219 2.15901 30.8071 2.27891 30.3984C2.36092 30.1142 2.32166 29.939 2.07101 29.7604C1.65735 29.4635 1.25765 29.149 0.857394 28.834C0.705546 28.7145 0.553613 28.5949 0.400802 28.4762C0.338334 28.4275 0.277395 28.3765 0.201062 28.3126C0.144775 28.2654 0.0798242 28.211 0 28.1456C0.0461268 28.1405 0.0902291 28.1354 0.13262 28.1305L0.269709 28.1141L0.271291 28.1139C0.435554 28.0941 0.575844 28.0771 0.716134 28.0679L0.899931 28.0546L0.901443 28.0545C1.46937 28.0135 2.03805 27.9725 2.6058 27.9484C2.89571 27.9368 3.04818 27.8278 3.14059 27.5378C3.30557 27.015 3.49348 26.4997 3.68113 25.9851C3.73905 25.8262 3.79722 25.6666 3.8544 25.5077C3.8845 25.4203 3.9211 25.3355 3.9683 25.2262C3.98996 25.1761 4.01385 25.1208 4.04037 25.0576Z" fill="#FF9C00"/>
<path d="M16.6175 52.9469C17.463 53.4736 18.2831 53.9851 19.1886 54.5501C19.1737 54.4885 19.1618 54.4387 19.1518 54.3967C19.1324 54.3156 19.1199 54.2629 19.1055 54.2102C19.0453 54.0036 18.9857 53.7965 18.9261 53.5893L18.9255 53.5872C18.7676 53.0389 18.6093 52.4894 18.4402 51.9435C18.3685 51.7115 18.409 51.5584 18.603 51.4006C19.0142 51.0682 19.4169 50.7267 19.8195 50.3854L19.8205 50.3845L20.0403 50.1982C20.1206 50.1303 20.2009 50.0624 20.2813 49.9947C20.3516 49.9337 20.4191 49.8706 20.4864 49.8075C20.5166 49.7793 20.5467 49.7512 20.577 49.7232C20.3506 49.6339 20.1462 49.6235 19.9417 49.6177L19.7185 49.6119C19.1207 49.5963 18.5227 49.5807 17.9239 49.5724C17.7125 49.5701 17.5935 49.4912 17.523 49.2871C17.4518 49.0822 17.3681 48.882 17.2847 48.6823C17.249 48.597 17.2134 48.5117 17.1788 48.4263C17.014 48.0157 16.8486 47.6058 16.683 47.1954L16.6803 47.1889L16.5355 46.8301C16.5077 46.829 16.4823 46.8255 16.4569 46.8232C16.2353 47.4375 16.0142 48.0533 15.7915 48.6735L15.459 49.5991C14.9744 49.6352 14.4937 49.6715 14.0038 49.7086C13.5012 49.7466 12.9888 49.7854 12.4524 49.8253C12.5178 49.8804 12.5719 49.9267 12.6188 49.9668C12.6993 50.0357 12.7592 50.087 12.8197 50.1339C12.9587 50.242 13.0974 50.3504 13.236 50.4588C13.6848 50.8095 14.1327 51.1595 14.5881 51.4981C14.774 51.6384 14.8272 51.7753 14.7659 51.998C14.6312 52.4898 14.5097 52.9823 14.388 53.4756L14.3085 53.7972C14.2725 53.9447 14.2395 54.0918 14.2023 54.258L14.2021 54.259L14.2012 54.2627C14.1743 54.3828 14.1452 54.5129 14.111 54.6603C15.0016 54.0524 15.8055 53.5026 16.6175 52.9469Z" fill="#FF9C00"/>
<path d="M4.99939 20.3062L5.0889 19.9421C5.28674 19.1374 5.48537 18.3295 5.69012 17.4908C5.26607 17.1605 4.84167 16.8292 4.41691 16.4975L4.41031 16.4923C4.06903 16.2259 3.72752 15.9592 3.38579 15.6928L3.40311 15.6093C3.83624 15.5766 4.26959 15.5441 4.70401 15.5116C5.24041 15.4714 5.77842 15.4311 6.31962 15.39C6.6161 14.5661 6.90366 13.7628 7.2129 12.8989L7.21423 12.8952L7.34184 12.5387C7.5803 13.0568 7.78176 13.5652 7.97961 14.0645C8.15163 14.4987 8.32108 14.9264 8.5096 15.3471C9.44233 15.3759 10.3645 15.4037 11.2852 15.4314L11.4134 15.4353C11.4261 15.4631 11.4388 15.491 11.4515 15.52C10.7088 16.1487 9.96727 16.7763 9.21533 17.412L9.41133 18.0893C9.61915 18.8078 9.82374 19.5151 10.0296 20.2204C10.0077 20.2412 9.98575 20.2621 9.96496 20.283L8.81943 19.5707C8.37565 19.2949 7.92939 19.0175 7.47814 18.7367C6.90918 19.1258 6.34428 19.5127 5.78097 19.8984L5.08372 20.3758C5.07637 20.37 5.06902 20.364 5.06165 20.3579C5.05378 20.3513 5.04587 20.3447 5.03792 20.338C5.02524 20.3274 5.01243 20.3167 4.99939 20.3062Z" fill="#FF9C00"/>
<path d="M7.75543 38.5446C7.63359 38.2449 7.51174 37.9452 7.38977 37.6451C7.36205 37.6497 7.33433 37.6543 7.3043 37.6567C7.21761 37.902 7.12965 38.1471 7.04168 38.3922C6.84009 38.9539 6.63842 39.5158 6.45187 40.0811C6.36177 40.3514 6.22086 40.4581 5.94249 40.4662C5.46245 40.4833 4.98086 40.5175 4.50025 40.5516C4.3934 40.5592 4.2866 40.5667 4.17988 40.5741C4.02513 40.5866 3.8708 40.6016 3.71638 40.6166C3.61262 40.6266 3.50882 40.6367 3.40484 40.646C3.39676 40.6739 3.38868 40.6982 3.37943 40.7249C4.14337 41.3173 4.90616 41.9097 5.66895 42.5021L5.68838 42.5172C5.62109 42.7938 5.55436 43.0679 5.48808 43.3401C5.3223 44.021 5.15939 44.6901 4.99766 45.3581C5.01216 45.3686 5.02703 45.3785 5.04207 45.3884C5.05338 45.3959 5.06479 45.4034 5.0762 45.4114L7.47756 43.7688C7.85329 43.9978 8.21853 44.2276 8.57957 44.4548C9.03983 44.7445 9.49324 45.0299 9.95283 45.3035C9.97593 45.2838 10.0002 45.2618 10.0244 45.2397C9.75648 44.3152 9.4885 43.3872 9.21706 42.4429C9.36775 42.3151 9.51704 42.1895 9.66502 42.0651C9.89698 41.87 10.1257 41.6776 10.3513 41.4836C10.4663 41.3839 10.5836 41.2868 10.7031 41.1879C10.9618 40.9738 11.2302 40.7516 11.5052 40.4778C10.9396 40.4586 10.4007 40.4397 9.87131 40.4212C9.4104 40.405 8.95663 40.3891 8.49862 40.3734C8.2502 39.7618 8.00282 39.1532 7.75543 38.5446Z" fill="#FF9C00"/>
<path d="M72.324 12.4H76.86V28.304H86.688V32H72.324V12.4ZM89.2224 12.4H93.7584V32H89.2224V12.4ZM112.802 21.808C113.922 22.1627 114.799 22.76 115.434 23.6C116.069 24.4213 116.386 25.4387 116.386 26.652C116.386 28.3693 115.714 29.6947 114.37 30.628C113.045 31.5427 111.103 32 108.546 32H98.4099V12.4H107.986C110.375 12.4 112.205 12.8573 113.474 13.772C114.762 14.6867 115.406 15.928 115.406 17.496C115.406 18.448 115.173 19.2973 114.706 20.044C114.258 20.7907 113.623 21.3787 112.802 21.808ZM102.918 15.816V20.436H107.426C108.546 20.436 109.395 20.24 109.974 19.848C110.553 19.456 110.842 18.8773 110.842 18.112C110.842 17.3467 110.553 16.7773 109.974 16.404C109.395 16.012 108.546 15.816 107.426 15.816H102.918ZM108.21 28.584C109.405 28.584 110.301 28.388 110.898 27.996C111.514 27.604 111.822 26.9973 111.822 26.176C111.822 24.552 110.618 23.74 108.21 23.74H102.918V28.584H108.21ZM134.996 28.36V32H119.82V12.4H134.632V16.04H124.328V20.296H133.428V23.824H124.328V28.36H134.996ZM142.665 16.096H136.393V12.4H153.473V16.096H147.201V32H142.665V16.096ZM171.09 28.36V32H155.914V12.4H170.726V16.04H160.422V20.296H169.522V23.824H160.422V28.36H171.09Z" fill="#333333"/>
<path d="M73.408 39.709H71.728V39.1H75.781V39.709H74.101V44H73.408V39.709ZM80.7644 44L79.7074 42.495C79.5767 42.5043 79.4741 42.509 79.3994 42.509H78.1884V44H77.4884V39.1H79.3994C80.0341 39.1 80.5334 39.2517 80.8974 39.555C81.2614 39.8583 81.4434 40.276 81.4434 40.808C81.4434 41.186 81.3501 41.508 81.1634 41.774C80.9767 42.04 80.7107 42.2337 80.3654 42.355L81.5274 44H80.7644ZM79.3784 41.914C79.8217 41.914 80.1601 41.8183 80.3934 41.627C80.6267 41.4357 80.7434 41.1627 80.7434 40.808C80.7434 40.4533 80.6267 40.1827 80.3934 39.996C80.1601 39.8047 79.8217 39.709 79.3784 39.709H78.1884V41.914H79.3784ZM86.6413 42.775H84.0373L83.4983 44H82.7773L84.9963 39.1H85.6893L87.9153 44H87.1803L86.6413 42.775ZM86.3963 42.215L85.3393 39.814L84.2823 42.215H86.3963ZM93.8053 39.1V44H93.2313L90.2913 40.346V44H89.5913V39.1H90.1653L93.1053 42.754V39.1H93.8053ZM97.645 44.056C97.2763 44.056 96.9193 44 96.574 43.888C96.2333 43.7713 95.965 43.622 95.769 43.44L96.028 42.894C96.2146 43.062 96.4526 43.1997 96.742 43.307C97.036 43.4097 97.337 43.461 97.645 43.461C98.051 43.461 98.3543 43.3933 98.555 43.258C98.7556 43.118 98.856 42.9337 98.856 42.705C98.856 42.537 98.8 42.4017 98.688 42.299C98.5806 42.1917 98.4453 42.11 98.282 42.054C98.1233 41.998 97.897 41.935 97.603 41.865C97.2343 41.7763 96.9356 41.6877 96.707 41.599C96.483 41.5103 96.2893 41.375 96.126 41.193C95.9673 41.0063 95.888 40.7567 95.888 40.444C95.888 40.1827 95.9556 39.947 96.091 39.737C96.231 39.527 96.441 39.359 96.721 39.233C97.001 39.107 97.3486 39.044 97.764 39.044C98.0533 39.044 98.338 39.0813 98.618 39.156C98.898 39.2307 99.1383 39.338 99.339 39.478L99.108 40.038C98.9026 39.9073 98.6833 39.8093 98.45 39.744C98.2166 39.674 97.988 39.639 97.764 39.639C97.3673 39.639 97.0686 39.7113 96.868 39.856C96.672 40.0007 96.574 40.1873 96.574 40.416C96.574 40.584 96.63 40.7217 96.742 40.829C96.854 40.9317 96.9916 41.0133 97.155 41.074C97.323 41.13 97.5493 41.1907 97.834 41.256C98.2026 41.3447 98.499 41.4333 98.723 41.522C98.947 41.6107 99.1383 41.746 99.297 41.928C99.4603 42.11 99.542 42.355 99.542 42.663C99.542 42.9197 99.472 43.1553 99.332 43.37C99.192 43.58 98.9796 43.748 98.695 43.874C98.4103 43.9953 98.0603 44.056 97.645 44.056ZM101.51 39.1H102.21V43.391H104.863V44H101.51V39.1ZM109.753 42.775H107.149L106.61 44H105.889L108.108 39.1H108.801L111.027 44H110.292L109.753 42.775ZM109.508 42.215L108.451 39.814L107.394 42.215H109.508ZM113.43 39.709H111.75V39.1H115.803V39.709H114.123V44H113.43V39.709ZM117.511 39.1H118.211V44H117.511V39.1ZM122.835 44.056C122.34 44.056 121.894 43.9487 121.498 43.734C121.101 43.5147 120.788 43.2137 120.56 42.831C120.336 42.4483 120.224 42.0213 120.224 41.55C120.224 41.0787 120.336 40.6517 120.56 40.269C120.788 39.8863 121.101 39.5877 121.498 39.373C121.894 39.1537 122.34 39.044 122.835 39.044C123.325 39.044 123.768 39.1537 124.165 39.373C124.561 39.5877 124.872 39.8863 125.096 40.269C125.32 40.647 125.432 41.074 125.432 41.55C125.432 42.026 125.32 42.4553 125.096 42.838C124.872 43.216 124.561 43.5147 124.165 43.734C123.768 43.9487 123.325 44.056 122.835 44.056ZM122.835 43.433C123.194 43.433 123.516 43.3513 123.801 43.188C124.09 43.0247 124.316 42.8007 124.48 42.516C124.648 42.2267 124.732 41.9047 124.732 41.55C124.732 41.1953 124.648 40.8757 124.48 40.591C124.316 40.3017 124.09 40.0753 123.801 39.912C123.516 39.7487 123.194 39.667 122.835 39.667C122.475 39.667 122.149 39.7487 121.855 39.912C121.565 40.0753 121.337 40.3017 121.169 40.591C121.005 40.8757 120.924 41.1953 120.924 41.55C120.924 41.9047 121.005 42.2267 121.169 42.516C121.337 42.8007 121.565 43.0247 121.855 43.188C122.149 43.3513 122.475 43.433 122.835 43.433ZM131.661 39.1V44H131.087L128.147 40.346V44H127.447V39.1H128.021L130.961 42.754V39.1H131.661ZM140.019 42.775H137.415L136.876 44H136.155L138.374 39.1H139.067L141.293 44H140.558L140.019 42.775ZM139.774 42.215L138.717 39.814L137.66 42.215H139.774ZM146.296 41.522H146.968V43.433C146.725 43.6337 146.443 43.7877 146.121 43.895C145.799 44.0023 145.463 44.056 145.113 44.056C144.618 44.056 144.172 43.9487 143.776 43.734C143.379 43.5147 143.066 43.216 142.838 42.838C142.614 42.4553 142.502 42.026 142.502 41.55C142.502 41.074 142.614 40.6447 142.838 40.262C143.066 39.8793 143.379 39.5807 143.776 39.366C144.177 39.1513 144.627 39.044 145.127 39.044C145.519 39.044 145.873 39.1093 146.191 39.24C146.513 39.366 146.786 39.5527 147.01 39.8L146.576 40.234C146.184 39.856 145.71 39.667 145.155 39.667C144.781 39.667 144.445 39.7487 144.147 39.912C143.853 40.0707 143.622 40.2947 143.454 40.584C143.286 40.8687 143.202 41.1907 143.202 41.55C143.202 41.9047 143.286 42.2267 143.454 42.516C143.622 42.8007 143.853 43.0247 144.147 43.188C144.445 43.3513 144.779 43.433 145.148 43.433C145.586 43.433 145.969 43.328 146.296 43.118V41.522ZM152.809 43.391V44H149.253V39.1H152.711V39.709H149.953V41.214H152.41V41.809H149.953V43.391H152.809ZM159.101 39.1V44H158.527L155.587 40.346V44H154.887V39.1H155.461L158.401 42.754V39.1H159.101ZM163.704 44.056C163.214 44.056 162.771 43.9487 162.374 43.734C161.982 43.5147 161.674 43.216 161.45 42.838C161.226 42.4553 161.114 42.026 161.114 41.55C161.114 41.074 161.226 40.647 161.45 40.269C161.674 39.8863 161.984 39.5877 162.381 39.373C162.778 39.1537 163.221 39.044 163.711 39.044C164.094 39.044 164.444 39.1093 164.761 39.24C165.078 39.366 165.349 39.555 165.573 39.807L165.118 40.248C164.749 39.8607 164.29 39.667 163.739 39.667C163.375 39.667 163.046 39.7487 162.752 39.912C162.458 40.0753 162.227 40.3017 162.059 40.591C161.896 40.8757 161.814 41.1953 161.814 41.55C161.814 41.9047 161.896 42.2267 162.059 42.516C162.227 42.8007 162.458 43.0247 162.752 43.188C163.046 43.3513 163.375 43.433 163.739 43.433C164.285 43.433 164.745 43.237 165.118 42.845L165.573 43.286C165.349 43.538 165.076 43.7293 164.754 43.86C164.437 43.9907 164.087 44.056 163.704 44.056ZM169.311 42.306V44H168.618V42.292L166.672 39.1H167.421L168.989 41.683L170.564 39.1H171.257L169.311 42.306Z" fill="#333333"/>
</svg>
