<svg width="42" height="52" viewBox="0 0 42 52" fill="none" xmlns="http://www.w3.org/2000/svg">
<path fill-rule="evenodd" clip-rule="evenodd" d="M0.70823 0.345711C1.82401 0.345711 2.94441 0.313229 4.0625 0.35267C7.1719 0.459392 10.2836 0.705319 13.3907 0.696038C16.9205 0.686758 20.4527 0.457072 23.9825 0.341069C24.2482 0.331789 24.6987 0.0649856 24.7287 0.760999C24.0149 0.872362 23.3057 0.974443 22.5965 1.09973C22.0744 1.19021 21.55 1.29461 21.0371 1.43381C18.2766 2.16463 16.9714 3.73762 16.8235 6.60519C16.7126 8.71644 16.6572 10.8277 16.6433 12.9366C16.5971 18.797 16.5763 24.6551 16.5694 30.5156C16.5671 34.3158 16.5948 38.1184 16.6456 41.9233C16.6572 42.7306 16.7635 43.5542 16.939 44.3407C17.468 46.7049 19.0458 47.9971 21.3421 48.4287C22.1876 48.5864 23.07 48.5841 23.9363 48.5748C25.7012 48.5539 27.4685 48.5284 29.2311 48.4194C30.7927 48.3266 32.3613 48.1781 33.9067 47.9415C36.1175 47.605 37.8131 46.4009 38.9358 44.4753C39.6127 43.313 40.1325 42.0625 40.7146 40.8444C40.8717 40.5219 40.9895 40.1739 41.1281 39.8259C41.5878 39.8491 41.7357 40.0162 41.6363 40.4709C41.1789 42.5868 40.7493 44.7143 40.308 46.8325C40.1671 47.5238 40.0216 48.2083 39.8737 48.8973C39.8206 49.1456 39.7675 49.3961 39.6935 49.6328C39.1992 51.1733 38.5385 51.7069 36.9122 51.6814C33.6318 51.6257 30.3492 51.5561 27.0734 51.4122C21.185 51.1524 15.3012 51.1385 9.41501 51.4146C6.61516 51.5491 3.80839 51.5932 1.00623 51.6744C0.814494 51.6814 0.620446 51.6744 0.435638 51.6744C0.193077 51.1849 0.495699 51.1037 0.814493 51.0457C1.6161 50.9088 2.42233 50.7974 3.217 50.642C3.82456 50.5237 4.4275 50.3914 5.01426 50.2058C7.5369 49.3915 8.73122 47.8533 8.89524 45.1899C8.95761 44.1505 8.98533 43.1065 8.98764 42.0625C8.99457 32.1489 9.00381 22.233 8.98071 12.3148C8.97609 10.2616 8.89755 8.20603 8.74508 6.15743C8.58106 3.94178 7.37519 2.43143 5.27069 1.74702C4.18263 1.39437 3.04375 1.20181 1.92566 0.946603C1.59762 0.872361 1.25803 0.851481 0.93231 0.765639C0.814495 0.735479 0.729021 0.584676 0.627377 0.487234C0.652788 0.443153 0.680509 0.394432 0.70823 0.345711ZM12.2518 49.533C12.2518 33.7822 12.2518 18.1126 12.2518 2.41751C11.4618 2.41751 10.7248 2.41751 9.98329 2.41751C9.98329 18.1521 9.98329 33.8193 9.98329 49.533C10.7526 49.533 11.4664 49.533 12.2518 49.533Z" fill="#333333"/>
</svg>
