<svg width="60" height="44" viewBox="0 0 60 44" fill="none" xmlns="http://www.w3.org/2000/svg">
<path d="M0 43.1041C0 43.1041 3.55039 37.6515 4.81275 36.1895C9.36251 31.4745 0.802127 8.66291 6.32495 5.01464C11.8478 1.36637 51.7305 -3.20384 56.0961 5.01464C60.4487 13.2331 62.6578 38.6261 54.5576 42.1822C46.4575 45.7251 14.5566 43.1963 11.0194 42.0505C5.07574 40.1012 0 43.1041 0 43.1041Z" fill="#FF9C00"/>
<path fill-rule="evenodd" clip-rule="evenodd" d="M19 12.5L21.5 9.5L31.5 19.5L41 10L44 13L34.3979 22.3978L44.5 32.5L42 36.5L31.347 25.3838L20.5 36L18 33L28.5426 22.4574L19 12.5Z" fill="white"/>
</svg>
