<svg width="60" height="44" viewBox="0 0 60 44" fill="none" xmlns="http://www.w3.org/2000/svg">
<path d="M0 43.1041C0 43.1041 3.55039 37.6515 4.81275 36.1895C9.36251 31.4745 0.802127 8.66291 6.32495 5.01464C11.8478 1.36637 51.7305 -3.20384 56.0961 5.01464C60.4487 13.2331 62.6578 38.6261 54.5576 42.1822C46.4575 45.7251 14.5566 43.1963 11.0194 42.0505C5.07574 40.1012 0 43.1041 0 43.1041Z" fill="#FF9C00"/>
<path d="M18.8169 22.7032C18.8169 22.7032 29.4812 18.5282 29.6916 9.58529C31.0855 3.81655 33.597 7.34628 33.597 7.34628C33.597 7.34628 35.793 13.6155 33.597 18.2384C37.5288 19.0023 40.1718 18.594 43.0647 19.9111C45.8656 21.1886 45.1424 28.9461 40.2113 35.2812C36.7135 39.7856 19.7505 34.728 19.7505 34.728L18.8169 22.7032Z" fill="white"/>
</svg>
