<svg width="60" height="60" viewBox="0 0 60 60" fill="none" xmlns="http://www.w3.org/2000/svg">
<path d="M32.0715 0L41.16 18.6362L60 25.1397L45.8506 40.0922L45.1883 60L27.2932 51.2729L8.10663 56.405L11.133 36.7265L0 19.3227L19.7033 16.5556L32.0715 0Z" fill="#333333"/>
<mask id="mask0" mask-type="alpha" maskUnits="userSpaceOnUse" x="3" y="3" width="54" height="54">
<path fill-rule="evenodd" clip-rule="evenodd" d="M39.7254 20.2566L56.4156 26.0181L43.8772 39.2681L43.2923 56.8501L27.4986 49.1477L10.5493 53.6814L13.2249 36.2847L3.36426 20.8699L20.8071 18.4202L31.7116 3.82397L39.7254 20.2566Z" fill="#00C158"/>
</mask>
<g mask="url(#mask0)">
<path d="M0 41H60V60H0V41Z" fill="#006600"/>
<path d="M0 19H60V41H0V19Z" fill="white"/>
<path d="M0 0H60V19H0V0Z" fill="#CC0000"/>
<path d="M30 24L29 25L30 26L31 25L30 24Z" fill="#FFD100"/>
<path d="M22.5 34.0001L23 37.0001H37L37.5 34.0001L36 35.0001L35 34.0001L33 35.0001L30.5 34.0001V30L31.5 29L30 28L28.5 29L29.5 30V34L27 35.0001L25 34.0001L24 35.0001L22.5 34.0001Z" fill="#FFD100"/>
<path d="M25 26L26 25L27 26L26 27L25 26Z" fill="#FFD100"/>
<path d="M34 25L33 26L34 27L35 26L34 25Z" fill="#FFD100"/>
<path d="M23 29L24 28L25 29L24 30L23 29Z" fill="#FFD100"/>
<path d="M36 28L35 29L36 30L37 29L36 28Z" fill="#FFD100"/>
<path d="M22 32L23 31L24 32L23 33L22 32Z" fill="#FFD100"/>
<path d="M37 31L36 32L37 33L38 32L37 31Z" fill="#FFD100"/>
</g>
</svg>
