<svg width="60" height="60" viewBox="0 0 60 60" fill="none" xmlns="http://www.w3.org/2000/svg">
<path d="M32.0715 0L41.16 18.6362L60 25.1397L45.8506 40.0922L45.1883 60L27.2932 51.2729L8.10663 56.405L11.133 36.7265L0 19.3227L19.7033 16.5556L32.0715 0Z" fill="#333333"/>
<mask id="mask0" mask-type="alpha" maskUnits="userSpaceOnUse" x="3" y="3" width="54" height="54">
<path fill-rule="evenodd" clip-rule="evenodd" d="M39.7254 20.2566L56.4156 26.0181L43.8772 39.2681L43.2923 56.8501L27.4986 49.1477L10.5493 53.6814L13.2249 36.2847L3.36426 20.8699L20.8071 18.4202L31.7116 3.82397L39.7254 20.2566Z" fill="#00C158"/>
</mask>
<g mask="url(#mask0)">
<path d="M0 0H60V60H0V0Z" fill="white"/>
<path d="M34 26V0H26L26 26H0V34H26L26 60H34V34H60V26H34Z" fill="#FF0100"/>
<path d="M16.5 41H13.5L13.8571 43.8571L11 43.5V46.5L13.8571 46.1429L13.5 49H16.5L16.1429 46.1429L19 46.5V43.5L16.1429 43.8571L16.5 41Z" fill="#FF0100"/>
<path d="M16.5 11H13.5L13.8571 13.8571L11 13.5V16.5L13.8571 16.1429L13.5 19H16.5L16.1429 16.1429L19 16.5V13.5L16.1429 13.8571L16.5 11Z" fill="#FF0100"/>
<path d="M46.5 41H43.5L43.8571 43.8571L41 43.5V46.5L43.8571 46.1429L43.5 49H46.5L46.1429 46.1429L49 46.5V43.5L46.1429 43.8571L46.5 41Z" fill="#FF0100"/>
<path d="M46.5 11H43.5L43.8571 13.8571L41 13.5V16.5L43.8571 16.1429L43.5 19H46.5L46.1429 16.1429L49 16.5V13.5L46.1429 13.8571L46.5 11Z" fill="#FF0100"/>
</g>
</svg>
