<svg width="60" height="60" viewBox="0 0 60 60" fill="none" xmlns="http://www.w3.org/2000/svg">
<path d="M32.0715 0L41.16 18.6362L60 25.1397L45.8506 40.0922L45.1883 60L27.2932 51.2729L8.10663 56.405L11.133 36.7265L0 19.3227L19.7033 16.5556L32.0715 0Z" fill="#333333"/>
<mask id="mask0" mask-type="alpha" maskUnits="userSpaceOnUse" x="3" y="3" width="54" height="54">
<path fill-rule="evenodd" clip-rule="evenodd" d="M39.7254 20.2566L56.4156 26.0181L43.8772 39.2681L43.2923 56.8501L27.4986 49.1477L10.5493 53.6814L13.2249 36.2847L3.36426 20.8699L20.8071 18.4202L31.7116 3.82397L39.7254 20.2566Z" fill="#00C158"/>
</mask>
<g mask="url(#mask0)">
<path d="M0 0H60V60H0V0Z" fill="#E8122B"/>
<path fill-rule="evenodd" clip-rule="evenodd" d="M30 43C37.1797 43 43 37.1797 43 30C43 22.8203 37.1797 17 30 17C22.8203 17 17 22.8203 17 30C17 37.1797 22.8203 43 30 43ZM30 40C35.5228 40 40 35.5228 40 30C40 24.4772 35.5228 20 30 20C24.4772 20 20 24.4772 20 30C20 35.5228 24.4772 40 30 40Z" fill="#FAF300"/>
<path fill-rule="evenodd" clip-rule="evenodd" d="M35.9371 36.7641C34.3526 38.156 32.2748 39 30 39C27.7252 39 25.6474 38.156 24.0629 36.7641C24.4638 32.8455 26.7502 29.4853 30 27.6054C33.2498 29.4853 35.5362 32.8455 35.9371 36.7641ZM36.8257 35.8662C36.2171 32.1802 34.0578 29.0172 31.0404 27.0696C32.5521 26.3826 34.2314 26 36 26C36.7366 26 37.4578 26.0664 38.1578 26.1935C38.6981 27.3496 39 28.6395 39 30C39 32.2411 38.1809 34.2908 36.8257 35.8662ZM22.4556 25.0908C24.0614 22.628 26.8406 21 30 21C33.1594 21 35.9386 22.628 37.5444 25.0908C37.038 25.0308 36.5226 25 36 25C33.8357 25 31.795 25.5289 30 26.4644C28.205 25.5289 26.1643 25 24 25C23.4774 25 22.962 25.0308 22.4556 25.0908ZM21.8422 26.1935C21.3019 27.3496 21 28.6395 21 30C21 32.2411 21.8191 34.2908 23.1743 35.8662C23.7829 32.1802 25.9422 29.0172 28.9596 27.0696C27.4479 26.3826 25.7686 26 24 26C23.2634 26 22.5422 26.0664 21.8422 26.1935Z" fill="#FAF300"/>
</g>
</svg>
