<svg width="60" height="60" viewBox="0 0 60 60" fill="none" xmlns="http://www.w3.org/2000/svg">
<path d="M32.0715 0L41.16 18.6362L60 25.1397L45.8506 40.0922L45.1883 60L27.2932 51.2729L8.10663 56.405L11.133 36.7265L0 19.3227L19.7033 16.5556L32.0715 0Z" fill="#333333"/>
<mask id="mask0" mask-type="alpha" maskUnits="userSpaceOnUse" x="3" y="3" width="54" height="54">
<path fill-rule="evenodd" clip-rule="evenodd" d="M39.7254 20.2566L56.4156 26.0181L43.8772 39.2681L43.2923 56.8501L27.4986 49.1477L10.5493 53.6814L13.2249 36.2847L3.36426 20.8699L20.8071 18.4202L31.7116 3.82397L39.7254 20.2566Z" fill="#00C158"/>
</mask>
<g mask="url(#mask0)">
<path d="M0 0H60V60H0V0Z" fill="#28AE66"/>
<path d="M10 0H18V60H10V0Z" fill="#CB3644"/>
<path fill-rule="evenodd" clip-rule="evenodd" d="M26.0003 25.0001C29.314 25.0001 32.0003 22.3138 32.0003 19.0001C32.0003 17.0233 31.0443 15.2698 29.5695 14.1766C32.6799 14.889 35.0002 17.6736 35.0002 21.0001C35.0002 24.866 31.8662 28.0001 28.0002 28.0001C24.6737 28.0001 21.8891 25.6797 21.1768 22.5691C22.2699 24.044 24.0234 25.0001 26.0003 25.0001Z" fill="white"/>
<path d="M22 20L23 19L24 20L23 21L22 20Z" fill="white"/>
<path d="M26 16L27 15L28 16L27 17L26 16Z" fill="white"/>
<path d="M23 17L24 16L25 17L24 18L23 17Z" fill="white"/>
<path d="M20 18L21 17L22 18L21 19L20 18Z" fill="white"/>
<path d="M24 14L25 13L26 14L25 15L24 14Z" fill="white"/>
</g>
</svg>
