<svg width="60" height="60" viewBox="0 0 60 60" fill="none" xmlns="http://www.w3.org/2000/svg">
<path d="M32.0715 0L41.16 18.6362L60 25.1397L45.8506 40.0922L45.1883 60L27.2932 51.2729L8.10663 56.405L11.133 36.7265L0 19.3227L19.7033 16.5556L32.0715 0Z" fill="#333333"/>
<mask id="mask0" mask-type="alpha" maskUnits="userSpaceOnUse" x="3" y="3" width="54" height="54">
<path fill-rule="evenodd" clip-rule="evenodd" d="M39.7254 20.2566L56.4156 26.0181L43.8772 39.2681L43.2923 56.8501L27.4986 49.1477L10.5493 53.6814L13.2249 36.2847L3.36426 20.8699L20.8071 18.4202L31.7116 3.82397L39.7254 20.2566Z" fill="#00C158"/>
</mask>
<g mask="url(#mask0)">
<path d="M0 40H60V60H0V40Z" fill="#409C34"/>
<path d="M0 20H60V40H0V20Z" fill="#ED2939"/>
<path d="M0 20H60V40H0V20Z" fill="#ED2939"/>
<path d="M0 0H60V20H0V0Z" fill="#01B9E6"/>
<path fill-rule="evenodd" clip-rule="evenodd" d="M36.832 24.1411C35.7311 23.4196 34.4145 23 33 23C29.134 23 26 26.134 26 30C26 33.866 29.134 37 33 37C34.4145 37 35.7311 36.5804 36.832 35.8589C35.1814 37.7819 32.7329 39 30 39C25.0294 39 21 34.9706 21 30C21 25.0294 25.0294 21 30 21C32.7329 21 35.1814 22.2181 36.832 24.1411Z" fill="white"/>
<path d="M36 30L37 35L38 30L37 25L36 30Z" fill="white"/>
<path d="M36.2929 29.2929L33.4645 33.5355L37.7071 30.7071L40.5355 26.4644L36.2929 29.2929Z" fill="white"/>
<path d="M37 29L32 30L37 31L42 30L37 29Z" fill="white"/>
<path d="M37.7071 29.2928L33.4645 26.4644L36.2929 30.707L40.5355 33.5355L37.7071 29.2928Z" fill="white"/>
</g>
</svg>
