<svg width="260" height="90" viewBox="0 0 260 90" fill="none" xmlns="http://www.w3.org/2000/svg">
<path d="M51.0938 18.1055H90.4439V27.4118L77.2835 20.9239L51.0938 33.8665V18.1055Z" fill="#465A65"/>
<path d="M114.23 52.0643H123.737V58.1156H106.492V37.7235H114.23V52.0643ZM134.014 53.2801H144.133V58.1156H126.32V37.7235H143.926V42.5148H134.009V45.4824H143.478V50.108H134.009L134.014 53.2801ZM184.87 39.9616C185.55 40.614 186.087 41.4027 186.448 42.2772C186.809 43.1517 186.986 44.0928 186.967 45.0403C186.967 46.9082 186.323 48.533 185.034 49.8316C183.461 51.4122 181.244 52.2245 178.345 52.2245H174.113V58.1156H166.375V37.7235H178.225C181.086 37.7235 183.303 38.4972 184.87 39.9616ZM179.147 45.0016C179.147 44.228 178.951 43.6588 178.503 43.2553C178.066 42.8464 177.416 42.6032 176.532 42.5203C176.248 42.4816 175.931 42.443 175.603 42.443H173.911V47.5161H175.603C175.964 47.5161 176.248 47.4774 176.532 47.4774C177.012 47.4332 177.416 47.3116 177.739 47.1901C178.705 46.7866 179.147 46.0572 179.147 45.0016ZM162.907 47.7648C163.797 48.7319 164.24 50.0306 164.24 51.6166C164.24 53.3243 163.677 54.7445 162.585 55.883C160.974 57.5851 158.233 58.4361 154.367 58.4361C153.116 58.4361 151.745 58.3974 150.337 58.2372C148.882 58.1079 147.439 57.8621 146.023 57.5022V52.1859C146.989 52.5893 148.081 52.9153 149.244 53.1585C150.418 53.4459 151.669 53.5674 152.958 53.5674C154.203 53.5674 155.087 53.4459 155.617 53.2027C156.18 52.9153 156.42 52.5948 156.42 52.1472C156.42 51.6166 156.059 51.2077 155.371 50.9701C155.131 50.8872 154.405 50.7214 153.116 50.4395C150.899 49.9974 149.326 49.4669 148.365 48.8922C146.629 47.798 145.782 46.1788 145.782 43.9848C145.755 43.155 145.919 42.33 146.262 41.5759C146.605 40.8217 147.118 40.1592 147.759 39.6411C149.528 38.138 152.352 37.4085 156.18 37.4085C157.283 37.3981 158.386 37.4516 159.483 37.5688C160.633 37.6811 161.777 37.8583 162.907 38.0993V43.3327C162.143 43.0509 161.34 42.8077 160.45 42.6419C159.325 42.3987 158.156 42.2772 156.9 42.2772C155.819 42.2772 155.093 42.3214 154.651 42.443C153.924 42.6419 153.558 43.0509 153.558 43.6587C153.558 44.1451 153.962 44.5098 154.689 44.753C155.049 44.8745 155.535 44.9574 156.098 45.0845C157.954 45.4437 159.161 45.7311 159.767 45.8914C161.132 46.339 162.186 46.9911 162.907 47.7593V47.7648ZM209.455 37.7235V43.7472H202.645V58.1156H194.907V43.7472H188.098V37.7235H209.455Z" fill="#465A65"/>
<path d="M90.4439 35.4573V58.0378H51.6562L77.4036 45.0952V40.8897L51.0938 54.1197V51.2183L77.4036 38.1928V32.8876L51.0938 45.9131V41.912L77.2835 28.9639L90.4439 35.4573Z" fill="#6D9D31"/>
</svg>
