<svg width="260" height="90" viewBox="0 0 260 90" fill="none" xmlns="http://www.w3.org/2000/svg">
<path fill-rule="evenodd" clip-rule="evenodd" d="M176.77 7.96016C177.232 7.20976 177.885 6.60775 178.528 6.01561L178.531 6.01301L178.545 6C178.751 6.73034 178.806 7.48649 178.861 8.23992L178.874 8.41519C179.431 8.3055 179.988 8.18453 180.544 8.06356C180.753 8.01815 180.962 7.97273 181.171 7.92797C181.195 8.02118 181.218 8.11451 181.241 8.20783C181.273 8.34072 181.305 8.47383 181.336 8.60715L181.338 8.6143L181.34 8.62471L181.349 8.6608L181.39 8.83531L181.429 9.00018C182.229 8.98685 183.018 9.12895 183.803 9.2743C185.186 9.4331 186.577 9.41131 187.968 9.38941C189.048 9.3725 190.127 9.3556 191.204 9.42302C191.832 9.51959 192.127 10.1878 192.177 10.7617C191.753 10.8347 191.321 10.8715 190.893 10.9078L190.657 10.9281C190.717 11.1313 190.786 11.3332 190.86 11.533C191.014 11.4895 191.172 11.4309 191.332 11.3714C191.823 11.1894 192.338 10.9985 192.837 11.2C193.311 11.5885 193.581 12.2234 193.614 12.8316C193.561 13.0536 193.399 13.2856 193.16 13.3211C192.763 13.3658 192.363 13.3698 191.965 13.3738C191.54 13.378 191.116 13.3822 190.696 13.4355C190.289 13.4987 190.023 13.8405 189.788 14.1469C190.012 14.1713 190.235 14.1912 190.459 14.2076C190.659 14.2224 190.86 14.2344 191.06 14.2447C191.25 14.2545 191.44 14.2627 191.629 14.2701C191.844 14.2783 192.059 14.2856 192.274 14.2928L192.424 14.2978L192.497 14.4256L192.586 14.5798C192.613 14.627 192.641 14.6744 192.669 14.7219C192.517 14.9253 192.379 15.1394 192.241 15.3534C192.004 15.7219 191.767 16.0902 191.459 16.4035C191.141 16.6276 190.722 16.5433 190.383 16.419C189.584 16.0678 188.708 16.2411 187.873 16.4062C187.695 16.4414 187.518 16.4763 187.345 16.5056C186.903 16.5447 186.595 16.8321 186.286 17.1209C185.998 17.3895 185.709 17.6592 185.31 17.7309C184.309 17.823 183.312 17.9839 182.357 18.3092C182.385 20.5124 182.369 22.7167 182.377 24.921C183.465 24.8819 184.536 24.689 185.605 24.4963L185.768 24.467C186.331 24.3286 186.838 24.5518 187.339 24.7718L187.343 24.7731C187.487 24.8368 187.632 24.9002 187.776 24.9543C187.985 25.0243 188.222 25.1474 188.442 25.0343C188.55 24.9862 188.658 24.9365 188.764 24.8853C188.859 24.8397 188.953 24.793 189.047 24.7454C189.123 24.7074 189.198 24.6687 189.273 24.6296C189.416 24.5555 189.558 24.4799 189.7 24.4037L189.989 24.2472C190.986 23.7077 191.983 23.1678 193.105 22.9364C194.713 22.4974 196.366 22.5241 198.018 22.5509C198.884 22.5649 199.75 22.5789 200.61 22.5258C201.921 22.4773 203.232 22.4828 204.544 22.4884C206.208 22.4954 207.872 22.5023 209.534 22.3993C209.563 22.4581 209.622 22.5757 209.651 22.6346C209.509 22.7965 209.376 22.9668 209.243 23.137C209.013 23.4323 208.782 23.7277 208.507 23.9798C208.385 24.0346 208.259 24.0804 208.13 24.1204C207.982 24.1666 207.831 24.2052 207.679 24.2407C207.627 24.2529 207.575 24.2647 207.523 24.2763L207.397 24.3042C206.87 24.4205 206.343 24.5369 205.895 24.8477C206.171 24.9998 206.453 25.1463 206.74 25.2862C205.782 26.2951 204.443 26.8345 203.101 27.0866C203.078 27.0969 203.053 27.106 203.028 27.1142L202.988 27.1259C202.948 27.1368 202.906 27.1458 202.863 27.1535C202.77 27.1697 202.671 27.18 202.572 27.1904C202.113 27.2383 201.645 27.2872 201.8 27.9178C202.04 27.9847 202.288 28.0037 202.537 28.0227C202.618 28.029 202.7 28.0353 202.781 28.0432C201.64 28.7714 200.29 29.0644 198.949 29.0311C198.084 29.0861 197.265 28.8452 196.445 28.6043C195.707 28.3874 194.968 28.1703 194.195 28.1687C193.636 28.104 193.09 28.2125 192.548 28.3205C192.439 28.3422 192.33 28.3638 192.221 28.384C193.229 30.2499 193.885 32.3321 193.854 34.4731C193.886 34.8822 193.864 35.3056 193.841 35.731V35.7336C193.793 36.6357 193.745 37.5469 194.211 38.3512C195.408 40.6577 196.164 43.1972 196.294 45.8011C196.331 46.6315 196.847 47.2388 197.365 47.8497C197.825 48.3925 198.288 48.9381 198.42 49.6458C198.68 51.3818 199.113 53.1156 199.977 54.6561C200.159 54.9716 200.39 55.2524 200.621 55.5334C200.835 55.794 201.049 56.0547 201.224 56.3433C201.261 56.4458 201.296 56.5496 201.331 56.654L201.399 56.8636C201.608 57.5048 201.818 58.1537 202.259 58.6752C202.902 59.5331 203.534 60.4 204.179 61.2592C203.316 62.227 202.196 63.0961 200.871 63.2481C200.291 63.3103 199.712 63.3558 199.134 63.3824C198.948 62.8587 198.815 62.3181 198.683 61.7785L198.678 61.7576L198.674 61.7404L198.599 61.4349C198.566 61.3049 198.533 61.1753 198.498 61.0461L198.291 61.0591C197.49 61.1102 196.67 61.1626 195.92 60.8307C195.801 60.7809 195.719 60.6936 195.657 60.5896C195.592 60.4817 195.548 60.3558 195.506 60.2358L195.474 60.145C195.463 60.1158 195.452 60.0875 195.441 60.0603C194.681 60.7421 193.635 60.8569 192.661 60.9639L192.511 60.9805C192.115 60.381 191.878 59.7098 191.641 59.0381C191.608 58.9454 191.576 58.8527 191.542 58.7602L191.476 58.5776L191.421 58.4301C191.332 58.1944 191.237 57.9612 191.129 57.7339C190.917 57.4916 190.665 57.2924 190.413 57.0938C190.217 56.9387 190.021 56.7837 189.844 56.6085C189.621 56.3215 189.451 55.9994 189.278 55.6801L189.235 55.5998L189.161 55.4656L189.117 55.3876C189.092 55.3451 189.067 55.3028 189.042 55.2609C189.018 55.2202 188.993 55.1799 188.967 55.14C188.68 54.5903 188.181 54.2536 187.682 53.9166C187.198 53.5895 186.713 53.262 186.421 52.7392C186.317 52.6007 186.227 52.4464 186.136 52.2915C185.911 51.9076 185.684 51.5207 185.242 51.3641C184.76 51.1583 184.249 51.0468 183.737 50.9353C183.391 50.8597 183.044 50.7842 182.707 50.6792C181.978 50.5119 181.286 50.2319 180.594 49.9519L180.583 49.9474C180.343 49.85 180.102 49.7528 179.86 49.6604L179.689 49.9233C179.731 49.9737 179.772 50.0248 179.813 50.0763C179.896 50.1799 179.977 50.285 180.059 50.3896C180.191 50.5576 180.325 50.7242 180.471 50.8803C180.573 50.9896 180.68 51.0937 180.796 51.1898C180.859 51.2173 180.924 51.2426 180.989 51.2665C181.101 51.3076 181.215 51.3445 181.331 51.3815L181.332 51.3822C181.708 51.5029 182.087 51.6245 182.382 51.8934C182.827 52.3639 183.064 52.951 183.302 53.5392C183.447 53.8988 183.593 54.2589 183.786 54.5928C184.192 55.3098 184.772 55.9048 185.35 56.4864C185.33 56.403 185.31 56.3198 185.289 56.2369C185.263 56.1331 185.236 56.0296 185.208 55.9263C185.174 55.7976 185.139 55.6692 185.103 55.5408L185.1 55.5291C185.067 55.4098 185.034 55.2906 185.003 55.1711C185.766 55.1734 186.583 55.2122 187.222 55.6939C188.231 56.4132 188.558 57.9459 187.905 59.0103C187.373 60.0671 186.024 60.5388 184.923 60.2268C184.321 59.9705 183.662 59.6275 183.406 58.9849C183.356 58.8875 183.313 58.7828 183.27 58.6775C183.144 58.3712 183.016 58.06 182.7 57.9105C182.038 57.5311 181.345 57.2147 180.652 56.8983C180.114 56.6528 179.576 56.4073 179.052 56.1323C179.007 56.1075 178.96 56.0832 178.913 56.0592L178.805 56.0038C178.433 55.8144 178.05 55.6197 177.818 55.2599C177.583 54.8892 177.405 54.4812 177.227 54.0734C176.933 53.3996 176.639 52.7262 176.089 52.2221C175.622 51.7853 175.066 51.4832 174.51 51.1813C173.983 50.8957 173.458 50.6102 173.008 50.2109C172.702 49.7543 172.62 49.2148 172.539 48.6762C172.45 48.0886 172.361 47.5019 171.981 47.0253C171.684 46.5124 171.222 46.1553 170.763 45.8C170.618 45.6878 170.474 45.5758 170.334 45.4592C168.578 43.9764 167.375 41.8009 167.207 39.4856C167.136 38.3855 167.171 37.2848 167.206 36.1839C167.234 35.2808 167.263 34.3774 167.233 33.4742C167.173 32.8282 167.358 32.2077 167.599 31.6195C168.937 28.0343 169.404 24.1751 169.34 20.3626C169.48 20.1899 169.642 20.0292 169.805 19.8677L169.807 19.866C170.155 19.5216 170.508 19.1736 170.648 18.6988C170.724 18.1366 170.162 17.9049 169.709 17.7181C169.619 17.6806 169.532 17.645 169.456 17.6088C170.618 16.5832 171.46 15.2491 172.098 13.845C172.203 13.4355 172.102 13.0114 172.022 12.6063C173.453 11.9892 174.833 11.1334 175.797 9.88032C175.88 9.78114 175.954 9.67709 176.021 9.56945C176.215 9.26119 176.355 8.92322 176.494 8.58536C176.582 8.37454 176.669 8.16372 176.77 7.96016ZM182.831 11.1068C183.171 11.242 183.517 11.3801 183.887 11.3698C184.029 11.2195 184.111 11.0295 184.193 10.8406C184.215 10.7883 184.238 10.7362 184.261 10.685C183.685 10.4186 183.14 10.7379 182.645 11.0278L182.639 11.0313L182.707 11.0576L182.831 11.1068ZM179.849 17.823C179.426 21.5047 179.544 25.3228 180.717 28.8635C180.827 28.1207 180.755 27.3685 180.683 26.6247L180.664 26.4209L180.654 26.3129C180.461 23.5536 180.703 20.7954 180.958 18.0506C180.588 17.9729 180.216 17.8974 179.849 17.823ZM182.701 26.244C182.713 26.5973 182.717 26.9524 182.722 27.3081C182.738 28.5496 182.755 29.7983 183.077 31.0002C183.4 31.8069 184.033 32.3664 184.668 32.9279C185.066 33.2794 185.464 33.6317 185.788 34.0457C186.998 35.3522 187.712 37.0082 188.222 38.6931L186.672 39.5888C186.693 39.7631 186.717 39.9384 186.743 40.1149C186.838 40.0717 186.935 40.0226 187.034 39.9725C187.505 39.7349 188.016 39.477 188.523 39.732C189.019 39.9825 189.401 40.3872 189.782 40.79C189.931 40.9476 190.079 41.105 190.235 41.2526C190.445 41.1608 190.654 41.065 190.862 40.9669C191.12 40.8447 191.377 40.7191 191.635 40.5928L191.651 40.585L191.73 40.5467C191.37 39.9828 190.987 39.4346 190.518 38.9584C190.317 38.7737 190.032 38.7842 189.751 38.7946C189.545 38.8022 189.341 38.8097 189.174 38.7407L189.169 38.666C189.147 38.2658 189.119 37.7911 189.531 37.5698C189.711 37.3995 189.979 37.4003 190.24 37.4009C190.573 37.4018 190.895 37.4025 191.014 37.0493C192.195 34.4776 191.767 31.4674 190.622 28.9646C189.962 27.6471 188.685 26.8223 187.336 26.3562C187.364 26.7081 187.332 27.061 187.27 27.4073C185.815 26.7957 184.282 26.3461 182.701 26.244ZM181.644 35.6352C180.923 35.8517 180.812 37.0059 181.434 37.4033C181.529 37.4616 181.629 37.5106 181.732 37.5554L181.789 37.5799L181.834 37.5986C181.89 37.6216 181.947 37.6438 182.003 37.666C182.229 37.7545 182.454 37.843 182.655 37.9816C183.141 38.2902 183.359 38.8985 183.345 39.4567C183.314 39.6606 183.235 39.8438 183.131 40.0163C183.024 40.1931 182.891 40.3586 182.759 40.5237C182.446 40.9146 182.135 41.303 182.174 41.832L183.628 41.5933C183.742 41.055 183.891 40.5178 184.161 40.0339C184.368 39.6044 184.725 39.2933 185.08 38.9831C185.261 38.8251 185.442 38.6674 185.603 38.4944C185.778 38.2658 185.811 37.9472 185.726 37.6752C185.471 36.8218 184.874 36.0792 184.121 35.6208C183.375 35.4876 182.602 35.5536 181.851 35.6176L181.644 35.6352ZM172.499 40.0275C172.551 40.2553 172.603 40.4835 172.661 40.71C172.713 40.9137 172.769 41.1159 172.834 41.3154C172.868 41.4192 172.904 41.5223 172.943 41.6244C173.366 41.9723 173.853 42.2307 174.338 42.488C174.518 42.5836 174.698 42.6789 174.875 42.7788C175.363 43.0849 175.923 43.1214 176.483 43.1579C176.739 43.1746 176.995 43.1913 177.244 43.2338C177.536 43.2661 177.826 43.3156 178.117 43.3653C178.706 43.4657 179.297 43.5661 179.898 43.5246C180.371 43.3581 180.767 43.0184 181.187 42.7454C180.573 42.2446 179.803 42.1366 179.032 42.0285C178.51 41.9552 177.987 41.882 177.514 41.6866C177.226 41.5053 177.074 41.2107 176.921 40.9151C176.802 40.684 176.682 40.4524 176.497 40.2736C176.071 39.8835 175.628 39.5126 175.185 39.1419C174.99 38.9788 174.795 38.8156 174.602 38.651L174.509 38.5722L174.413 38.4889L174.342 38.4276C174.266 38.3615 174.19 38.295 174.114 38.228C173.563 38.7131 172.977 39.1559 172.402 39.6087C172.435 39.7479 172.467 39.8876 172.499 40.0275ZM192.726 43.8265C192.649 43.8611 192.558 43.8956 192.46 43.9325C191.943 44.1275 191.253 44.3877 191.634 45.0663C192 46.0387 192.688 46.8977 193.587 47.4216C194.771 48.1241 195.328 49.4384 195.809 50.6659C195.84 50.87 195.833 51.0792 195.825 51.2886C195.815 51.5862 195.805 51.8841 195.903 52.1688C196.112 52.918 196.851 53.3852 197.566 53.5706C197.671 53.0201 197.676 52.4352 197.513 51.8968C197.372 51.6407 197.156 51.4436 196.94 51.2466C196.687 51.0159 196.434 50.7851 196.302 50.4594C195.949 49.6371 195.604 48.8112 195.2 48.0132C194.934 47.5183 194.786 46.9793 194.638 46.4409C194.551 46.1256 194.465 45.8106 194.355 45.5047C194.023 45.0725 193.627 44.6954 193.233 44.319C193.062 44.1562 192.891 43.9935 192.726 43.8265ZM186.672 46.6813C186.414 47.1363 186.49 47.8788 187.037 48.0798C187.122 48.1215 187.208 48.1624 187.296 48.203L187.436 48.268C188.217 48.6288 189.032 49.0055 189.341 49.8912C189.736 51.2131 190.28 52.6272 191.555 53.3331C192.086 53.6205 192.386 54.1148 192.687 54.6097C192.753 54.7187 192.819 54.8276 192.887 54.9344C192.928 54.9978 192.97 55.0603 193.013 55.1217C193.051 55.1764 193.09 55.2301 193.131 55.2825C193.165 55.3263 193.201 55.3691 193.237 55.4109C193.474 55.5641 193.723 55.6969 193.977 55.8178C194.11 55.881 194.245 55.9409 194.381 55.9989L194.49 56.0449C194.681 56.1245 194.874 56.2007 195.066 56.2769L195.074 56.2798L195.25 56.3499L195.431 56.4224L195.556 56.4731C195.539 56.3763 195.523 56.2787 195.508 56.1807C195.444 55.7788 195.379 55.3728 195.186 55.0113C195.006 54.6922 194.776 54.4072 194.547 54.1223L194.544 54.1191C194.331 53.8531 194.117 53.5873 193.944 53.2942C193.837 52.9109 193.77 52.5136 193.704 52.116C193.583 51.3889 193.462 50.661 193.091 50.0166C192.672 49.2589 191.982 48.7856 191.29 48.3112C190.695 47.903 190.098 47.4939 189.672 46.9021C189.349 46.548 189.175 46.1036 189.003 45.6631C188.945 45.5154 188.888 45.3683 188.825 45.2251C188.743 45.2534 188.659 45.2814 188.574 45.3099C187.811 45.5652 186.944 45.8556 186.672 46.6813ZM176.464 46.456C175.831 46.6169 175.224 46.9732 175.071 47.6669C175.235 47.8808 175.437 48.0529 175.646 48.2189L175.767 48.3134C175.894 48.4132 176.022 48.5132 176.143 48.6214C177.602 49.7858 178.579 51.4407 179.305 53.14C179.777 53.0323 180.258 52.929 180.732 52.8091L180.683 52.5117C178.87 51.8094 178.239 49.7473 177.718 48.0414L177.68 47.9188C177.613 47.3027 177.116 46.9368 176.656 46.599C176.59 46.551 176.526 46.5036 176.464 46.456ZM198.087 55.8315C197.87 56.1567 197.685 56.503 197.543 56.8671C197.726 56.8778 197.902 56.8857 198.08 56.8936L198.093 56.8942C198.26 56.9017 198.428 56.9092 198.603 56.9193C198.801 58.1103 198.98 59.3056 199.127 60.5055C199.43 60.2342 199.718 59.947 200.007 59.659L200.211 59.4555C200.087 59.2423 199.964 59.0279 199.842 58.8131C199.742 58.6357 199.642 58.458 199.542 58.2802L199.536 58.2705C199.072 57.4456 198.608 56.6211 198.087 55.8315Z" fill="#0D53A0"/>
<path d="M57.4295 39.0627C59.7666 39.0027 62.1046 39.0083 64.4416 39.0527C64.4814 40.4906 64.4805 41.9291 64.4796 43.3678V43.3905C64.4794 43.8611 64.4792 44.3316 64.4803 44.8021C65.9659 43.7675 67.4259 42.6979 68.8858 41.6283C69.4122 41.2425 69.9386 40.8568 70.4662 40.4726C70.693 40.3077 70.9198 40.1429 71.1471 39.9786C71.4531 39.7575 71.7596 39.5372 72.0669 39.3179C72.3353 39.1326 72.647 39.0061 72.9849 39.0438C74.1264 38.9694 75.2712 39.0305 76.4116 39.0982C74.8547 40.359 73.1951 41.4899 71.5386 42.6188L71.5256 42.6285C71.1667 42.8732 70.8078 43.1178 70.4502 43.3637C71.0595 44.6347 71.6793 45.9008 72.3028 47.1651L73.3117 49.2054C74.3504 51.3031 75.3888 53.4007 76.396 55.513C74.744 55.5756 73.0909 55.5729 71.4384 55.5667L71.1594 55.5658C70.3296 55.5625 69.4998 55.5594 68.6702 55.564L68.1018 54.3264C67.1168 52.1832 66.1317 50.039 65.1875 47.8777C65.1445 47.9444 65.0975 48.01 65.0487 48.0752C65.0176 48.117 64.9859 48.1585 64.954 48.2002C64.6939 48.5406 64.4289 48.8873 64.498 49.3484C64.4518 50.5973 64.4622 51.8471 64.4725 53.0971L64.4757 53.4867L64.4794 54.0255C64.4822 54.538 64.4827 55.0505 64.4768 55.5629C62.12 55.5662 59.7631 55.5651 57.4052 55.5629C57.411 53.4901 57.4077 51.4171 57.4045 49.3441C57.3991 45.9168 57.3937 42.4895 57.4295 39.0627Z" fill="#0D53A0"/>
<path fill-rule="evenodd" clip-rule="evenodd" d="M86.6781 39.0301C86.1407 39.0305 85.6036 39.0326 85.0666 39.0371C83.9127 41.6596 82.7124 44.2618 81.512 46.8638C80.1803 49.7503 78.8487 52.6367 77.5806 55.5507C78.3208 55.5529 79.0624 55.553 79.8037 55.553C79.8533 55.4456 79.9036 55.3385 79.9543 55.2315L80.1509 54.8192C80.3641 54.3737 80.5769 53.9283 80.7718 53.4751C82.5348 53.4483 84.2977 53.451 86.0609 53.4536L87.3583 53.4552C87.597 54.1522 87.829 54.8492 88.0588 55.5496L88.3359 55.5509L89.644 55.5595C91.7086 55.5742 93.7748 55.589 95.8388 55.513C94.7682 53.1485 93.6842 50.7905 92.6001 48.4325L92.5891 48.4081L92.5775 48.3834C91.1473 45.2719 89.7174 42.1605 88.3185 39.0349C87.7714 39.0316 87.2245 39.0298 86.6781 39.0301ZM86.4787 51.6704C84.88 51.6826 83.2799 51.6859 81.681 51.6693C81.9961 51.0322 82.3101 50.3946 82.6239 49.7571L82.6446 49.7149C83.1977 48.5916 83.7508 47.4686 84.3109 46.3482C84.575 47.0395 84.8521 47.7253 85.1338 48.4092C85.2857 48.7778 85.4389 49.1458 85.5921 49.5138L85.6012 49.5359C85.8969 50.2461 86.1925 50.9563 86.4787 51.6704Z" fill="#0D53A0"/>
<path d="M98.5336 39.0628C100.312 39.0123 102.09 39.0191 103.869 39.0259C104.399 39.028 104.929 39.03 105.459 39.0306C105.934 39.8952 106.402 40.7642 106.87 41.6333L106.901 41.6908C107.852 43.4578 108.803 45.2253 109.813 46.9588L110.302 45.909C111.365 43.6254 112.429 41.3415 113.45 39.0383L113.624 39.037C115.793 39.0195 117.962 39.0022 120.131 39.0616C120.181 42.5247 120.174 45.9884 120.166 49.452L120.161 52.6472C120.161 53.0894 120.161 53.5317 120.162 53.9739C120.162 54.5035 120.163 55.0332 120.165 55.5629C119.197 55.5639 118.23 55.5645 117.262 55.5646L113.427 55.5629C113.422 54.3112 113.424 53.0595 113.426 51.8078C113.431 49.7931 113.434 47.7786 113.405 45.7645C112.663 47.2361 111.918 48.7059 111.173 50.1757L111.119 50.2823C110.6 51.3057 110.082 52.3293 109.564 53.3534C109.192 54.0899 108.82 54.8267 108.449 55.5641C107.612 55.5608 106.775 55.5608 105.939 55.5563C104.883 53.3215 103.758 51.122 102.632 48.9226C102.113 47.9073 101.593 46.892 101.081 45.8733C101.041 47.9122 101.045 49.9516 101.05 51.9908C101.052 52.7012 101.053 53.4115 101.053 54.1218C101.053 54.6026 101.052 55.0834 101.05 55.5641C100.202 55.5629 99.3557 55.5629 98.5092 55.5641C98.5118 54.6341 98.5127 53.7041 98.5125 52.7741C98.512 51.6308 98.5103 50.4875 98.5086 49.3443C98.5032 45.9168 98.4978 42.4896 98.5336 39.0628Z" fill="#0D53A0"/>
<path fill-rule="evenodd" clip-rule="evenodd" d="M133.845 39.0327C132.765 39.0283 131.685 39.0294 130.608 39.0427C129.353 41.8508 128.068 44.6453 126.783 47.4397C125.55 50.1228 124.316 52.8058 123.109 55.5007C123.359 55.5241 123.609 55.5373 123.859 55.545C124.141 55.5536 124.423 55.5555 124.705 55.5573C124.911 55.5586 125.118 55.56 125.324 55.564C125.533 55.1235 125.746 54.6846 125.961 54.2474C126.091 53.9828 126.223 53.7188 126.355 53.4552L127.856 53.4543C129.529 53.4533 131.203 53.4528 132.878 53.4562C133.119 54.1633 133.375 54.8637 133.636 55.5651C134.466 55.5633 135.296 55.5642 136.126 55.5652C137.858 55.5674 139.589 55.5696 141.321 55.5463C140.88 54.4532 140.385 53.3843 139.89 52.3154C139.618 51.728 139.346 51.1407 139.083 50.5494L137.772 47.6743C136.458 44.7956 135.144 41.9173 133.845 39.0327ZM128.993 48.0373L129.015 47.9924L129.03 47.9625C129.297 47.4246 129.564 46.8863 129.827 46.3461C130.075 46.9488 130.321 47.552 130.568 48.1552C131.048 49.3269 131.527 50.4988 132.011 51.6682C130.421 51.6837 128.831 51.6815 127.242 51.6782C127.793 50.4525 128.39 49.2501 128.988 48.0474L128.993 48.0373Z" fill="#0D53A0"/>
<path d="M142.512 39.0616C143.201 39.0566 143.89 39.0511 144.58 39.0454C148.978 39.0099 153.378 38.9743 157.774 39.0971C156.362 42.1629 154.9 45.2054 153.439 48.248L153.425 48.276C152.65 49.8903 151.875 51.5044 151.107 53.1222C151.82 53.1243 152.533 53.1224 153.246 53.1204H153.259C154.738 53.1165 156.218 53.1126 157.698 53.1455C157.717 53.9502 157.73 54.756 157.742 55.5629C155.965 55.561 154.187 55.5626 152.41 55.5642C149.122 55.5672 145.835 55.5702 142.548 55.5507C143.689 52.9799 144.915 50.4478 146.141 47.9156L146.145 47.9078C147.161 45.8094 148.177 43.7108 149.145 41.59C148.195 41.5785 147.246 41.5796 146.297 41.5806C145.037 41.582 143.777 41.5834 142.517 41.5556C142.512 41.3104 142.509 41.0653 142.506 40.8203C142.5 40.2335 142.502 39.6472 142.512 39.0616Z" fill="#0D53A0"/>
<path d="M93.2387 64.2211C78.836 64.2136 64.4332 64.2061 50.0309 64.2571C49.9888 65.8254 49.9888 67.3959 50.0363 68.9654C57.4513 69.0071 64.8668 69.0007 72.2823 68.9943C76.8995 68.9904 81.5168 68.9865 86.134 68.9942H165.69C171.299 68.9853 176.909 68.99 182.518 68.9946C191.668 69.0021 200.819 69.0096 209.97 68.9587C210.011 67.3893 210.011 65.8187 209.964 64.2503C205.924 64.2084 201.883 64.2147 197.843 64.221C195.376 64.2248 192.908 64.2287 190.441 64.2215H119.724C110.896 64.2304 102.067 64.2257 93.2387 64.2211Z" fill="#0D53A0"/>
</svg>
