<svg width="260" height="90" viewBox="0 0 260 90" fill="none" xmlns="http://www.w3.org/2000/svg">
<path d="M147.906 52.4041H137.443V34.9948H132.958V56.4456H147.906V52.4041ZM184.714 38.7876V39.1606H191.378V56.4456H195.862V39.1606H202.526V38.7876V34.9948H184.714V38.7876ZM208.63 38.7876C208.194 39.2228 207.571 39.5337 206.948 39.5337C206.263 39.5337 205.703 39.285 205.267 38.7876C204.831 38.3523 204.582 37.7306 204.582 37.0466C204.582 36.3627 204.831 35.7409 205.267 35.3057C205.703 34.9326 206.263 34.6218 206.948 34.6218C207.633 34.6218 208.194 34.8705 208.63 35.3679C209.066 35.8031 209.315 36.4249 209.315 37.1088C209.315 37.7927 209.066 38.3523 208.63 38.7876ZM209.128 34.9326C208.568 34.3731 207.82 34 206.948 34C206.139 34 205.329 34.3731 204.768 34.9326C204.208 35.4922 203.896 36.2383 203.896 37.1088C203.896 37.9793 204.208 38.7254 204.768 39.285C205.329 39.8446 206.076 40.2176 206.948 40.2176C207.758 40.2176 208.568 39.8446 209.128 39.285C209.689 38.7254 210 37.9793 210 37.1088C210 36.2383 209.626 35.4922 209.128 34.9326ZM207.446 36.8601C207.322 36.9845 207.135 37.0466 206.948 37.0466H206.325V35.9896H206.948C207.197 35.9896 207.446 36.0518 207.509 36.2383C207.571 36.3627 207.571 36.4249 207.571 36.487C207.571 36.6114 207.509 36.7358 207.446 36.8601ZM208.007 37.2332C208.194 37.0466 208.318 36.7979 208.318 36.487C208.318 36.3005 208.256 36.1762 208.194 35.9896C207.945 35.5544 207.446 35.3679 206.948 35.3679H205.64V38.6632H206.325V37.6062H207.011L207.758 38.7254H208.568L207.696 37.4819C207.82 37.4197 207.945 37.2953 208.007 37.2332ZM172.569 56.4456H177.053V39.1606H183.717V38.7876V34.9948H165.905V38.7876V39.1606H172.569V56.4456ZM55.7299 40.5907C55.7299 37.9171 59.4667 38.4145 61.086 38.7876C62.3316 39.0984 63.951 39.5959 65.0097 40.342L65.072 40.4041L67.1273 37.0466L67.065 36.9845C65.3834 35.6166 63.1413 34.8705 61.0237 34.5596C58.0965 34.1244 54.1105 34.5596 52.1176 37.0466C51.3079 38.0415 50.9342 39.285 50.9342 40.5907C50.9342 48.487 62.7053 46.6839 62.7053 50.1036C62.7053 50.7876 62.5185 51.4093 62.0825 51.9067C60.7746 53.399 57.9097 53.0881 56.2281 52.5907C54.9202 52.2176 53.3632 51.5959 52.3044 50.6632L52.2421 50.601L50 54.0829L50.0623 54.1451C53.7369 57.3161 60.1518 58.2487 64.3246 55.5751C66.2554 54.3316 67.501 52.4041 67.501 50.1036C67.501 42.5181 55.7299 44.5078 55.7299 40.5907ZM149.587 56.4456H165.158V52.4041H154.072V47.6788H159.615V43.4508H154.072V39.0984H164.909V34.9948H149.587V43.513H144.356V47.6788H149.587V56.4456ZM85.5625 51.285C84.0054 52.342 82.3861 53.0259 80.4554 53.0259C76.158 53.0259 73.1685 50.1658 73.1685 45.7513C73.1685 41.3368 76.158 38.4145 80.4554 38.4145C82.1993 38.4145 83.9432 39.0984 85.3756 39.9689L87.3686 36.5492C85.3134 35.057 82.6353 34.3109 80.144 34.3109C73.5422 34.3109 68.4975 38.7876 68.4975 45.6891C68.4975 52.5907 73.48 57.0674 80.144 57.0674C82.6975 57.0674 85.5002 56.2591 87.5555 54.5803L87.68 54.456L85.5625 51.285ZM95.9011 48.2383L99.3266 39.8446L102.752 48.2383H95.9011ZM105.991 56.4456H110.786L102.005 34.9948H96.5862L87.8669 56.4456H92.6625L94.2818 52.2798H104.371L105.991 56.4456ZM123.803 44.2591C122.931 45.0052 121.81 45.3161 120.689 45.3161H116.578V38.8497H120.689C122.121 38.8497 123.803 39.2228 124.488 40.5907C124.737 41.0259 124.8 41.5233 124.8 42.0829C124.862 42.9534 124.426 43.6995 123.803 44.2591ZM125.609 48.2383C126.294 47.9275 126.917 47.4922 127.478 46.9326C128.848 45.6269 129.471 44.0104 129.471 42.0829C129.471 40.9637 129.221 39.9067 128.723 38.9119C127.166 35.9275 123.741 34.9948 120.689 34.9948H112.094V56.4456H116.578V49.2953H121.063L126.045 56.4456H131.277L125.609 48.2383Z" fill="#60BED4"/>
</svg>
