<svg width="98" height="210" viewBox="0 0 98 210" fill="none" xmlns="http://www.w3.org/2000/svg">
<path d="M66.1432 24.6145L66.8701 33.6651L75.7881 34.055L72.1957 20.0195L66.1432 24.6145Z" fill="#F4A086"/>
<path d="M62.3395 26.271C61.2073 26.2432 60.1589 26.0761 59.6138 25.6305C56.3569 20.9103 60.0611 8.1558 60.0611 8.1558L65.2749 5.96973L71.9005 10.0912L72.278 18.6267C72.3758 20.9103 71.2855 23.0963 69.3146 24.5166C67.2179 25.6862 64.7997 26.3407 62.3395 26.271Z" fill="#F8B68F"/>
<path d="M70.855 14.9232C70.4916 13.489 70.6873 10.1751 69.2196 10.4118C68.1432 10.5928 64.481 10.7321 63.2509 10.7321C60.3155 10.7321 55.0737 9.59028 55.0737 5.13457C55.0737 2.90672 57.2403 0.985195 58.6102 0.414307C59.9521 -0.142656 61.4757 -0.114798 62.8595 0.35862C66.1024 1.48647 70.3937 3.97887 72.099 3.63077C74.9785 3.05988 77.858 4.73078 77.8161 7.1675C77.7741 9.7713 76.4043 13.684 75.1183 16.1764C74.3775 17.6106 73.385 18.9055 72.1829 20.0055L70.855 14.9232Z" fill="#212B53"/>
<path d="M73.8438 15.244C73.1869 14.6732 71.9568 14.7706 71.1041 15.4947C70.2515 16.2048 70.0837 17.2491 70.7407 17.82C71.3977 18.3909 72.6277 18.2934 73.4804 17.5694C74.333 16.8593 74.4868 15.8149 73.8438 15.244Z" fill="#F8B68F"/>
<path d="M41.067 31.6322C40.9272 31.2144 40.2982 29.8081 37.8101 27.8866C35.5736 26.16 29.8705 23.9461 32.3447 22.2334C35.3919 22.4701 39.0122 22.4005 39.0122 22.4005C40.8433 22.7347 42.996 25.0043 44.0583 26.6752L46.7281 32.203C46.7281 32.203 45.498 34.9182 45.4701 35.0575L44.1981 34.8208C43.3174 33.5815 42.2551 32.5094 41.067 31.6322Z" fill="#F8B68F"/>
<path d="M40.9383 30.0735C40.9383 30.0735 40.9383 29.9064 40.8544 29.628C41.2458 29.7115 41.6512 29.7533 42.0426 29.7951C43.3006 30.5609 44.5866 31.2849 45.8446 32.0368C45.2994 32.6913 44.5586 33.6242 44.5167 33.7077L35.2352 30.4216C35.2352 30.4216 35.1374 29.1546 37.1922 29.1963C39.2469 29.2381 40.9383 30.0735 40.9383 30.0735Z" fill="#F8B68F"/>
<path d="M55.0713 50.3879L40.7578 37.1322L45.6921 29.7803L65.2753 38.9841L56.7487 53.9107L55.0713 50.3879Z" fill="#FFDB71"/>
<path d="M70.9659 28.2616C91.3739 24.0426 87.8235 91.3656 87.8235 91.3656H55.5341C55.5341 91.3656 55.0729 79.6415 53.8987 64.7845C52.8923 52.1832 59.9931 37.9528 70.9659 28.2616Z" fill="#FFDB71"/>
<path d="M60.3423 202.731C60.3423 202.731 57.1692 205.669 49.9146 207.507C48.3211 207.911 46.6018 207.368 46.6018 209.999C49.9845 209.999 55.394 209.999 55.394 209.999L62.7185 208.732V209.999H66.6743C66.6743 209.999 67.7786 203.566 65.4722 202.731C63.3056 202.731 60.3423 202.731 60.3423 202.731Z" fill="#212B53"/>
<path d="M60.7766 198.108L60.3293 202.731C61.7691 203.734 63.6701 203.789 65.1657 202.898L65.4313 202.731L66.256 198.108H60.7766Z" fill="#F8B68F"/>
<path d="M14.5663 49.356C14.119 49.3142 12.6094 49.0218 10.1772 47.0307C7.99661 45.2484 4.54403 40.2079 3.42578 42.9927C4.34833 45.9028 5.07519 49.4256 5.07519 49.4256C5.80205 51.1383 8.51381 52.7117 10.3869 53.3801L16.3835 54.7307C16.3835 54.7307 18.7597 52.9345 18.8855 52.8649L18.3683 51.6813C16.9845 51.1105 15.7125 50.3168 14.5663 49.356Z" fill="#F8B68F"/>
<path d="M13.0176 49.5799C13.0176 49.5799 12.8498 49.6078 12.5563 49.6078C12.724 49.9698 12.8638 50.3457 12.9896 50.7217C14.024 51.7799 15.0164 52.8521 16.0368 53.9242C16.568 53.2559 17.3088 52.309 17.3647 52.2533L12.081 43.9824C12.081 43.9824 10.823 44.1635 11.3262 46.1546C11.8294 48.1318 13.0176 49.5799 13.0176 49.5799Z" fill="#F8B68F"/>
<path d="M91.4037 196.257C91.4037 196.257 88.2306 199.195 80.976 201.033C79.3825 201.437 77.6632 200.894 77.6632 203.526C81.0459 203.526 86.4554 203.526 86.4554 203.526L93.7799 202.259V203.526H97.7357C97.7357 203.526 98.84 197.093 96.5336 196.257C94.381 196.257 91.4037 196.257 91.4037 196.257Z" fill="#212B53"/>
<path d="M91.8488 191.635L91.4015 196.258C92.8412 197.26 94.7423 197.316 96.2379 196.425L96.5035 196.258L97.3282 191.635H91.8488Z" fill="#F8B68F"/>
<path d="M87.8218 91.3652C87.8218 91.3652 85.2359 104.997 87.5562 133.221C87.9616 138.206 89.0938 143.107 90.9249 147.758C97.1452 163.631 97.9978 192.927 97.9978 192.927H90.883L65.8203 121.525L87.8218 91.3652Z" fill="#212B53"/>
<path d="M75.7907 50.4854C75.7907 50.4854 70.2134 71.2044 55.0752 73.112C39.9369 75.0196 15.042 55.9437 15.042 55.9437L17.7817 50.4993L44.0465 57.8234C48.0442 58.9373 52.2936 57.155 54.2645 53.5209L62.1761 38.998L75.7907 50.4854Z" fill="#FFDB71"/>
<path d="M55.5348 91.3652L60.2314 199.333H66.5915C66.5915 199.333 73.7203 174.158 73.1891 154.316C73.0214 148.036 74.0977 141.77 76.446 135.936C86.1468 111.903 87.8242 91.3652 87.8242 91.3652H55.5348Z" fill="#043C5E"/>
<path d="M0 38.9846L22.8402 56.1112L48.9652 35.7682L27.6347 20.02L0 38.9846Z" fill="#D9EEEC"/>
<path d="M30.362 60.4002C30.4458 58.2142 30.9351 56.2091 31.7458 54.3851L17.7817 50.4863L15.042 55.9306C15.042 55.9306 22.1009 61.3471 30.991 66.1091C30.5157 64.2294 30.2921 62.2939 30.362 60.4002Z" fill="#FFDB71"/>
<path d="M75.3843 50.3877C75.3284 50.5966 69.6952 70.8561 55.0182 72.708C41.3197 74.4346 19.1505 58.4915 15.7538 55.9573C15.5861 56.1662 15.4044 56.375 15.2227 56.5839C18.5075 59.0345 38.6219 73.6548 52.8237 73.6548C53.6064 73.6548 54.3752 73.6131 55.1161 73.5156C70.3382 71.5941 76.1112 50.8054 76.1671 50.5965L75.3843 50.3877Z" fill="#FF9C00"/>
<path d="M10.6767 53.4373L15.597 54.5512C16.0723 53.3677 16.6733 52.2538 17.3862 51.2234C16.3798 50.7082 15.4293 50.0816 14.5766 49.3575C14.1293 49.3158 12.6197 49.0234 10.1875 47.0322C10.6208 48.8284 10.8025 50.6525 10.7466 52.4348C10.7326 52.7829 10.7047 53.1171 10.6767 53.4373Z" fill="#F8B68F"/>
<path d="M17.0507 51.7384L12.0885 43.9688C12.0885 43.9688 10.8304 44.1498 11.3337 46.1409C11.8369 48.132 13.025 49.5802 13.025 49.5802C13.025 49.5802 12.8573 49.608 12.5637 49.608C12.7315 49.97 12.8712 50.346 12.9971 50.7219C13.9895 51.7384 14.954 52.7688 15.9324 53.7991C16.24 53.0751 16.6313 52.3928 17.0507 51.7384Z" fill="#F8B68F"/>
<path d="M39.491 27.1631C39.4351 27.1631 39.3792 27.177 39.3232 27.177C40.7071 28.4998 41.1404 29.4466 41.2522 29.7808C41.8253 30.2124 42.3704 30.6859 42.8876 31.2011C42.9435 30.6998 43.0414 30.1985 43.1393 29.7251C41.8113 29.0428 40.5952 28.1795 39.491 27.1631Z" fill="#F8B68F"/>
<path d="M40.3848 27.9293C39.6999 27.6926 38.6096 27.3724 37.3796 27.3584C35.3248 27.3167 35.4226 28.5837 35.4226 28.5837L42.8869 31.2293C42.9428 30.7141 43.0267 30.2268 43.1385 29.7394C42.1601 29.2242 41.2375 28.6255 40.3848 27.9293Z" fill="#F8B68F"/>
<path d="M66.1438 33.0937V28.638L73.6081 25.5469L76.3199 28.9722L66.1438 33.0937Z" fill="white"/>
</svg>
