<svg width="530" height="299" viewBox="0 0 530 299" fill="none" xmlns="http://www.w3.org/2000/svg">
<path d="M525.312 163.617L526.394 171.977L519.467 167.565L496.559 150.229L525.312 163.617Z" fill="#B0D9C8"/>
<path d="M526.393 171.976L513.867 166.615L517.573 166.132L526.393 171.976Z" fill="#63C1C5"/>
<path d="M525.312 163.617L529.997 157.516L496.559 150.229L525.312 163.617Z" fill="url(#paint0_linear)"/>
<path d="M496.559 150.229L519.467 167.565L512.1 176.14L496.559 150.229Z" fill="url(#paint1_linear)"/>
<path d="M521.043 178.095C521.122 178.085 521.202 178.059 521.274 178.017C521.583 177.844 521.69 177.453 521.517 177.143C520.971 176.171 520.335 175.25 519.632 174.409C519.405 174.135 519.003 174.102 518.732 174.33C518.461 174.557 518.426 174.962 518.655 175.232C519.309 176.012 519.898 176.867 520.407 177.771C520.536 178.01 520.791 178.127 521.043 178.095Z" fill="#01898C"/>
<path d="M488.28 240.792C488.212 240.445 488.438 240.107 488.787 240.04C490.749 239.655 492.693 238.894 494.567 237.772C494.868 237.593 495.263 237.69 495.443 237.994C495.623 238.299 495.525 238.692 495.223 238.875C493.223 240.072 491.139 240.89 489.032 241.3C489.018 241.302 489.006 241.305 488.992 241.307C488.658 241.347 488.345 241.124 488.28 240.792ZM497.546 236.462C497.314 236.195 497.345 235.789 497.611 235.557C499.197 234.182 500.588 232.591 501.744 230.836C501.938 230.541 502.335 230.459 502.63 230.654C502.924 230.848 503.006 231.246 502.812 231.544C501.592 233.4 500.123 235.075 498.447 236.527C498.349 236.614 498.233 236.663 498.113 236.677C497.905 236.706 497.691 236.631 497.546 236.462ZM503.868 228.367C503.545 228.224 503.396 227.847 503.538 227.521L503.653 227.254C504.401 225.452 504.978 223.505 505.368 221.469C505.433 221.123 505.77 220.891 506.115 220.961C506.461 221.027 506.69 221.364 506.622 221.713C506.216 223.833 505.613 225.865 504.833 227.748L504.711 228.034C504.618 228.248 504.422 228.386 504.207 228.414C504.095 228.428 503.978 228.414 503.868 228.367ZM506.461 218.384C506.108 218.353 505.847 218.044 505.877 217.693C506.041 215.699 506.059 213.553 505.936 211.306C505.915 210.952 506.2 210.643 506.538 210.631C506.891 210.61 507.193 210.882 507.211 211.235C507.34 213.541 507.319 215.748 507.15 217.798C507.125 218.105 506.889 218.344 506.597 218.381C506.552 218.386 506.508 218.388 506.461 218.384ZM506.312 208.037C505.961 208.077 505.644 207.827 505.604 207.475C505.583 207.297 505.562 207.117 505.538 206.939C504.814 206.962 504.085 206.948 503.359 206.896C503.006 206.871 502.742 206.566 502.765 206.212C502.788 205.858 503.09 205.596 503.447 205.617C504.088 205.662 504.728 205.678 505.368 205.662C505.167 204.237 504.922 202.742 504.618 201.121C504.552 200.774 504.781 200.439 505.13 200.374C505.471 200.308 505.812 200.538 505.875 200.887C506.19 202.567 506.445 204.113 506.648 205.591C507.667 205.5 508.678 205.329 509.655 205.081C510.001 204.989 510.344 205.202 510.431 205.544C510.517 205.889 510.309 206.236 509.968 206.322C508.943 206.582 507.882 206.763 506.814 206.861C506.833 207.018 506.851 207.173 506.87 207.33C506.91 207.679 506.665 207.995 506.316 208.04C506.319 208.037 506.314 208.037 506.312 208.037ZM512.872 204.647C512.716 204.331 512.847 203.944 513.164 203.79C514.326 203.216 515.407 202.515 516.377 201.707C516.982 201.203 517.557 200.645 518.089 200.05C518.325 199.788 518.73 199.762 518.991 200.001C519.255 200.238 519.276 200.643 519.04 200.905C518.468 201.547 517.846 202.147 517.195 202.691C516.148 203.562 514.982 204.319 513.73 204.938C513.664 204.97 513.599 204.989 513.529 204.999C513.265 205.036 512.996 204.9 512.872 204.647ZM499.424 206.247C497.216 205.666 495.174 204.755 493.356 203.537C493.062 203.34 492.985 202.941 493.181 202.646C493.378 202.351 493.777 202.271 494.069 202.471C495.768 203.612 497.679 204.464 499.749 205.008C500.09 205.097 500.293 205.448 500.204 205.79C500.137 206.051 499.919 206.231 499.667 206.264C499.588 206.273 499.506 206.268 499.424 206.247ZM520.501 197.883C520.192 197.71 520.085 197.318 520.258 197.009C521.267 195.219 521.987 193.246 522.395 191.145C522.463 190.798 522.8 190.568 523.145 190.639C523.493 190.707 523.718 191.044 523.65 191.391C523.213 193.628 522.447 195.73 521.37 197.642C521.267 197.825 521.087 197.937 520.895 197.963C520.765 197.979 520.624 197.953 520.501 197.883ZM490.291 200.943C489.892 200.519 489.513 200.074 489.167 199.617C488.16 198.298 487.382 196.751 486.917 195.142C486.819 194.802 487.016 194.446 487.354 194.348C487.691 194.249 488.048 194.446 488.146 194.786C488.567 196.243 489.273 197.644 490.184 198.839C490.504 199.258 490.854 199.671 491.223 200.064C491.466 200.322 491.455 200.727 491.198 200.971C491.095 201.067 490.971 201.123 490.843 201.14C490.644 201.166 490.438 201.1 490.291 200.943ZM503.845 197.342C503.263 194.865 502.599 192.982 501.753 191.412C501.585 191.1 501.702 190.711 502.013 190.543C502.324 190.376 502.711 190.491 502.88 190.803C503.781 192.476 504.482 194.46 505.092 197.049C505.172 197.393 504.959 197.738 504.616 197.82C504.595 197.825 504.573 197.829 504.55 197.832C504.225 197.871 503.919 197.665 503.845 197.342ZM523.409 188.05C523.057 188.045 522.774 187.755 522.776 187.401C522.786 186.445 522.73 185.484 522.608 184.547C522.461 183.411 522.215 182.291 521.881 181.215C521.776 180.878 521.963 180.517 522.3 180.412C522.638 180.304 522.996 180.494 523.101 180.831C523.458 181.975 523.72 183.169 523.877 184.381C524.005 185.379 524.066 186.4 524.057 187.415C524.052 187.738 523.811 188.003 523.5 188.043C523.472 188.047 523.442 188.05 523.409 188.05ZM487.062 191.761C486.712 191.728 486.453 191.414 486.488 191.06C486.667 189.191 487.429 187.586 488.688 186.419C489.144 185.997 489.66 185.641 490.219 185.365C490.534 185.208 490.92 185.339 491.074 185.655C491.23 185.972 491.1 186.358 490.784 186.515C490.336 186.738 489.922 187.021 489.555 187.361C488.516 188.324 487.913 189.61 487.761 191.185C487.73 191.487 487.497 191.721 487.207 191.759C487.16 191.763 487.111 191.766 487.062 191.761ZM499.578 188.446C498.167 187.063 496.16 186.129 494.216 185.946C493.864 185.913 493.607 185.599 493.639 185.248C493.672 184.894 493.985 184.638 494.335 184.669C496.597 184.882 498.833 185.925 500.473 187.53C500.725 187.776 500.73 188.183 500.482 188.436C500.38 188.544 500.247 188.605 500.109 188.624C499.922 188.647 499.725 188.589 499.578 188.446Z" fill="#01898C"/>
<path d="M485.068 241.57C485.365 241.533 485.603 241.287 485.624 240.975C485.645 240.621 485.379 240.317 485.026 240.293C484.008 240.228 482.998 240.052 482.024 239.764C481.685 239.663 481.33 239.857 481.23 240.197C481.129 240.537 481.323 240.893 481.662 240.994C482.727 241.308 483.83 241.504 484.944 241.575C484.987 241.577 485.029 241.577 485.068 241.57Z" fill="#01898C"/>
<path d="M363.115 11.5483L340.006 1.27456L328.553 0L320.156 1.99852L363.115 11.5483Z" fill="url(#paint2_linear)"/>
<path d="M363.115 11.5481L320.904 4.51695L320.156 1.99829" fill="#B0D9C8"/>
<path d="M320.344 11.7217L320.404 11.8037L322.697 18.0804L363.011 11.5601L320.344 11.7217Z" fill="#63C1C5"/>
<path d="M312.129 8.64503L317.603 3.33594L362.84 11.5011L324.701 13.6964L312.129 8.64503Z" fill="url(#paint3_linear)"/>
<path d="M226.4 98.7975C227.708 98.2024 228.993 97.5042 230.222 96.7216C230.505 96.5436 230.874 96.6279 231.054 96.9067C231.232 97.1879 231.15 97.5604 230.867 97.7408C229.594 98.5538 228.255 99.2801 226.898 99.8963C226.405 100.121 225.909 100.332 225.409 100.531C225.227 100.606 225.029 100.583 224.872 100.484C224.765 100.419 224.676 100.318 224.629 100.194C224.505 99.8846 224.657 99.5332 224.966 99.409C225.447 99.2192 225.926 99.013 226.4 98.7975Z" fill="#01898C"/>
<path d="M299.676 5.21759C301.568 5.2949 303.545 5.43313 305.716 5.64166C306.047 5.67446 306.288 5.96732 306.258 6.30002C306.225 6.63272 305.93 6.87638 305.601 6.84358C303.452 6.6374 301.498 6.49917 299.629 6.4242C299.522 6.41951 299.424 6.38671 299.34 6.33516C299.16 6.22505 299.043 6.02355 299.052 5.79629C299.064 5.46359 299.344 5.20353 299.676 5.21759Z" fill="#01898C"/>
<path d="M289.71 6.55348C289.556 6.45742 289.444 6.29342 289.425 6.09661C289.395 5.76391 289.636 5.4687 289.967 5.43824C291.89 5.25315 293.932 5.15475 296.035 5.14772C296.367 5.14538 296.64 5.41716 296.638 5.74985C296.64 6.08255 296.371 6.35433 296.037 6.35667C293.972 6.3637 291.967 6.45976 290.08 6.64017C289.949 6.65423 289.82 6.62143 289.71 6.55348Z" fill="#01898C"/>
<path d="M237.338 90.534C237.555 90.281 237.934 90.2435 238.186 90.4708C238.439 90.6887 238.467 91.0682 238.249 91.3213C236.92 92.8723 235.441 94.3085 233.85 95.5901C233.647 95.7541 233.369 95.7635 233.158 95.6346C233.102 95.5994 233.049 95.5549 233.004 95.4987C232.796 95.2386 232.836 94.8591 233.095 94.6506C234.628 93.4158 236.055 92.0312 237.338 90.534Z" fill="#01898C"/>
<path d="M239.66 88.5568C239.385 88.3694 239.317 87.9922 239.504 87.718C239.807 87.2729 240.1 86.8207 240.38 86.3638C241.132 85.1338 241.803 83.8499 242.37 82.5472C242.504 82.2426 242.859 82.102 243.163 82.2356C243.459 82.3691 243.609 82.7253 243.473 83.0298C242.884 84.384 242.188 85.7172 241.406 86.9941C241.114 87.4697 240.812 87.9383 240.497 88.3998C240.314 88.6669 239.957 88.7419 239.686 88.5732C239.677 88.5685 239.667 88.5615 239.66 88.5568Z" fill="#01898C"/>
<path d="M244.001 79.9717C243.951 79.9576 243.907 79.9366 243.865 79.9108C243.636 79.7702 243.522 79.4844 243.606 79.2149C244.166 77.4179 244.603 75.5225 244.94 73.4256C244.994 73.0952 245.302 72.8726 245.629 72.9242C245.956 72.978 246.18 73.2873 246.127 73.6153C245.781 75.7732 245.33 77.7225 244.751 79.5734C244.657 79.8944 244.318 80.0701 244.001 79.9717Z" fill="#01898C"/>
<path d="M255.44 27.2563C254.994 27.9123 254.564 28.5777 254.151 29.2524C253.527 30.2716 252.938 31.3213 252.401 32.3756C252.249 32.6731 251.887 32.7903 251.59 32.638C251.576 32.631 251.562 32.6239 251.548 32.6146C251.284 32.4529 251.183 32.1085 251.328 31.825C251.88 30.7449 252.482 29.6671 253.122 28.6198C253.545 27.9263 253.987 27.2445 254.447 26.5745C254.634 26.3003 254.987 26.1973 255.284 26.4175C255.557 26.6073 255.627 26.9821 255.44 27.2563Z" fill="#01898C"/>
<path d="M250.903 35.617C250.139 37.4585 249.499 39.354 248.996 41.2517C248.912 41.5751 248.583 41.7672 248.26 41.6805C248.202 41.6641 248.148 41.6407 248.099 41.6126C247.88 41.4767 247.763 41.2072 247.833 40.9448C248.347 38.9932 249.006 37.0462 249.791 35.1531C249.919 34.8462 250.272 34.6986 250.578 34.8274C250.879 34.9516 251.031 35.3077 250.903 35.617Z" fill="#01898C"/>
<path d="M261.556 19.9651C260.138 21.3544 258.797 22.8399 257.566 24.3839C257.374 24.6252 257.036 24.6791 256.781 24.5221C256.76 24.508 256.739 24.494 256.718 24.4776C256.458 24.2691 256.416 23.8895 256.624 23.6294C257.886 22.048 259.262 20.525 260.713 19.1005C260.951 18.8686 261.332 18.8686 261.566 19.1099C261.797 19.3489 261.792 19.7308 261.556 19.9651Z" fill="#01898C"/>
<path d="M272.018 12.151C271.822 12.2588 271.59 12.247 271.413 12.1369C271.326 12.083 271.254 12.0081 271.2 11.9143C271.039 11.6215 271.146 11.256 271.436 11.0943C273.223 10.1079 275.078 9.23168 276.95 8.49366C277.261 8.37183 277.609 8.52412 277.73 8.83338C277.852 9.14265 277.7 9.49409 277.391 9.61592C275.569 10.3375 273.761 11.1904 272.018 12.151Z" fill="#01898C"/>
<path d="M246.477 60.8817C246.368 60.8794 246.265 60.8466 246.178 60.7927C246.003 60.6849 245.884 60.4858 245.891 60.2632L245.91 59.4994C245.956 57.7375 246.003 55.9756 246.083 54.2161C246.097 53.8834 246.379 53.6257 246.711 53.6397C247.043 53.6561 247.3 53.9349 247.286 54.27C247.209 56.0201 247.162 57.7773 247.115 59.5298L247.094 60.2936C247.087 60.6287 246.809 60.8911 246.477 60.8817Z" fill="#01898C"/>
<path d="M264.193 17.556C263.99 17.7294 263.705 17.7434 263.49 17.6099C263.436 17.5771 263.387 17.5349 263.345 17.4834C263.13 17.228 263.163 16.8484 263.418 16.6329C264.969 15.3185 266.614 14.0908 268.303 12.9826C268.583 12.7998 268.953 12.8795 269.137 13.1583C269.319 13.4371 269.24 13.812 268.962 13.9947C267.312 15.0748 265.707 16.2721 264.193 17.556Z" fill="#01898C"/>
<path d="M246.403 63.2977C246.737 63.3118 246.994 63.5906 246.98 63.9257C246.889 66.2944 246.765 68.2203 246.592 69.9892C246.559 70.3219 246.265 70.5632 245.933 70.5304C245.84 70.521 245.753 70.4906 245.679 70.4437C245.487 70.3266 245.37 70.1087 245.394 69.8697C245.566 68.1265 245.688 66.2241 245.779 63.8788C245.791 63.5438 246.071 63.286 246.403 63.2977Z" fill="#01898C"/>
<path d="M221.6 100.559C221.918 100.468 222.252 100.651 222.345 100.972C222.439 101.293 222.254 101.625 221.934 101.719C220.098 102.253 218.152 102.68 215.986 103.024C215.838 103.048 215.694 103.015 215.577 102.942C215.432 102.853 215.327 102.703 215.296 102.523C215.245 102.192 215.467 101.883 215.796 101.832C217.911 101.494 219.81 101.077 221.6 100.559Z" fill="#01898C"/>
<path d="M247.743 44.0429C248.07 44.1038 248.289 44.4131 248.231 44.7434C247.913 46.5545 247.673 48.4945 247.5 50.6757C247.474 51.0084 247.184 51.2568 246.853 51.231C246.754 51.224 246.663 51.1935 246.584 51.1443C246.397 51.0295 246.28 50.8163 246.299 50.582C246.474 48.3633 246.717 46.3835 247.044 44.5349C247.105 44.2045 247.416 43.9843 247.743 44.0429Z" fill="#01898C"/>
<path d="M284.261 6.29809C284.955 6.15283 285.649 6.02397 286.347 5.90916C286.674 5.85528 286.985 6.07786 287.039 6.40821C287.092 6.73856 286.87 7.04783 286.541 7.10172C285.861 7.21184 285.184 7.33835 284.506 7.47893C283.251 7.74134 281.99 8.06466 280.756 8.44188C280.586 8.49342 280.408 8.46531 280.266 8.37862C280.144 8.30364 280.048 8.1865 280.004 8.04123C279.906 7.7226 280.086 7.38287 280.403 7.28681C281.674 6.89788 282.971 6.56753 284.261 6.29809Z" fill="#01898C"/>
<path d="M74.2024 176.697C73.4011 178.782 72.1815 179.229 69.1231 178.046C66.0648 176.863 64.2331 174.213 65.0368 172.126C65.8382 170.04 68.9689 169.307 72.0296 170.49C75.0856 171.673 75.0038 174.609 74.2024 176.697Z" fill="#F8B68F"/>
<path d="M58.707 169.836L60.4336 171.542C60.4406 171.535 61.6555 170.34 63.3868 170.434C64.7209 170.506 66.0783 171.317 67.4217 172.842C68.8937 174.515 69.6273 176.096 69.5455 177.413C69.4661 178.711 68.6366 179.4 68.6016 179.428L70.0992 181.34C70.2651 181.211 71.7347 180.019 71.9053 177.732C72.0571 175.703 71.1342 173.538 69.1647 171.298C67.3493 169.234 65.3984 168.14 63.3704 168.044C60.6018 167.915 58.7818 169.757 58.707 169.836Z" fill="#00666A"/>
<path d="M32.5703 179.607L56.4531 206.758L73.8738 191.347L49.9909 164.197L32.5703 179.607Z" fill="#212B53"/>
<path d="M49.3183 187.166C48.2553 188.105 48.58 188.719 49.1314 189.347C49.6805 189.973 50.2482 190.373 51.3113 189.434L55.0074 186.163C62.7011 193.269 68.0257 196.524 68.0257 196.524L67.5561 196.938L54.2831 208.679C53.0542 209.766 51.6407 210.169 51.0052 209.445L29.2301 184.692C28.5946 183.97 29.1694 182.611 30.3983 181.526L44.0942 169.411C47.7693 176.238 48.0637 176.632 53.0378 183.874L49.3183 187.166Z" fill="#FFD247"/>
<path d="M54.7835 162.086L76.5586 186.84C77.1941 187.561 76.6193 188.92 75.3904 190.005L68.7247 195.902C63.4772 192.84 59.2109 189.126 55.8162 185.443L56.718 184.647C57.7811 183.707 57.4563 183.093 56.9049 182.468C56.3535 181.842 55.7881 181.441 54.7251 182.381L53.8256 183.175C47.4986 175.598 44.8398 168.75 44.8398 168.75L51.5055 162.853C52.7345 161.768 54.148 161.362 54.7835 162.086Z" fill="#F7A605"/>
<path d="M50.603 185.396L51.7478 184.384C52.0189 184.145 52.4324 184.171 52.6707 184.442L54.3996 186.406C54.6379 186.678 54.6122 187.092 54.3412 187.331L53.1964 188.343C52.9254 188.582 52.5118 188.557 52.2759 188.285L50.5469 186.321C50.3086 186.05 50.332 185.635 50.603 185.396ZM52.5305 184.567C52.36 184.372 52.0656 184.356 51.8717 184.524L50.7268 185.537C50.5329 185.708 50.5142 186.003 50.6848 186.197L52.4137 188.161C52.5843 188.355 52.8786 188.371 53.0726 188.203L54.2174 187.191C54.4113 187.02 54.43 186.724 54.2594 186.53L52.5305 184.567Z" fill="white"/>
<path d="M52.4923 186.121C52.4269 186.18 52.4245 186.283 52.4853 186.351C52.546 186.421 52.6488 186.431 52.7142 186.372L54.3123 184.959C54.3777 184.901 54.3801 184.798 54.3193 184.73C54.2586 184.659 54.1558 184.65 54.0904 184.709L52.4923 186.121Z" fill="white"/>
<path d="M131.358 130.4L113.384 126.005C97.6883 130.641 70.7031 171.305 70.7031 171.305L74.4133 175.265C74.4133 175.265 101.581 151.224 104.279 152.262L122.403 162.65L131.358 130.4Z" fill="#F8B68F"/>
<path d="M65.6016 171.227C65.6016 171.227 68.3188 171.131 69.6505 173.385C70.9846 175.639 69.5454 177.415 69.5454 177.415L66.1413 173.767L65.6016 171.227Z" fill="#F8B68F"/>
<path d="M41.9494 262.065L37.8571 267.324C34.9921 268.13 35.3956 268.337 33.4718 266.098L33.125 265.694L36.6104 260.232L41.9494 262.065Z" fill="#F8B68F"/>
<path d="M39.191 266.666C39.191 266.666 38.7657 272.111 49.5809 275.354C51.8004 276.019 51.0785 276.677 51.4944 277.612C47.9431 277.612 39.0485 277.612 39.0485 277.612L34.1748 272.118L32.6585 273.423L29.1445 269.96C29.1445 269.96 30.7847 264.951 33.4598 264.906C35.67 265.661 39.191 266.666 39.191 266.666Z" fill="#212B53"/>
<path d="M92.0387 165.257L33.8184 262.306C33.8184 262.306 30.919 262.306 41.5449 262.306C52.1707 262.306 126.865 167.513 126.865 167.513L92.0387 165.257Z" fill="#212B53"/>
<path d="M144.874 112.983L140.895 121.788L131.809 116.962L141.061 105.111L144.874 112.983Z" fill="#F4A086"/>
<path d="M149.679 114.396C150.861 114.564 151.982 114.574 152.632 114.206C156.868 109.836 155.267 95.8304 155.267 95.8304L150.232 92.6135L142.606 95.7484L140.695 104.623C140.186 106.992 140.938 109.478 142.726 111.317C144.7 112.917 147.104 114.028 149.679 114.396Z" fill="#F8B68F"/>
<path d="M142.829 101.001C143.462 99.5629 143.855 96.0649 145.336 96.5757C146.418 96.9482 150.203 97.7565 151.488 97.9767C154.546 98.4992 160.2 98.2298 160.992 93.565C161.389 91.2314 159.474 88.8346 158.146 87.9935C156.843 87.1665 155.254 86.9251 153.735 87.1828C150.168 87.7873 145.261 89.6289 143.542 88.9658C140.649 87.8506 137.36 89.1017 136.97 91.6625C136.551 94.3968 137.273 98.7406 138.168 101.576C138.684 103.216 139.49 104.743 140.542 106.102L142.829 101.001Z" fill="#212B53"/>
<path d="M139.671 100.81C140.453 100.323 141.71 100.656 142.477 101.553C143.243 102.45 143.227 103.57 142.444 104.058C141.661 104.545 140.404 104.212 139.638 103.315C138.874 102.418 138.888 101.295 139.671 100.81Z" fill="#F8B68F"/>
<path d="M137.785 112.691C135.224 110.819 105.204 110.257 91.1484 164.144C101.739 165.672 120.797 168.56 120.797 168.56L130.409 169.847C130.407 169.844 156.347 126.261 137.785 112.691Z" fill="#FFDB71"/>
<path d="M149.391 237.79C149.391 237.79 153.137 241.524 161.884 244.083C163.809 244.648 165.926 244.055 165.816 247.269C161.695 247.126 155.109 246.899 155.109 246.899L146.256 245.046L146.202 246.59L141.392 246.423C141.392 246.423 140.324 238.488 143.167 237.574C145.77 237.663 149.391 237.79 149.391 237.79Z" fill="#212B53"/>
<path d="M148.64 232.09L149.39 237.788C147.593 238.947 145.285 238.945 143.49 237.783L143.168 237.574L143.843 231.923L148.64 232.09Z" fill="#F8B68F"/>
<path d="M91.0755 164.287C91.0755 164.287 90.1105 186.854 108.096 193.367C119.586 197.528 150.277 193.709 150.277 193.709C150.277 193.709 141.146 207.334 143.228 233.535C149.525 236.297 150.882 233.635 150.882 233.635C150.882 233.635 177.117 186.137 169.167 176.765C161.218 167.394 124.481 166.7 124.481 166.7L91.0755 164.287Z" fill="#043C5E"/>
<path d="M176.543 143.734C177.045 143.886 178.816 144.235 182.298 143.019C185.421 141.927 191.29 137.604 191.33 141.372C189.103 144.359 186.821 148.157 186.821 148.157C185.307 149.823 181.704 150.432 179.391 150.352L172.302 149.19C172.302 149.19 170.475 145.997 170.363 145.861L171.459 145.61C173.216 145.577 174.908 144.331 176.543 143.734Z" fill="#F8B68F"/>
<path d="M178.142 144.697C178.142 144.697 178.305 144.809 178.63 144.936C178.298 145.289 177.987 145.662 177.691 146.039C176.128 146.801 174.588 147.611 173.034 148.389C172.745 147.363 172.336 145.922 172.289 145.826L181.518 138.551C181.518 138.551 182.807 139.341 181.424 141.445C180.044 143.549 178.142 144.697 178.142 144.697Z" fill="#F8B68F"/>
<path d="M121.727 133.261C121.727 133.261 126.591 164.026 137.357 164.241C148.125 164.457 180.057 148.86 180.057 148.86L176.552 144.019L142.885 151.057L137.371 127.342L121.727 133.261Z" fill="#F8B68F"/>
<path d="M409.748 96.6866C409.134 96.5601 408.508 96.4335 407.835 96.3047C388.756 92.6356 381.995 77.8634 382.004 66.3292C382.006 61.3903 384.221 56.8544 387.782 54.4927C390.952 52.3864 394.632 52.288 397.873 54.2139L402.749 57.1144L407.678 70.5629L407.805 71.0689C408.223 74.2132 409.19 77.2191 410.676 80.0025L411.033 80.6726L410.931 81.4434C410.767 82.6665 410.681 83.6107 410.646 84.5057C410.526 87.6265 410.973 90.7402 411.973 93.7579L413.174 97.3848L409.748 96.6866ZM403.915 71.985L399.611 60.2446L395.994 58.0938C394.013 56.9153 391.761 56.9809 389.814 58.2695C387.445 59.8416 385.971 62.9296 385.969 66.3315C385.962 75.9141 391.571 88.1419 407.291 91.7149C406.791 89.2806 406.585 86.8088 406.681 84.3276C406.713 83.4748 406.786 82.6032 406.91 81.5747C405.398 78.5663 404.391 75.3448 403.915 71.985Z" fill="#FCBC00"/>
<path d="M441.43 97.4726L442.652 93.8527C443.67 90.8397 444.133 87.7283 444.032 84.6075C444.004 83.7125 443.92 82.766 443.764 81.543L443.666 80.7721L444.028 80.1021C445.53 77.328 446.514 74.3267 446.951 71.1849L447.079 70.6788L452.086 57.2585L456.978 54.386C460.231 52.4765 463.908 52.5984 467.069 54.7234C470.616 57.1062 472.803 61.6538 472.779 66.5927C472.721 78.127 465.878 92.8617 446.775 96.4206C446.102 96.5471 445.474 96.669 444.86 96.7908L441.43 97.4726ZM447.782 81.6906C447.899 82.7215 447.967 83.593 447.995 84.4459C448.077 86.927 447.857 89.3988 447.343 91.8308C463.081 88.3492 468.761 76.1519 468.81 66.5716C468.826 63.1697 467.371 60.0747 465.011 58.4885C463.074 57.1882 460.819 57.1085 458.833 58.2776L455.205 60.4074L450.834 72.122C450.336 75.4795 449.313 78.694 447.782 81.6906Z" fill="#FAB746"/>
<path d="M432.973 111.351C439.931 80.0306 414.618 79.958 421.396 111.318C428.174 142.678 416.922 147.723 416.922 147.723C423.578 149.665 430.571 149.686 437.239 147.781C437.239 147.781 426.015 142.674 432.973 111.351Z" fill="#FF9C00"/>
<path d="M459.534 45.1448C459.541 45.1261 459.573 45.1097 459.573 45.0909C459.578 43.8749 445.163 42.8487 427.378 42.7972C409.594 42.7456 395.173 43.6898 395.169 44.9058C395.169 44.9246 395.204 44.9433 395.211 44.9621C395.159 46.1077 393.131 94.815 420.913 111.042C420.762 111.295 420.649 111.574 420.649 111.888V112.246C420.647 113.177 421.402 113.938 422.329 113.94L432.021 113.968C432.948 113.971 433.707 113.214 433.71 112.284V111.925C433.71 111.611 433.602 111.33 433.45 111.077C461.34 95.0071 459.576 46.246 459.534 45.1448Z" fill="#FF9C00"/>
<path d="M441.43 97.4726L442.652 93.8527C443.67 90.8397 444.133 87.7283 444.032 84.6075C444.004 83.7125 443.92 82.766 443.764 81.543L443.666 80.7721L444.028 80.1021C445.53 77.328 446.514 74.3267 446.951 71.1849L447.079 70.6788L452.086 57.2585L456.978 54.386C460.231 52.4765 463.908 52.5984 467.069 54.7234C470.616 57.1062 472.803 61.6538 472.779 66.5927C472.721 78.127 465.878 92.8617 446.775 96.4206C446.102 96.5471 445.474 96.669 444.86 96.7908L441.43 97.4726ZM447.782 81.6906C447.899 82.7215 447.967 83.593 447.995 84.4459C448.077 86.927 447.857 89.3988 447.343 91.8308C463.081 88.3492 468.761 76.1519 468.81 66.5716C468.826 63.1697 467.371 60.0747 465.011 58.4885C463.074 57.1882 460.819 57.1085 458.833 58.2776L455.205 60.4074L450.834 72.122C450.336 75.4795 449.313 78.694 447.782 81.6906Z" fill="#FCBC00"/>
<path d="M459.536 45.1451C459.543 45.1264 459.576 45.11 459.576 45.0912C459.581 43.8753 445.165 42.8491 427.381 42.7975C426.918 42.7952 426.458 42.7952 426 42.7952C427.012 46.0214 427.944 49.2663 428.885 52.4691C431.439 61.1544 432.946 70.1419 433.801 79.1481C434.773 89.3821 435.271 99.7425 435.11 110.054C461.268 93.0441 459.578 46.2229 459.536 45.1451Z" fill="#FCBC00"/>
<path d="M448.529 55.2059L464.622 53.0316L448.715 49.9202L446.545 33.7844L443.445 49.7351L427.352 51.9094L443.258 55.0208L445.428 71.1566L448.529 55.2059Z" fill="white"/>
<path d="M441.398 151.282L412.385 151.198C411.544 151.196 410.857 150.505 410.859 149.659L410.864 147.658C410.866 146.814 411.556 146.126 412.399 146.128L441.412 146.212C442.253 146.215 442.94 146.906 442.938 147.752L442.933 149.752C442.931 150.598 442.239 151.285 441.398 151.282Z" fill="#FFD247"/>
<path d="M446.445 156.048L407.313 155.936C406.247 155.933 405.38 155.057 405.383 153.989L405.392 151.074C405.395 150.006 406.268 149.137 407.334 149.139L446.466 149.251C447.531 149.254 448.398 150.13 448.396 151.198L448.386 154.113C448.382 155.181 447.51 156.051 446.445 156.048Z" fill="#FF9C00"/>
<path d="M93.9646 277.609H0V299H93.9646V277.609Z" fill="#01898C"/>
<path d="M188.176 247.537H94.2109V268.928H188.176V247.537Z" fill="#01898C"/>
<path d="M282.14 216.306H188.176V237.697H282.14V216.306Z" fill="#01898C"/>
<path d="M376.043 185.91H282.078V207.301H376.043V185.91Z" fill="#01898C"/>
<path d="M470.008 155.01H376.043V176.401H470.008V155.01Z" fill="#01898C"/>
<path d="M399.677 32.141C400.18 31.6302 400.177 30.8102 399.668 30.3041L387.241 17.9756C386.731 17.4719 385.914 17.4742 385.409 17.985C384.907 18.4957 384.911 19.3158 385.418 19.8218L397.846 32.1504C398.355 32.6564 399.173 32.6518 399.677 32.141Z" fill="#FFD247"/>
<path d="M454.236 31.8439C453.727 31.3378 453.723 30.5178 454.227 30.007L466.521 17.545C467.024 17.0342 467.844 17.0295 468.353 17.5356C468.862 18.0393 468.867 18.8617 468.362 19.3724L456.068 31.8345C455.566 32.3453 454.746 32.35 454.236 31.8439Z" fill="#FFD247"/>
<path d="M430.842 27.422C431.557 27.4173 432.135 26.8339 432.13 26.117L432.034 8.58713C432.029 7.87019 431.448 7.29148 430.733 7.29617C430.018 7.30086 429.441 7.88425 429.445 8.60119L429.541 26.131C429.546 26.848 430.128 27.4267 430.842 27.422Z" fill="#FFD247"/>
<defs>
<linearGradient id="paint0_linear" x1="496.791" y1="149.573" x2="528.796" y2="160.909" gradientUnits="userSpaceOnUse">
<stop offset="6.3e-07" stop-color="#F1F8F8"/>
<stop offset="1" stop-color="#C0E4EF"/>
</linearGradient>
<linearGradient id="paint1_linear" x1="493.354" y1="159.275" x2="519.164" y2="168.417" gradientUnits="userSpaceOnUse">
<stop offset="6.3e-07" stop-color="#F1F8F8"/>
<stop offset="1" stop-color="#C0E4EF"/>
</linearGradient>
<linearGradient id="paint2_linear" x1="320.677" y1="7.97445" x2="362.488" y2="4.33741" gradientUnits="userSpaceOnUse">
<stop offset="6.3e-07" stop-color="#F1F8F8"/>
<stop offset="1" stop-color="#C0E4EF"/>
</linearGradient>
<linearGradient id="paint3_linear" x1="312.236" y1="9.86664" x2="362.318" y2="5.51014" gradientUnits="userSpaceOnUse">
<stop offset="6.3e-07" stop-color="#F1F8F8"/>
<stop offset="1" stop-color="#C0E4EF"/>
</linearGradient>
</defs>
</svg>
