<svg width="52" height="210" viewBox="0 0 52 210" fill="none" xmlns="http://www.w3.org/2000/svg">
<path d="M15.7877 40.8606L6.32819 58.6999L16.7549 58.1893L17.4883 40.2861L15.7877 40.8606Z" fill="#F8B68F"/>
<path d="M30.6426 32.9579L21.9059 32.9473L18.2815 89.4757H33.9375L30.6426 32.9579Z" fill="white"/>
<path d="M46.6877 198.906C46.6877 198.906 48.8454 200.608 48.4521 202.767C48.0588 204.937 47.4955 210.001 47.4955 210.001H45.2741L45.3379 205.267C45.3273 204.958 40.5763 210.001 39.7685 210.001H28.0132C28.0132 210.001 27.2373 206.809 34.1353 205.788C41.0439 204.756 46.6877 198.906 46.6877 198.906Z" fill="#043C5E"/>
<path d="M41.5981 196.746L40.0038 200.895C39.6105 202.033 38.8453 203.001 37.8356 203.65C36.7196 204.373 34.9552 205.373 32.3512 206.139C35.5398 208.862 40.6309 206.022 43.5325 204.001C44.9461 203.022 45.9559 201.554 46.3704 199.884L47.04 196.746H41.5981Z" fill="#F8B68F"/>
<path d="M24.301 198.906C24.301 198.906 26.4586 200.608 26.0654 202.767C25.6721 204.926 25.1088 210.001 25.1088 210.001H22.8874L22.9512 205.267C22.9406 204.958 18.1896 210.001 17.3818 210.001H5.63711C5.63711 210.001 4.86122 206.809 11.7592 205.788C18.6572 204.756 24.301 198.906 24.301 198.906Z" fill="#043C5E"/>
<path d="M19.21 196.746L17.6157 200.895C17.2224 202.033 16.4572 203.001 15.4474 203.65C14.3314 204.373 12.5671 205.373 9.96305 206.139C13.1516 208.862 18.2428 206.022 21.1444 204.001C22.558 203.022 23.5677 201.554 23.9823 199.884L24.6519 196.746H19.21Z" fill="#F8B68F"/>
<path d="M37.3438 89.4756C37.3438 89.4756 38.8106 97.9219 30.3714 139.451C37.2056 161.088 26.2581 197.309 26.2581 197.309H18.2866L12.8554 89.4756H37.3438Z" fill="#01898C"/>
<path d="M22.8663 32.958L20.0285 101.539L10.6328 97.5179C10.6328 97.5179 14.863 84.6464 14.4591 66.7538C15.8939 53.8184 8.56017 60.6372 17.5414 35.7344C20.9 32.9474 22.8663 32.958 22.8663 32.958Z" fill="#FFDB71"/>
<path d="M21.6344 25.8835L22.7398 31.6704C23.2287 34.2128 26.1091 35.4787 28.3092 34.0958L32.1674 31.681L25.2907 16.1182L21.6344 25.8835Z" fill="#F4A086"/>
<path d="M45.0273 89.4756C45.0273 89.4756 55.4753 97.9219 47.0361 139.451C53.8704 161.088 47.8439 197.309 47.8439 197.309H40.6802L20.5389 89.4756H45.0273Z" fill="#63C1C5"/>
<path d="M30.647 27.1492C30.647 27.1492 39.4688 32.1169 42.211 36.5422C44.8257 40.7654 45.7291 50.3712 45.9842 58.9345C46.3243 70.6784 52 101.549 52 101.549H28.3512L27.7667 34.3615L30.647 27.1492Z" fill="#FFDB71"/>
<path d="M13.2368 8.5336C18.583 7.17198 23.7273 12.661 23.7273 12.661L27.7555 34.3512L33.9414 24.8092C33.9414 24.8092 34.2921 11.8419 28.3082 3.24668C24.0249 -1.95513 15.7983 -0.46586 11.6425 4.59766C9.62302 7.05496 9.19787 10.459 9.39982 13.5758C9.66553 17.7671 10.8559 41.8613 10.8559 41.8613L23.1108 32.7768C23.1108 32.7768 22.8132 30.3301 21.644 25.873C19.6246 18.2139 9.64428 9.44843 13.2368 8.5336Z" fill="#212B53"/>
<path d="M25.3328 12.3319C24.5463 12.0127 23.5153 12.5446 23.0476 13.5233C22.58 14.5019 22.8351 15.5551 23.6216 15.8742C24.4081 16.1933 25.4391 15.6615 25.9067 14.6828C26.3744 13.7041 26.1193 12.651 25.3328 12.3319Z" fill="#F8B68F"/>
<path d="M19.5923 26.894C18.5932 27.2557 17.626 27.4684 16.9776 27.2344C12.3223 23.8623 10.643 10.3844 10.643 10.3844L14.3311 6.46973L21.6649 8.08665L25.2786 16.1181C26.2458 18.2562 26.1289 20.7348 24.981 22.7879C23.6099 24.6282 21.7499 26.0962 19.5923 26.894Z" fill="#F8B68F"/>
<path d="M12.0063 8.25709C12.389 12.3313 23.7297 12.6717 23.7297 12.6717L24.325 7.15077L17.7139 3.5127L12.4846 6.66144C12.474 6.6508 11.9532 7.57628 12.0063 8.25709Z" fill="#212B53"/>
<path d="M12.2573 9.04404C12.6293 10.5652 11.0987 13.2034 11.0987 13.2034L10.1953 11.5758L10.2166 10.161L11.1094 9.05468C11.1094 9.06532 11.8746 7.52286 12.2573 9.04404Z" fill="#212B53"/>
<path d="M39.799 36.5421C51.2461 37.8824 45.8361 67.4232 43.3809 79.5607C42.7751 82.5499 39.7246 84.3689 36.823 83.4541C26.864 80.316 12.324 67.2636 12.324 67.2636L14.6304 64.3595L33.9533 68.8699C33.9426 68.8592 26.5345 34.989 39.799 36.5421Z" fill="#F8B68F"/>
<path d="M16.9048 57.4128L20.6461 80.5603C20.7524 81.2305 20.2422 81.8368 19.562 81.8368H4.7669C4.22484 81.8368 3.76781 81.4432 3.68278 80.9114L0.0158863 57.7638C-0.0904007 57.0936 0.430408 56.4873 1.10001 56.4873H15.8207C16.3521 56.4873 16.8198 56.8809 16.9048 57.4128Z" fill="#043C5E"/>
<path d="M0.485795 67.6581C0.390138 66.8496 0.475164 66.339 0.740881 64.6476C1.09163 62.4563 0.995967 59.0309 3.23861 60.733C5.35372 63.3817 5.59818 66.2007 5.59818 66.2007C6.02332 67.7538 5.07738 69.9132 4.18457 71.094L2.64341 74.4449C2.64341 74.4555 -0.00312281 71.36 0.485795 67.6581Z" fill="#F8B68F"/>
<path d="M10.168 65.4772C10.168 66.1048 9.6578 66.6048 9.04133 66.6048C8.41424 66.6048 7.91469 66.0942 7.91469 65.4772C7.91469 64.8496 8.42487 64.3496 9.04133 64.3496C9.6578 64.3496 10.168 64.8602 10.168 65.4772Z" fill="url(#paint0_linear)"/>
<defs>
<linearGradient id="paint0_linear" x1="10.1637" y1="65.479" x2="7.90608" y2="65.479" gradientUnits="userSpaceOnUse">
<stop stop-color="#E0F0EB"/>
<stop offset="1" stop-color="#C0E4EF"/>
</linearGradient>
</defs>
</svg>
