<svg width="70" height="210" viewBox="0 0 70 210" fill="none" xmlns="http://www.w3.org/2000/svg">
<path d="M28.1111 202.223C28.1111 202.223 26.6391 204.239 19.7493 205.99C18.2364 206.377 16.6008 206.642 16.6008 209.126C19.8311 209.126 23.4088 209.126 23.4088 209.126L30.3804 207.925V209.126H34.1422C34.1422 209.126 35.1848 202.997 32.9973 202.203C30.9528 202.223 28.1111 202.223 28.1111 202.223Z" fill="#212B53"/>
<path d="M27.7612 197.824L28.1292 202.222C29.499 203.179 31.2981 203.24 32.7292 202.385L32.995 202.222V197.824H27.7612Z" fill="#F8B68F"/>
<path d="M63.068 203.098C63.068 203.098 61.596 205.114 54.7062 206.865C53.1933 207.252 51.5578 207.516 51.5578 210C54.788 210 58.3657 210 58.3657 210L65.3373 208.799V210H69.0991C69.0991 210 70.1417 203.872 67.9542 203.077C65.8893 203.098 63.068 203.098 63.068 203.098Z" fill="#212B53"/>
<path d="M62.6996 198.698L63.0676 203.096C64.4374 204.053 66.2365 204.114 67.6676 203.259L67.9333 203.096V198.698H62.6996Z" fill="#F8B68F"/>
<path d="M24.9836 89.6398L26.6805 200.204H34.7765C34.7765 200.204 47.084 110.938 44.4671 89.6398C41.8298 68.3414 24.9836 89.6398 24.9836 89.6398Z" fill="#212B53"/>
<path d="M33.5257 89.6221C33.5257 89.6221 36.347 123.585 42.8074 142.4C49.2679 161.194 60.9621 200.227 60.9621 200.227H69.3239C69.3239 200.227 55.3399 118.678 58.5496 89.6221H33.5257Z" fill="#11375B"/>
<path d="M12.0389 19.6695L12.3251 18.0813C12.9794 14.5384 16.3731 10.1403 19.7873 9H23.3242L22.2202 16.5338L17.2114 19.6695H12.0389Z" fill="#F8B68F"/>
<path d="M20.7894 15.699L13.8792 19.6696C13.8792 19.6696 18.2134 19.6289 18.2747 19.6696L25.5734 13.5814C25.5734 13.5814 25.0418 12.5226 23.3858 13.4185C21.7502 14.3144 20.7894 15.699 20.7894 15.699Z" fill="#F8B68F"/>
<path d="M26.2484 33.3398C26.2484 33.3398 16.0547 46 13.5461 45C11.0376 44 19.5666 19 19.5666 19H11.2253C11.2253 19 2.09808e-05 40 2.09808e-05 55.5C2.09808e-05 71 30.7257 59.1585 30.7257 59.1585L26.2484 33.3398Z" fill="#FFDB71"/>
<path d="M55.9757 92.552L52.9499 99.984C51.4984 102.916 46.1419 102.977 42.605 102.061C42.0735 101.918 41.8895 101.267 42.2575 100.86C44.1997 98.7216 49.2699 93.2647 51.0282 92.043L55.9757 92.552Z" fill="#F8B68F"/>
<path d="M30.6851 28.5568C30.6851 28.5568 25.4717 32.0794 25.4717 36.111C25.4717 40.1426 25.4717 89.6216 25.4717 89.6216H55.9952V39.5929C55.9952 39.5929 55.3615 28.4753 44.4442 28.4753C33.5268 28.455 30.6851 28.5568 30.6851 28.5568Z" fill="#FFDB71"/>
<path d="M26.0045 89.6414V41.5674L24.9823 41.6081V89.6414H26.0045Z" fill="#FF9C00"/>
<path d="M41.7456 16.6035V29.2278C41.7456 29.2278 39.6398 32.0988 35.8372 32.0988C32.0345 32.0988 32.0345 29.3703 32.0345 29.3703V21.2867L37.6772 19.8207L41.7456 16.6035Z" fill="#F4A086"/>
<path d="M31.5413 23.6894C30.3759 23.6486 29.2924 23.4654 28.7199 22.9563C25.3466 17.6012 29.1902 3.12402 29.1902 3.12402L41.4568 5.32309L41.8453 15.0153C41.9475 17.6012 40.8026 20.0853 38.7786 21.6939C36.6115 23.0174 34.0968 23.7505 31.5413 23.6894Z" fill="#F8B68F"/>
<path d="M35.6927 5.56763C35.6927 5.56763 31.6243 6.32101 27.3309 5.56763C23.0581 4.81425 25.7976 0.110686 25.7976 0.110686C25.7976 0.110686 28.9665 1.55638 34.6092 0.721544C38.4118 0.171777 39.434 -0.581607 41.8669 0.721544C45.1789 2.47265 44.3816 8.43864 44.3816 8.43864L42.5621 21.0425H41.8874C41.8874 21.0425 41.7238 13.5494 41.7238 10.9839C41.0083 9.82324 40.2314 9.82324 39.6385 10.1083C38.9843 10.4137 38.6163 11.1264 38.6163 11.839V24.9316C38.6163 24.9316 30.2341 28.5357 28.1078 27.8841C25.9816 27.2325 27.3923 17.52 27.3923 17.52C27.3923 17.52 29.8456 16.4612 31.7469 18.5788C33.6278 20.676 35.9176 18.4973 35.9176 18.4973L35.6927 5.56763Z" fill="#212B53"/>
<path d="M40.6621 9.80299C39.7217 9.72155 38.8221 10.6175 38.6381 11.7984C38.4541 12.9794 39.0879 13.9975 40.0284 14.079C40.9688 14.1604 41.8684 13.2645 42.0524 12.0835C42.2159 10.9025 41.6026 9.88444 40.6621 9.80299Z" fill="#F8B68F"/>
<path d="M52.7449 31.8125C52.7449 31.8125 70 50.8915 70 62.3347C70 73.778 55.9956 93.9361 55.9956 93.9361L49.0854 91.9203C49.0854 91.9203 55.3209 66.9772 55.3209 60.3393C55.3209 53.7014 42.5023 43.9685 42.5023 43.9685" fill="#FFDB71"/>
<path d="M54.8112 60.3202C54.8112 66.0418 49.741 86.9126 48.5348 91.7791C48.8823 91.8809 49.0254 91.9012 49.557 92.0438C51.029 86.0371 55.813 65.94 55.813 60.3202C55.813 53.5194 43.3215 43.9494 42.7899 43.5625L42.1766 44.3566C42.3197 44.4584 54.8112 54.0081 54.8112 60.3202Z" fill="#FF9C00"/>
<path d="M24.0908 8.75391L27.4485 9.08258L27.6364 11.3743L24.2336 11.7539L24.0908 8.75391Z" fill="#212B53"/>
<path d="M26.9896 10.2977C27.0464 11.0371 27.3385 11.6159 27.6364 11.6105C27.9423 11.5804 28.152 10.9761 28.0952 10.2367C28.0384 9.49736 27.7464 8.91855 27.4485 8.9239C27.1426 8.95407 26.9328 9.55836 26.9896 10.2977Z" fill="#212B53"/>
<path d="M14.8546 13.1676C14.8452 13.1499 14.8406 13.141 14.8224 13.1279C14.768 12.3775 14.7315 11.1436 14.9105 9.91028C15.1875 7.9147 15.0992 7.03516 15.0992 7.03516L25.0198 7.9736C25.0198 7.9736 26.0976 8.75391 26.0976 10.2539C26.0976 11.7539 25.009 12.2818 25.009 12.2818L15.2036 13.8321C15.1097 13.6101 14.9887 13.3798 14.8546 13.1676Z" fill="#043C5E"/>
<path d="M16.2872 10.3771C16.3493 12.2635 15.907 13.8148 15.2835 13.8353C14.669 13.8512 14.1158 12.3451 14.0537 10.4587C13.9916 8.57226 14.4339 7.02091 15.0574 7.00042C15.6762 6.97107 16.2205 8.48178 16.2872 10.3771Z" fill="#63C1C5"/>
<path d="M18.059 9.04969C18.3043 9.13114 19.163 9.68091 21.923 9.68091C23.9266 9.68091 24.2343 9.82322 24.5818 8.49971C24.7045 8.03139 24.5815 5.99971 21.071 5.49971C17.5604 4.99971 17.0564 7.49971 17.0564 7.49971L18.059 9.04969Z" fill="#F8B68F"/>
<path d="M27.1099 9.50781L30.4676 9.83649L30.6554 12.1282L27.2527 12.5078L27.1099 9.50781Z" fill="#212B53"/>
<path d="M30.0086 11.0516C30.0654 11.791 30.3575 12.3698 30.6554 12.3644C30.9613 12.3343 31.171 11.73 31.1142 10.9906C31.0574 10.2513 30.7654 9.67246 30.4676 9.67781C30.1616 9.70798 29.9519 10.3123 30.0086 11.0516Z" fill="#212B53"/>
<path d="M17.8741 13.9215C17.8648 13.9038 17.8601 13.8949 17.8419 13.8818C17.7875 13.1314 17.7511 11.8975 17.93 10.6642C18.207 8.66861 18.1188 7.78906 18.1188 7.78906L28.0393 8.7275C28.0393 8.7275 29.1171 9.50781 29.1171 11.0078C29.1171 12.5078 28.0285 13.0357 28.0285 13.0357L18.2231 14.586C18.1292 14.3641 18.0082 14.1337 17.8741 13.9215Z" fill="#043C5E"/>
<path d="M19.3063 11.131C19.3684 13.0174 18.9261 14.5687 18.3026 14.5892C17.688 14.6051 17.1348 13.099 17.0727 11.2126C17.0106 9.32617 17.4529 7.77482 18.0764 7.75433C18.6952 7.72497 19.2395 9.23568 19.3063 11.131Z" fill="#63C1C5"/>
</svg>
