<svg width="65" height="210" viewBox="0 0 65 210" fill="none" xmlns="http://www.w3.org/2000/svg">
<path d="M18.6339 102C18.4269 102.478 17.8521 104.217 18.511 107.862C19.106 111.136 22.3358 117.596 18.8077 117.133C16.3226 114.506 13.0912 111.727 13.0912 111.727C11.7446 109.992 11.6716 106.296 12.0594 103.991L14.1105 97.0315C14.1105 97.0315 17.3475 95.6181 17.478 95.5127L18.4028 96.7264C18.2088 98.5041 18.2958 100.277 18.6339 102Z" fill="#F8B68F"/>
<path d="M17.5132 103.482C17.5132 103.482 17.396 103.636 17.2317 103.944C16.9527 103.561 16.6452 103.204 16.3256 102.867C15.8273 101.204 15.2796 99.5544 14.7648 97.8961C15.762 97.7345 17.1674 97.5163 17.2661 97.4899L22.7885 107.703C22.7885 107.703 21.8743 108.899 20.1033 107.225C18.3278 105.535 17.5132 103.482 17.5132 103.482Z" fill="#F8B68F"/>
<path d="M13.5467 203.165C13.5467 203.165 10.5728 205.926 3.77323 207.658C2.27273 208.037 0.664062 207.536 0.664062 210C3.84079 210 8.91005 210 8.91005 210L15.7637 208.809V210H19.4676C19.4676 210 20.495 203.936 18.3321 203.165C16.3314 203.165 13.5467 203.165 13.5467 203.165Z" fill="#212B53"/>
<path d="M13.9697 198.806L13.5506 203.165C14.9024 204.099 16.6733 204.166 18.0927 203.314L18.3495 203.165L19.8905 198.806H13.9697Z" fill="#F8B68F"/>
<path d="M46.4881 203.165C46.4881 203.165 43.5141 205.926 36.7146 207.658C35.2141 208.037 33.6055 207.536 33.6055 210C36.7822 210 41.8514 210 41.8514 210L48.705 208.809V210H52.409C52.409 210 53.4363 203.936 51.2735 203.165C49.2728 203.165 46.4881 203.165 46.4881 203.165Z" fill="#212B53"/>
<path d="M46.9111 198.806L46.492 203.165C47.8438 204.099 49.6146 204.166 51.034 203.314L51.2909 203.165L52.8319 198.806H46.9111Z" fill="#F8B68F"/>
<path d="M26.6744 89.8093H17.1983L13.8594 199.849H20.2669L39.0975 110.288L26.6744 89.8093Z" fill="#212B53"/>
<path d="M23.6016 89.8093L45.7711 199.849H52.814L49.9211 89.8093H23.6016Z" fill="#043C5E"/>
<path d="M42.0366 117.015L44.1589 116.866C44.1589 116.852 44.0778 115.363 45.1458 114.267C45.9703 113.428 47.2951 113.008 49.0795 113.008C51.0396 113.008 52.4995 113.441 53.3241 114.253C54.1352 115.066 54.1082 115.999 54.0947 116.04L56.217 116.162C56.2305 115.972 56.2981 114.321 54.8922 112.873C53.6486 111.601 51.6885 110.951 49.066 110.951C46.6462 110.951 44.7943 111.601 43.5641 112.886C41.8744 114.646 42.0231 116.92 42.0366 117.015Z" fill="#F7A605"/>
<path d="M33.2441 139.933H64.9844V119.481H33.2441V139.933Z" fill="#212B53"/>
<path d="M47.9654 133.27C47.9654 134.515 48.5602 134.664 49.2901 134.664C50.0201 134.664 50.6149 134.515 50.6149 133.27V128.925C59.7531 127.978 64.9981 126.354 64.9981 126.354V126.909V142.487C64.9981 143.922 64.4438 145.1 63.5922 145.1H34.6637C33.8121 145.1 33.2578 143.936 33.2578 142.487V126.408C39.8816 127.951 40.3142 127.978 47.9654 128.898V133.27Z" fill="#FFD247"/>
<path d="M34.6481 115.106H63.5766C64.4147 115.106 64.9825 116.27 64.9825 117.718V125.528C59.9132 127.22 54.9926 127.87 50.5993 127.978V126.922C50.5993 125.677 50.0045 125.528 49.2746 125.528C48.5446 125.528 47.9498 125.664 47.9498 126.922V127.978C39.2847 127.748 33.2422 125.528 33.2422 125.528V117.705C33.2557 116.27 33.81 115.106 34.6481 115.106Z" fill="#F7A605"/>
<path d="M47.5508 131.402V130.062C47.5508 129.751 47.8076 129.494 48.1185 129.494H50.4166C50.7275 129.494 50.9843 129.751 50.9843 130.062V131.402C50.9843 131.714 50.7275 131.971 50.4166 131.971H48.1185C47.8076 131.971 47.5508 131.714 47.5508 131.402ZM48.1185 129.643C47.8887 129.643 47.713 129.832 47.713 130.049V131.389C47.713 131.619 47.9022 131.795 48.1185 131.795H50.4166C50.6464 131.795 50.8221 131.605 50.8221 131.389V130.049C50.8221 129.819 50.6329 129.643 50.4166 129.643H48.1185Z" fill="white"/>
<path d="M49.1207 130.577C49.1207 130.658 49.1882 130.712 49.2693 130.712C49.3505 130.712 49.418 130.644 49.418 130.577V128.695C49.418 128.614 49.3505 128.56 49.2693 128.56C49.1882 128.56 49.1207 128.628 49.1207 128.695V130.577Z" fill="white"/>
<path d="M48.4367 102.614L45.4492 109.178C45.4492 109.178 46.0846 112.792 47.4093 114.2C47.8014 114.619 48.4367 114.741 48.9774 114.511C50.2211 113.997 53.0869 112.751 53.56 112.075C53.7898 111.736 53.8304 111.303 53.7087 110.911L52.8436 108.014L52.7354 101.274L48.4367 102.614Z" fill="#F8B68F"/>
<path d="M30.8767 23.664L30.7686 32.4618L38.5955 32.0422L39.0957 18.3989L30.8767 23.664Z" fill="#F4A086"/>
<path d="M29.5599 24.4761C28.4649 24.449 27.4511 24.2866 26.9239 23.8535C23.7742 19.2651 27.3564 6.8806 27.3564 6.8806L32.3987 4.75562L38.8062 8.76196L39.1712 17.0589C39.2658 19.2787 38.2114 21.4036 36.3054 22.7842C34.2912 23.9076 31.939 24.5438 29.5599 24.4761Z" fill="#F8B68F"/>
<path d="M43.5781 13.7453C43.5071 12.9934 44.2655 11.2429 44.7591 10.6709C47.8691 6.95278 44.2997 5.1512 43.0511 4.57246C41.6736 3.94293 41.5672 1.58031 39.7348 0.540934C36.9376 -1.04878 34.8519 1.37658 33.2223 1.32554C31.5779 1.27221 30.2673 -0.736166 28.1203 0.769021C25.9732 2.27421 26.5095 4.0858 25.8906 4.99351C25.2739 5.88613 23.575 3.94124 21.6878 6.76771C18.826 11.0644 25.8081 11.618 25.8081 11.618C25.8081 11.618 29.7414 12.596 34.326 9.87744C34.9559 9.51168 35.7718 9.52967 36.2853 10.0566C37.6953 11.4938 39.0027 20 39.0027 20L40.4258 18.3675C40.4109 18.3652 43.8718 17.2019 43.5781 13.7453Z" fill="#212B53"/>
<path d="M38.3762 16.9922C37.5522 16.8959 36.9451 15.9328 37.0029 14.8349C37.0752 13.737 37.798 12.928 38.622 13.0051C39.446 13.1014 40.0531 14.0645 39.9953 15.1624C39.9375 16.2795 39.2002 17.0885 38.3762 16.9922Z" fill="#F8B68F"/>
<path d="M44.1255 31.5818C41.5571 30.4584 38.502 29.7004 34.9333 29.7004C32.1486 29.7004 29.7694 29.9576 27.7417 30.3772C22.1047 31.5412 16.4984 35.5 14.7509 40.4743C13.0035 45.4486 11.5413 62 11.0018 78.5C10.4622 95 10.9983 104.5 10.9983 104.5H16.9983L17.5019 89.7958H46.8967L46.1667 52.7099L47.1941 104.63C47.1941 104.63 50.7763 104.887 53.6016 104.63C63.1723 82.6087 58.9953 57.4742 56.508 46.8899C54.9263 40.163 50.4384 34.37 44.1255 31.5818Z" fill="#FFDB71"/>
<path d="M46.4815 90.0125L44.7297 49.0138L45.5002 49.0002L47.252 90.0125H46.4815Z" fill="#FF9C00"/>
<path d="M18.001 89.9998L19.7695 48.5135L18.999 48.5L17.2304 89.9998H18.001Z" fill="#FF9C00"/>
<path d="M38.7468 27.1968L39.2334 30.0797L30.2305 30.0662L30.8252 27.1968H38.7468Z" fill="#FAB746"/>
</svg>
