<svg width="91" height="210" viewBox="0 0 91 210" fill="none" xmlns="http://www.w3.org/2000/svg">
<path d="M69.298 35.6422C62.4748 28.6474 49.4845 45.9458 44.8191 51.0541C43.9589 51.9974 42.9092 52.7665 41.7574 53.3179L10.5865 65.392L12.5402 68.5992L46.9186 61.2706C48.2599 60.9078 49.5428 60.3418 50.7092 59.5872C57.1971 55.3932 76.092 42.6225 69.298 35.6422Z" fill="#F8B68F"/>
<path d="M45.9949 60.792L30.6282 64.0282L30.9343 64.6522L46.1407 61.4451C47.5403 61.1403 48.8671 60.6179 50.0918 59.8923C53.5617 57.8606 59.0873 53.7246 64.1172 49.6322C63.9422 49.4726 63.7819 49.313 63.6069 49.1533C58.3291 53.4489 52.5265 57.7009 49.7564 59.3118C48.5901 59.9939 47.3217 60.5018 45.9949 60.792Z" fill="#F4A086"/>
<path d="M74.0995 28.0605C67.5825 28.0605 66.0516 29.0038 66.0516 29.0038C66.0516 29.0038 57.6976 39.3074 54.7817 45.983C53.6882 48.4791 53.6737 51.3234 54.8254 53.7905C59.9574 64.8052 59.3013 85.9928 59.3013 85.9928C59.3013 85.9928 73.1227 85.9928 78.3421 85.9928C77.5111 70.2182 93.8838 31.0645 74.0995 28.0605Z" fill="#FFDB71"/>
<path d="M50.7735 197.476L49.6217 201.395C49.3447 202.469 48.7032 203.383 47.7993 203.992C46.7933 204.674 45.2041 205.516 42.7985 206.242C46.0643 208.825 50.6569 206.227 53.2374 204.326C54.4912 203.397 55.3223 202.019 55.5847 200.437L55.9492 197.462H50.7735V197.476Z" fill="#F8B68F"/>
<path d="M55.785 199.508C55.785 199.508 57.9866 201.119 57.797 203.165C57.6075 205.211 57.5054 210 57.5054 210H55.3914L55.0561 205.531C55.0269 205.24 50.9447 210 50.1719 210H39.0187C39.0187 210 37.9981 206.982 44.4714 206.024C50.9301 205.052 55.785 199.508 55.785 199.508Z" fill="#043C5E"/>
<path d="M59.3145 86.0068L50.1585 197.721L56.3986 197.852C56.3986 197.852 67.9455 174.371 68.1933 154.91C68.2371 151.689 68.0913 148.423 69.9866 145.956C84.3911 127.192 77.116 97.5294 77.116 97.5294L67.3623 86.0068H59.3145Z" fill="#212B53"/>
<path d="M84.4326 197.475L82.9164 201.393C82.5373 202.467 81.8229 203.381 80.8607 203.991C79.7964 204.673 78.1343 205.514 75.6558 206.24C78.6883 208.823 83.5141 206.225 86.2696 204.324C87.6109 203.396 88.5732 202.017 88.9668 200.435L89.5938 197.46H84.4326V197.475Z" fill="#F8B68F"/>
<path d="M89.2767 199.506C89.2767 199.506 91.3324 201.117 90.9534 203.163C90.5743 205.209 90.0494 209.998 90.0494 209.998H87.9354L87.9937 205.529C87.9937 205.238 83.4741 209.998 82.7014 209.998H71.5481C71.5481 209.998 70.8046 206.98 77.3653 206.022C83.9115 205.05 89.2767 199.506 89.2767 199.506Z" fill="#043C5E"/>
<path d="M65.0949 23.6045L65.0804 36.0414L72.5742 27.9146L71.7724 16.334L65.0949 23.6045Z" fill="#F4A086"/>
<path d="M63.8514 5.45087C69.0417 6.14745 71.6223 12.7795 71.6223 12.7795L71.564 32.3853L80.5741 24.6358C80.5741 24.6358 81.2302 15.7835 78.9995 6.14744C77.075 0.0813884 69.3041 -1.51495 63.8514 1.44552C61.198 2.88221 59.6234 5.71206 58.6903 8.5129C57.4365 12.286 57.3198 16.3349 58.1508 20.2242L61.2417 34.6202L65.0907 30.8325C65.0907 30.8325 66.0821 27.1609 65.1053 23.62C63.1225 16.393 60.3523 4.97197 63.8514 5.45087Z" fill="#212B53"/>
<path d="M73.1543 13.0553C72.5712 12.4894 71.4777 12.6055 70.7196 13.2875C69.9615 13.9841 69.8157 14.9999 70.3988 15.5514C70.982 16.1174 72.0754 16.0013 72.8336 15.3192C73.5917 14.6226 73.7375 13.6068 73.1543 13.0553Z" fill="#F8B68F"/>
<path d="M62.9337 23.7803C61.9277 23.7512 60.9946 23.5916 60.5135 23.1562C57.6122 18.5559 60.9217 6.16258 60.9217 6.16258L65.558 4.0293L71.4481 8.03465L71.7834 16.3501C71.8709 18.5704 70.8941 20.6892 69.1591 22.0823C67.2638 23.2143 65.1206 23.8383 62.9337 23.7803Z" fill="#F8B68F"/>
<path d="M62.8608 4.7689C61.7528 8.46948 71.6231 12.7796 71.6231 12.7796L74.1016 8.1502L69.5674 2.62109L63.8377 3.53536C63.8522 3.53536 63.0503 4.15939 62.8608 4.7689Z" fill="#212B53"/>
<path d="M62.8052 5.55247C62.6011 7.01819 60.3121 8.78866 60.3121 8.78866L60.0934 7.04721L60.6183 5.8137L61.7992 5.16064C61.7846 5.16064 63.0093 4.08675 62.8052 5.55247Z" fill="#212B53"/>
<path d="M78.3571 86.0068C78.3571 86.0068 96.9605 93.7708 87.4839 142.459C86.9299 145.318 87.2798 148.278 88.1108 151.079C92.1201 164.662 89.8457 197.852 89.8457 197.852H83.5765C83.5765 197.852 62.6113 111.214 61.2554 86.0068C73.8666 86.0068 78.3571 86.0068 78.3571 86.0068Z" fill="#043C5E"/>
<path d="M9.69432 65.4094C9.37357 65.5691 5.24714 65.9633 3.64432 65.7746C2.04149 65.586 -0.000549316 65.4897 -0.000549316 66.5002C-0.000549316 67.5107 -0.000549316 69.4041 1.4574 70.1292C2.91534 70.8544 6.85137 70.2855 8.36763 69.9662L12.931 68.428C12.931 68.428 13.8641 66.1786 13.937 66.077L13.1351 65.4675C11.9833 65.6416 10.8169 65.6126 9.69432 65.4094Z" fill="#F8B68F"/>
<path d="M6.79062 66.355C6.79062 66.355 8.70297 66.8839 8.49885 67C8.74671 67.1887 9.78016 66.2968 9.99886 66.5C11.0923 66.8048 11.7914 66.0212 12.8703 66.355C12.9723 65.6584 11.9842 65.5726 11.9988 65.5C11.9988 65.5 10.9988 64 9.49878 63C7.99878 62 6.49902 61 6.49902 61C6.49902 61 5.71174 61.6531 6.79062 62.8431C7.88408 64.0476 6.79062 66.355 6.79062 66.355Z" fill="#F8B68F"/>
<path d="M58.498 96C58.498 76 58 66.5 58 57C58 44 65.498 32.5 75.998 32.5C84.498 32.5 82.5279 42.2466 80.998 57C79.6775 69.7342 78.998 87.346 78.998 92" stroke="#01898C" stroke-width="0.75"/>
<path d="M59.2639 107.708H77.2695C79.019 107.708 80.4332 106.286 80.4332 104.559V92.7892C80.4332 91.0478 79.0044 89.6401 77.2695 89.6401H59.2639C57.5143 89.6401 56.1001 91.0623 56.1001 92.7892V104.559C56.1001 106.286 57.5289 107.708 59.2639 107.708Z" fill="#FFDB71"/>
<path d="M56.1005 98.2892V92.7746C56.1005 91.0331 57.5293 89.6255 59.2642 89.6255H77.2698C79.0194 89.6255 80.4336 91.0476 80.4336 92.7746V98.2892H56.1005Z" fill="#FFDB71"/>
<path d="M58.7562 107.707C60.2725 107.707 61.5117 107.054 61.5117 105.545V91.7873C61.5117 90.278 60.2725 89.625 58.7562 89.625C57.24 89.625 56.0007 90.8585 56.0007 91.7873V104.964C55.9861 107.054 57.2254 107.707 58.7562 107.707Z" fill="#01898C"/>
<path d="M71.1303 101.265C71.5968 101.265 71.9613 100.888 71.9613 100.438V96.2295C71.9613 95.7651 71.5822 95.4023 71.1303 95.4023C70.6637 95.4023 70.2992 95.7796 70.2992 96.2295V100.438C70.2846 100.888 70.6637 101.265 71.1303 101.265Z" fill="#043C5E"/>
<path d="M80.532 35.1824C82.4988 37.5004 80.2405 70.4032 71.0117 69.9823C61.7829 69.5615 55.7178 41.7563 55.7178 41.7563L59.4502 40.6679L68.402 57.4875C68.402 57.4875 67.0606 52.0019 69.335 41.916C71.5948 31.8301 78.5652 32.8643 80.532 35.1824Z" fill="#F8B68F"/>
<path d="M59.6153 41.3194L61.2773 34.6148C61.2773 34.6148 60.0235 31.3351 58.5364 30.2467C58.0844 29.9129 57.4721 29.9274 57.0056 30.2322C55.9267 30.9433 53.4336 32.6122 53.0983 33.3378C52.9379 33.7006 52.9816 34.1214 53.1712 34.4697L54.4833 37.0238L55.708 41.7693L59.6153 41.3194Z" fill="#F8B68F"/>
</svg>
