<svg width="98" height="210" viewBox="0 0 98 210" fill="none" xmlns="http://www.w3.org/2000/svg">
<path d="M65.0422 26.1684L68.7353 34.3973L74.766 29.0026L70.5032 17.0208L65.0422 26.1684Z" fill="#F4A086"/>
<path d="M62.898 26.6959C61.8961 26.8327 60.9336 26.8131 60.3639 26.4613C56.7101 22.3371 57.9673 10.1793 57.9673 10.1793L62.2497 6.50464L68.8108 9.55384L70.5199 16.2387C70.9717 18.4474 70.3431 22.3175 68.8305 23.979C67.1411 25.4058 65.0981 26.4027 62.898 26.6959Z" fill="#F9C1A0"/>
<path d="M61.8958 70.3034C61.8958 70.3034 60.4225 72.4339 57.4562 73.4503C54.49 74.4667 32.4296 69.8538 32.4296 69.8538L27.9901 70.3229C25.6721 70.9484 23.2166 70.8311 20.9771 69.9711L14.4945 67.4692L52.5452 66.6873L67.1211 48.6853L61.8958 70.3034Z" fill="#F8B68F"/>
<path d="M74.7566 29.002C74.7566 29.002 83.5572 40.2019 85.6002 47.5709C87.6628 54.9398 88.3896 75.2483 88.3896 75.2483H69.8849C69.8849 75.2483 64.581 65.6706 60.4558 56.9726C59.2182 54.3729 59.1789 51.3433 60.3379 48.7045C63.3631 41.9024 67.9009 32.5398 67.9009 32.5398L74.7566 29.002Z" fill="#FFDB71"/>
<path d="M65.3656 197.862L63.8923 201.654C63.5387 202.689 62.8315 203.589 61.8886 204.175C60.8475 204.84 59.2367 205.758 56.8401 206.462C59.7867 208.964 64.462 206.345 67.1336 204.507C68.4301 203.608 69.3534 202.259 69.7463 200.735L70.3552 197.862H65.3656Z" fill="#F8B68F"/>
<path d="M70.0419 199.836C70.0419 199.836 72.026 201.4 71.6724 203.374C71.2991 205.348 70.7884 210 70.7884 210H68.7454L68.8043 205.661C68.8043 205.387 64.4237 210 63.6772 210H52.8533C52.8533 210 52.1265 207.068 58.4912 206.13C64.8559 205.192 70.0419 199.836 70.0419 199.836Z" fill="#043C5E"/>
<path d="M86.4162 197.862L84.9429 201.654C84.5893 202.689 83.8821 203.589 82.9392 204.175C81.898 204.84 80.2872 205.758 77.8906 206.462C80.8373 208.964 85.5125 206.345 88.1841 204.507C89.4806 203.608 90.4039 202.259 90.7968 200.735L91.4058 197.862H86.4162Z" fill="#F8B68F"/>
<path d="M91.093 199.836C91.093 199.836 93.077 201.4 92.7234 203.374C92.3502 205.348 91.8394 210 91.8394 210H89.7965L89.8554 205.661C89.8554 205.387 85.4748 210 84.7283 210H73.9044C73.9044 210 73.1776 207.068 79.5422 206.13C85.9069 205.192 91.093 199.836 91.093 199.836Z" fill="#043C5E"/>
<path d="M69.8928 75.5808C69.8928 75.5808 60.719 89.2827 68.5767 143.875C67.3391 164.516 65.0407 198.468 65.0407 198.468H70.2464C70.2464 198.468 84.7045 162.288 79.8524 144.286C78.6934 126.44 83.1526 75.2681 83.1526 75.2681L69.8928 75.5808Z" fill="#212B53"/>
<path d="M88.394 75.2485C88.394 75.2485 98 82.9497 98 94.3647C98 103.317 93.6587 121.886 91.1639 134.044C90.2602 138.461 91.1639 143.015 92.4211 147.335C97.5089 164.966 91.321 198.468 91.321 198.468H86.135C86.135 198.468 85.86 181.228 78.7684 142.605C70.6161 98.2349 69.8697 75.268 69.8697 75.268H88.394V75.2485Z" fill="#043C5E"/>
<path d="M13.4749 67.4695H43.6875V65.2607H14.8107L1.98307 40.9844L-0.00094223 42.0008L13.4749 67.4695Z" fill="url(#paint0_linear)"/>
<path d="M83.129 49.5455C83.129 49.5455 73.4838 71.9064 68.8281 71.9064C64.1921 71.9064 38.4976 60.9801 38.4976 60.9801L39.1852 57.1686L65.41 61.586C65.41 61.586 67.7477 55.4094 69.3389 48.3532C69.9871 45.5581 72.1676 43.2712 74.9964 42.7239C81.2236 41.5512 83.129 49.5455 83.129 49.5455Z" fill="#F8B68F"/>
<path d="M70.3234 14.0494C70.3234 14.0494 67.4553 15.7694 58.694 10.1792C57.3582 10.531 59.4995 -2.03721 70.8341 1.65702C78.7703 4.23712 78.3971 11.8797 78.0238 16.1213C77.631 20.6951 80.0275 23.7052 83.1706 27.0476C85.8225 29.8427 85.7833 35.0029 87.5512 37.7784C89.7317 41.199 92.0301 40.9841 93.7391 44.4633C95.5464 48.0793 95.7821 52.5163 93.3659 55.7805C91.9908 57.6374 88.7888 62.0939 83.7403 60.4911C80.8919 59.592 80.1257 54.6664 80.0079 50.5031C79.89 46.8088 78.1024 43.3687 75.1951 41.0622C72.4646 38.8926 69.4787 35.9411 68.6929 32.8528C67.141 26.774 70.3234 14.0494 70.3234 14.0494Z" fill="#212B53"/>
<path d="M71.3429 14.2835C70.675 13.8143 69.5946 14.1075 68.9463 14.9285C68.2981 15.7494 68.3177 16.7854 68.9856 17.2545C69.6535 17.7236 70.7339 17.4304 71.3822 16.6095C72.0501 15.7885 72.0305 14.7526 71.3429 14.2835Z" fill="#F8B68F"/>
<path d="M24.8243 59.1032C24.7654 58.5559 25.0601 58.0281 25.5708 57.8131L30.5015 55.6826C31.7194 55.1548 33.0945 55.0962 34.3517 55.5067L39.2431 57.129L39.911 57.1486L40.4414 61.6833C39.4592 61.3315 38.8895 61.0969 38.8895 61.0969L35.7858 59.9828C35.7858 59.9828 29.0282 65.6707 26.6316 60.5105C25.9048 65.6316 24.4511 65.0647 24.4511 65.0647L24.8243 59.1032Z" fill="#F8B68F"/>
<path d="M74.6776 9.63179C73.715 13.1306 68.7057 14.8115 63.5197 13.3846C58.3337 11.9578 55.5049 8.06806 55.8782 4.47156C56.3693 -0.278169 61.85 -0.708152 67.036 0.718722C72.2221 2.1456 75.6401 6.13302 74.6776 9.63179Z" fill="#212B53"/>
<defs>
<linearGradient id="paint0_linear" x1="43.6971" y1="54.2246" x2="0.00809485" y2="54.2246" gradientUnits="userSpaceOnUse">
<stop stop-color="#E0F0EB"/>
<stop offset="1" stop-color="#C0E4EF"/>
</linearGradient>
</defs>
</svg>
