<svg width="32" height="20" viewBox="0 0 32 20" fill="none" xmlns="http://www.w3.org/2000/svg">
<rect width="32" height="20" fill="#00247C"/>
<path d="M3.00101 0L14 6V8H10L0.00100994 3V0H3.00101Z" fill="white"/>
<path d="M28.999 0L18 6V8H22L31.999 3V0H28.999Z" fill="white"/>
<path d="M14 14L3 20H0V17L10 12H14V14Z" fill="white"/>
<path d="M29 20L18 14V12H22L32 17V20H29Z" fill="white"/>
<path d="M15.3912 8.69661L31.3335 0H32V0.636439L16.6682 9H13.998L0 2.00101V1.00101L15.3912 8.69661Z" fill="#CE142A"/>
<path d="M32 17.9991L18.0019 11H15.3316L0 19.3635V20H0.666329L16.6087 11.3034L32 18.9991V17.9991Z" fill="#CE142A"/>
<path d="M19 0H13V7H0V13H13V20H19V13H32V7H19V0Z" fill="white"/>
<path d="M18 0H14V8H0V12H14V20H18V12H32V8H18V0Z" fill="#CE142A"/>
</svg>
